<?xml version="1.0" encoding="UTF-8"?>
<!DOCTYPE svg PUBLIC "-//W3C//DTD SVG 1.1//EN" "http://www.w3.org/Graphics/SVG/1.1/DTD/svg11.dtd">
<!-- Creator: CorelDRAW X8 -->
<svg xmlns="http://www.w3.org/2000/svg" xml:space="preserve" width="141.077mm" height="124.308mm" version="1.1" style="shape-rendering:geometricPrecision; text-rendering:geometricPrecision; image-rendering:optimizeQuality; fill-rule:evenodd; clip-rule:evenodd"
viewBox="0 0 7053 6214"
 xmlns:xlink="http://www.w3.org/1999/xlink">
 <defs>
  <style type="text/css">
   <![CDATA[
    .str0 {stroke:#00A3FE;stroke-width:3.80933}
    .fil5 {fill:#FEFEFE;fill-rule:nonzero}
    .fil6 {fill:#F08E7D;fill-rule:nonzero}
    .fil16 {fill:#EA584F;fill-rule:nonzero}
    .fil2 {fill:#FDFCFC;fill-rule:nonzero}
    .fil3 {fill:#F9FAFA;fill-rule:nonzero}
    .fil18 {fill:#F7FAFD;fill-rule:nonzero}
    .fil4 {fill:#F7F7F7;fill-rule:nonzero}
    .fil13 {fill:#E7705F;fill-rule:nonzero}
    .fil21 {fill:#F4F8FC;fill-rule:nonzero}
    .fil19 {fill:#F3F7FC;fill-rule:nonzero}
    .fil28 {fill:#F3F4F2;fill-rule:nonzero}
    .fil0 {fill:#EEEFEE;fill-rule:nonzero}
    .fil22 {fill:#E9EEF6;fill-rule:nonzero}
    .fil11 {fill:#E8ECF1;fill-rule:nonzero}
    .fil1 {fill:#E8E8E9;fill-rule:nonzero}
    .fil20 {fill:#DFE3EB;fill-rule:nonzero}
    .fil14 {fill:#D6D7D5;fill-rule:nonzero}
    .fil17 {fill:#B2C8E7;fill-rule:nonzero}
    .fil23 {fill:#ACC2E5;fill-rule:nonzero}
    .fil25 {fill:#A1A19C;fill-rule:nonzero}
    .fil27 {fill:#95B3DD;fill-rule:nonzero}
    .fil29 {fill:#81A2D4;fill-rule:nonzero}
    .fil24 {fill:#779CD1;fill-rule:nonzero}
    .fil7 {fill:#4673B8;fill-rule:nonzero}
    .fil12 {fill:#2A3B41;fill-rule:nonzero}
    .fil8 {fill:#2F61AB;fill-rule:nonzero}
    .fil9 {fill:#0F4B9C;fill-rule:nonzero}
    .fil15 {fill:#00A3FE;fill-rule:nonzero}
    .fil10 {fill:#0282C7;fill-rule:nonzero}
    .fil26 {fill:#03476B;fill-rule:nonzero}
   ]]>
  </style>
 </defs>
 <g id="Layer_x0020_1">
  <metadata id="CorelCorpID_0Corel-Layer"/>
  <polygon class="fil0" points="675,5689 1259,5689 1259,5685 675,5685 "/>
  <polygon class="fil0" points="152,5689 490,5689 490,5685 152,5685 "/>
  <polygon class="fil0" points="2432,5754 2771,5754 2771,5750 2432,5750 "/>
  <polygon class="fil0" points="3774,5852 4536,5852 4536,5848 3774,5848 "/>
  <polygon class="fil0" points="3505,5852 3617,5852 3617,5848 3505,5848 "/>
  <polygon class="fil0" points="5401,5754 7053,5754 7053,5750 5401,5750 "/>
  <polygon class="fil1" points="3386,5450 3773,5450 3773,3911 3386,3911 "/>
  <polygon class="fil2" points="3700,5450 3773,5450 3773,5240 3622,5240 "/>
  <polygon class="fil1" points="1686,5450 2074,5450 2074,3911 1686,3911 "/>
  <polygon class="fil2" points="2010,5321 3773,5321 3773,3911 2010,3911 "/>
  <path class="fil1" d="M3716 3974l-1649 0 0 386 1649 0 0 -386zm-7 7l0 373 -1635 0 0 -373 1635 0z"/>
  <polygon class="fil2" points="2083,5450 2010,5450 2010,5240 2161,5240 "/>
  <path class="fil0" d="M2853 4167c0,22 17,39 39,39 21,0 39,-17 39,-39 0,-21 -18,-39 -39,-39 -22,0 -39,18 -39,39z"/>
  <path class="fil1" d="M3716 4423l-1649 0 0 387 1649 0 0 -387zm-7 7l0 373 -1635 0 0 -373 1635 0z"/>
  <path class="fil0" d="M2853 4616c0,22 17,39 39,39 21,0 39,-17 39,-39 0,-21 -18,-39 -39,-39 -22,0 -39,18 -39,39z"/>
  <path class="fil1" d="M3716 4872l-1649 0 0 387 1649 0 0 -387zm-7 7l0 373 -1635 0 0 -373 1635 0z"/>
  <path class="fil0" d="M2853 5065c0,22 17,39 39,39 21,0 39,-17 39,-39 0,-21 -18,-39 -39,-39 -22,0 -39,18 -39,39z"/>
  <polygon class="fil1" points="1449,5450 1837,5450 1837,3018 1449,3018 "/>
  <polygon class="fil2" points="1763,5450 1837,5450 1837,5240 1686,5240 "/>
  <polygon class="fil1" points="0,5450 388,5450 388,3018 0,3018 "/>
  <polygon class="fil2" points="324,5321 1837,5321 1837,3018 324,3018 "/>
  <path class="fil1" d="M1780 3075l-1399 0 0 538 1399 0 0 -538zm-8 8l0 522 -1383 0 0 -522 1383 0z"/>
  <path class="fil1" d="M1780 3660l-675 0 0 1399 675 0 0 -1399zm-8 8l0 1383 -659 0 0 -1383 659 0z"/>
  <path class="fil1" d="M1056 3660l-675 0 0 1399 675 0 0 -1399zm-8 8l0 1383 -659 0 0 -1383 659 0z"/>
  <polygon class="fil2" points="397,5450 324,5450 324,5240 474,5240 "/>
  <path class="fil0" d="M1041 3344c0,21 18,39 39,39 22,0 39,-18 39,-39 0,-22 -17,-39 -39,-39 -21,0 -39,17 -39,39z"/>
  <path class="fil0" d="M1181 4327c0,21 17,39 39,39 22,0 39,-18 39,-39 0,-22 -17,-39 -39,-39 -22,0 -39,17 -39,39z"/>
  <path class="fil0" d="M902 4327c0,21 17,39 39,39 21,0 39,-18 39,-39 0,-22 -18,-39 -39,-39 -22,0 -39,17 -39,39z"/>
  <path class="fil1" d="M858 2340l-164 0c0,0 29,151 29,240 0,89 -125,438 53,438 178,0 53,-349 53,-438 0,-89 29,-240 29,-240z"/>
  <path class="fil3" d="M236 2697l0 107c0,118 96,214 214,214l106 0c118,0 214,-96 214,-214l0 -107 -534 0z"/>
  <path class="fil1" d="M2508 3687c0,123 138,224 307,224l153 0c168,0 306,-101 306,-224l-766 0z"/>
  <path class="fil1" d="M6546 3507c-93,75 -220,213 -337,408 -78,129 -125,265 -145,444 0,-203 1,-421 1,-627 24,-53 78,-175 116,-271 128,-321 176,-400 292,-678 153,-370 311,-809 266,-774 -92,72 -445,732 -483,827 -131,325 -168,562 -190,791 1,-193 1,-371 2,-507 2,-447 10,-591 14,-635 14,-23 31,-49 41,-63 82,-120 114,-222 192,-401 111,-253 206,-702 179,-680 -116,95 -208,298 -328,556 -120,259 -86,408 -110,628 -5,44 -9,207 -11,434 -32,-241 -90,-401 -197,-545 -131,-178 -258,-298 -351,-361 -93,-63 161,374 282,565 108,170 208,320 264,467 -3,307 -4,697 -4,1059 -28,-165 -74,-343 -134,-480 -73,-165 -185,-418 -275,-504 -21,-21 94,472 167,603 74,131 128,254 175,328 10,18 46,84 67,123 0,442 2,832 6,965l19 0c-1,-34 -1,-259 -1,-557 46,-162 151,-346 238,-514 95,-184 337,-677 245,-601z"/>
  <polygon class="fil4" points="6331,5450 5779,5450 5737,4908 6373,4908 "/>
  <polygon class="fil3" points="6414,4971 5696,4971 5675,4788 6435,4788 "/>
  <polygon class="fil1" points="260,1091 1249,1091 1249,5 260,5 "/>
  <polygon class="fil3" points="335,1091 1356,1091 1356,5 335,5 "/>
  <polygon class="fil5" points="421,1005 1271,1005 1271,91 421,91 "/>
  <polygon class="fil3" points="627,784 1064,784 1064,313 627,313 "/>
  <polygon class="fil1" points="5371,1140 6289,1140 6289,132 5371,132 "/>
  <polygon class="fil3" points="5440,1140 6389,1140 6389,132 5440,132 "/>
  <polygon class="fil5" points="5520,1061 6309,1061 6309,211 5520,211 "/>
  <path class="fil3" d="M6161 636c0,136 -111,246 -247,246 -136,0 -246,-110 -246,-246 0,-136 110,-246 246,-246 136,0 247,110 247,246z"/>
  <polygon class="fil1" points="1543,1458 2276,1458 2276,653 1543,653 "/>
  <polygon class="fil3" points="1598,1458 2355,1458 2355,653 1598,653 "/>
  <polygon class="fil5" points="1661,1394 2292,1394 2292,716 1661,716 "/>
  <polygon class="fil3" points="1977,884 1804,1182 2149,1182 "/>
  <path class="fil3" d="M6886 6015c0,110 -1531,199 -3419,199 -1889,0 -3420,-89 -3420,-199 0,-111 1531,-200 3420,-200 1888,0 3419,89 3419,200z"/>
  <path class="fil6" d="M5217 1556l-175 -71c0,0 -231,421 -297,442 -90,29 -276,110 -387,125 -15,17 -39,72 -37,92 148,50 474,-16 544,-68 159,-118 352,-520 352,-520z"/>
  <path class="fil7" d="M5271 1461c32,120 -145,363 -145,363l-232 -131c0,0 44,-99 97,-201 85,-164 242,-169 280,-31z"/>
  <path class="fil8" d="M5027 1768l-133 -75c0,0 44,-99 97,-201 35,-67 81,-107 127,-122 0,0 -27,62 -55,181 -36,54 -63,142 -76,194l40 22c0,1 0,1 0,1zm91 -398c7,-2 13,-4 20,-5 -12,3 -19,5 -20,5z"/>
  <path class="fil9" d="M5027 1767l-40 -22c13,-52 40,-140 76,-194 -13,58 -26,131 -36,216z"/>
  <path class="fil7" d="M5118 1370c0,0 -180,401 -75,1147 214,0 606,0 710,0 12,-109 -26,-640 110,-1154 0,0 -121,-25 -236,-30 -91,-4 -222,-7 -302,0 -106,10 -207,37 -207,37z"/>
  <path class="fil10" d="M5753 2517c-104,0 -496,0 -710,0 -5,-35 -9,-70 -13,-104l528 -171c83,-25 154,-76 203,-147 2,-32 3,-66 6,-100 -17,258 -7,460 -14,522zm-732 -202c-8,-89 -11,-172 -11,-249 0,-456 108,-696 108,-696 0,0 101,-27 207,-37 35,-3 80,-5 128,-5 60,0 123,2 174,5 103,5 210,25 232,29 -8,-1 -15,-2 -22,-2 -56,0 -115,39 -154,123 -70,152 -107,266 -107,266l0 0 47 19c-45,94 -93,179 -119,191 -87,40 -306,176 -399,241 -2,13 -2,36 0,57l-84 58 0 0z"/>
  <path class="fil11" d="M5555 6065c-333,0 -602,-16 -601,-34 1,-19 272,-35 605,-35 333,0 603,16 601,35 -1,18 -272,34 -605,34z"/>
  <polygon class="fil6" points="5553,5836 5427,5884 5318,5603 5445,5555 "/>
  <polygon class="fil6" points="5989,5895 5857,5895 5808,5587 5941,5587 "/>
  <path class="fil12" d="M5848 5880l149 0c6,0 10,3 11,9l19 118c2,12 -8,23 -21,23 -52,-1 -77,-4 -142,-4 -41,0 -124,5 -180,5 -54,0 -60,-56 -36,-61 103,-22 144,-53 178,-82 6,-6 14,-8 22,-8z"/>
  <path class="fil12" d="M5406 5833l141 -41c6,-2 11,1 14,5l52 106c5,11 -1,25 -13,28 -52,14 -86,23 -150,42 -44,13 -90,34 -133,47 -31,10 -102,11 -139,11 -54,0 -66,-58 -43,-61 59,-6 67,-3 100,-20 54,-27 95,-49 142,-98 8,-8 18,-16 29,-19z"/>
  <path class="fil6" d="M4381 2051l-146 -62 -61 162c0,0 85,15 181,0l26 -100z"/>
  <polygon class="fil6" points="4126,1985 4122,2093 4174,2151 4235,1989 "/>
  <polygon class="fil13" points="5318,5603 5374,5748 5501,5700 5445,5555 "/>
  <polygon class="fil13" points="5941,5588 5808,5588 5833,5746 5966,5746 "/>
  <path class="fil14" d="M5030 2414c-4,-34 -7,-67 -9,-99l0 0c2,32 5,65 9,98l0 1zm737 -419c1,-30 4,-61 6,-93 0,0 0,0 0,0 -1,15 -2,30 -3,44 -1,17 -2,33 -3,49z"/>
  <path class="fil9" d="M5030 2413c-4,-33 -7,-66 -9,-98l84 -58c2,17 6,33 11,40 158,-29 463,-146 526,-205 45,-43 91,-113 131,-190 -2,32 -5,63 -6,93 -3,34 -4,68 -6,100 -49,71 -120,122 -203,147l-528 171z"/>
  <path class="fil5" d="M5193 1737l-18 -2c11,-88 76,-158 146,-156l-1 18c-60,-2 -118,61 -127,140z"/>
  <path class="fil5" d="M5287 1900l-3 0 1 -18c60,2 117,-61 127,-140l18 2c-11,87 -74,156 -143,156z"/>
  <path class="fil6" d="M5617 993c-25,97 -55,275 10,340 0,0 -45,98 -226,98 -165,0 -76,-98 -76,-98 110,-26 111,-106 97,-182l195 -158z"/>
  <path class="fil13" d="M5537 1058l-115 93c4,18 6,36 6,54 34,33 102,-52 108,-95 4,-22 4,-42 1,-52z"/>
  <path class="fil13" d="M5224 992c17,30 47,49 75,55 42,10 64,-29 52,-69 -11,-35 -45,-82 -88,-74 -42,8 -58,53 -39,88z"/>
  <path class="fil12" d="M5294 681c-66,30 -89,292 -6,331 83,39 131,-388 6,-331z"/>
  <path class="fil6" d="M5637 847c-16,131 -19,209 -89,276 -106,102 -265,42 -288,-90 -22,-118 8,-313 139,-366 130,-51 254,48 238,180z"/>
  <path class="fil12" d="M5420 749c98,-25 169,-42 144,39 -34,109 -75,214 -20,219 33,3 181,-60 162,-123 -16,-56 53,-71 66,-99 45,-102 -85,-88 -62,-150 23,-60 -105,-161 -176,-112 -115,80 -312,79 -208,-52 74,-94 -59,-75 -59,-75 0,0 80,48 -54,121 -143,78 -12,288 207,232z"/>
  <path class="fil6" d="M5688 992c-21,30 -53,49 -82,55 -43,10 -60,-29 -44,-69 15,-35 55,-82 97,-74 41,8 52,53 29,88z"/>
  <path class="fil15" d="M5043 2517c0,0 -119,1067 -128,1472 -10,421 404,1736 404,1736l211 -89c0,0 -246,-1201 -212,-1615 37,-451 192,-1504 192,-1504l-467 0z"/>
  <path class="fil8" d="M5360 3628c-49,-218 -109,-580 -34,-785 16,169 37,382 59,581 -9,70 -17,138 -25,204z"/>
  <polygon class="fil7" points="5521,5566 5546,5634 5302,5736 5263,5665 "/>
  <path class="fil15" d="M5295 2517c0,0 91,1015 152,1395 66,417 326,1803 326,1803l243 0c0,0 -146,-1353 -173,-1765 -30,-447 -90,-1433 -90,-1433l-458 0z"/>
  <polygon class="fil7" points="6020,5652 6028,5720 5761,5720 5742,5642 "/>
  <path class="fil8" d="M5927 5572l-3 -2c-1,-13 -132,-1234 -157,-1605 -27,-401 -81,-1293 -81,-1301l2 -3 0 0 2 2c1,9 55,900 81,1302 25,370 157,1592 158,1604l-2 3 0 0z"/>
  <path class="fil12" d="M5435 884c-1,10 -7,19 -14,19 -7,0 -12,-9 -11,-19 0,-11 7,-20 14,-20 7,0 12,9 11,20z"/>
  <path class="fil12" d="M5314 884c-1,10 -7,19 -14,19 -7,0 -12,-9 -11,-19 0,-11 6,-20 13,-20 7,0 13,9 12,20z"/>
  <path class="fil16" d="M5352 889c0,0 -28,62 -56,91 18,18 50,10 50,10l6 -101z"/>
  <path class="fil12" d="M5355 1035c-1,0 -3,-1 -3,-3 0,-2 2,-3 4,-3 47,0 71,-33 71,-33l4 -1 1 4c-1,1 -26,36 -77,36z"/>
  <path class="fil12" d="M5457 851c-2,1 -4,1 -6,-1 -23,-14 -45,-4 -45,-4 -3,1 -7,0 -8,-3 -1,-3 0,-7 3,-9 1,0 29,-12 57,6 3,2 4,5 2,8l-3 3z"/>
  <path class="fil12" d="M5267 816l-2 -2c-3,-2 -3,-6 0,-8 24,-26 53,-22 54,-22 4,0 6,3 5,7 -1,3 -4,6 -7,5 -1,0 -24,-3 -43,18 -2,2 -5,2 -7,2z"/>
  <path class="fil6" d="M5931 1536l-184 -48c0,0 -180,442 -243,471 -87,40 -306,176 -399,241 -5,22 -1,81 11,97 158,-29 463,-146 526,-205 145,-136 289,-556 289,-556z"/>
  <path class="fil7" d="M5785 5875c-2,0 -3,1 -5,1 0,1 -1,1 -2,4 0,5 1,8 4,11 7,6 24,7 47,3 -15,-9 -34,-19 -44,-19zm18 28c-10,0 -20,-2 -25,-7 -5,-4 -7,-10 -6,-17 1,-5 4,-7 6,-9 15,-7 56,19 61,22l1 3 -2 3c-10,2 -23,5 -35,5z"/>
  <path class="fil7" d="M5813 5844l-1 0c-4,1 -5,3 -5,4 -2,8 14,30 27,41 -1,-12 -4,-34 -14,-42 -2,-2 -4,-3 -7,-3zm24 54l-1 0c-14,-8 -39,-37 -35,-52 1,-2 3,-7 11,-8 5,-1 9,1 13,4 14,13 15,51 15,53l-1 3 -2 0z"/>
  <path class="fil7" d="M5306 5860c-3,0 -5,1 -6,2 -1,1 -1,2 -1,4 0,4 2,7 5,9 10,5 32,1 60,-11 -20,-4 -46,-7 -58,-4zm28 21c-13,3 -25,4 -33,0 -5,-3 -8,-8 -8,-14 -1,-4 0,-7 3,-9 14,-13 72,1 78,2l3 3 -2 3c-11,5 -26,11 -41,15z"/>
  <path class="fil7" d="M5332 5822l-1 0c-6,2 -6,5 -6,5 0,9 26,26 44,32 -4,-10 -13,-30 -25,-36 -4,-2 -8,-2 -12,-1zm42 44l-1 0c-17,-3 -54,-23 -54,-38 0,-4 1,-9 10,-11 6,-3 12,-2 18,1 19,9 29,43 30,44l-1 3 -2 1z"/>
  <path class="fil6" d="M5120 2190l-184 85 -21 52 68 45c0,0 127,-14 163,-95l-26 -87z"/>
  <path class="fil12" d="M5128 2300c-11,-69 -34,-100 -34,-100l29 -22c1,2 28,38 41,116l-36 6z"/>
  <path class="fil12" d="M5160 2215c5,15 -4,33 -22,40 -18,7 -37,1 -43,-14 -6,-15 4,-33 22,-40 17,-7 37,-1 43,14z"/>
  <polygon class="fil6" points="4812,2343 4837,2368 5002,2297 4936,2275 "/>
  <polygon class="fil8" points="5302,5736 5263,5665 5521,5566 5546,5634 5485,5659 5360,5712 5360,5712 "/>
  <polygon class="fil8" points="6028,5720 5761,5720 5742,5642 6020,5652 "/>
  <path class="fil7" d="M5979 1486c48,156 -141,370 -141,370l-262 -107c0,0 37,-114 107,-266 80,-173 247,-155 296,3z"/>
  <path class="fil8" d="M5838 1856l-34 -14 -181 -74 -47 -19c0,0 37,-114 107,-266 39,-84 98,-123 154,-123 60,0 116,44 142,126 5,18 8,36 8,55 -1,147 -149,315 -149,315z"/>
  <polygon class="fil15" points="4800,0 2719,0 2525,4333 4606,4333 "/>
  <path class="fil5" d="M4544 4393l-59 0 2 -60 60 0 -3 60zm-1830 -4274l-60 0 3 -60 59 0 -2 60z"/>
  <polygon class="fil17" points="4547,4333 4487,4333 4676,119 2714,119 2716,59 4738,59 "/>
  <polygon class="fil18" points="4482,4452 3773,4452 3773,4393 4485,4393 "/>
  <path class="fil19" d="M3773 4452l-57 0 0 -29 -1285 0c9,-21 17,-42 24,-63l10 0 -2 33 1310 0 0 59zm-64 0l-1291 0c4,-7 7,-15 10,-22l1281 0 0 22zm-1244 -98l-8 0c3,-10 6,-19 9,-28l-1 28z"/>
  <path class="fil20" d="M2465 4360l-10 0c1,-2 2,-4 2,-6l8 0 0 6z"/>
  <path class="fil20" d="M3716 4452l-7 0 0 -22 -1281 0c1,-3 2,-5 3,-7l1285 0 0 29z"/>
  <path class="fil18" d="M2485 3911l-52 0c-2,-6 -4,-13 -7,-19l169 -3773 59 0 -169 3792z"/>
  <path class="fil19" d="M2478 4071c-6,-30 -14,-60 -22,-90l26 0 -4 90zm4 -97l-28 0c-7,-21 -13,-42 -21,-63l52 0 -3 63z"/>
  <path class="fil20" d="M2482 3981l-26 0c-1,-3 -2,-5 -2,-7l28 0 0 7z"/>
  <path class="fil21" d="M4485 4393l-712 0 0 -60 714 0 -2 60zm-1941 -482l-59 0 169 -3792 60 0 -160 3568 -46 0c0,41 15,79 41,112l-5 112z"/>
  <path class="fil19" d="M3773 4393l-1310 0 2 -33 1251 0 0 -27 57 0 0 60zm-64 -39l-1244 0 1 -28c15,-51 24,-99 24,-143 0,-3 0,-7 0,-11 -1,-32 -6,-66 -12,-101l4 -90 59 0 -16 352 1184 0 0 21zm-1168 -380l-59 0 3 -63 59 0 -3 63z"/>
  <path class="fil22" d="M3716 4360l-1251 0 0 -6 1244 0 0 -21 7 0 0 27zm-1175 -379l-59 0 0 -7 59 0 0 7z"/>
  <path class="fil22" d="M2549 3799c-26,-33 -41,-71 -41,-112l46 0 -5 112z"/>
  <path class="fil23" d="M4487 4333l-1962 0 16 -352 0 -7 3 -63 5 -112 5 -112 160 -3568 1962 0 -189 4214zm-1608 -650l-18 398 1194 0 18 -398 -1194 0zm342 -2480l0 0c77,113 207,187 357,187 151,0 287,-74 374,-187l0 0c58,-74 94,-166 98,-265 12,-250 -182,-452 -431,-452 -250,0 -461,202 -472,452 -5,99 23,191 74,265l0 0z"/>
  <polygon class="fil5" points="4439,2009 2663,2009 2648,2341 4424,2341 "/>
  <polygon class="fil15" points="3640,1767 2673,1767 2667,1915 3633,1915 "/>
  <polygon class="fil5" points="4399,2904 2623,2904 2608,3235 4384,3235 "/>
  <polygon class="fil24" points="4055,4081 2861,4081 2879,3683 4073,3683 "/>
  <path class="fil5" d="M2801 4138l1190 0 18 -393 -1190 0 -18 393zm1192 4l-1194 0 -2 0 0 -2 17 -398 3 -2 1194 0 2 1 0 2 -18 397 -2 2z"/>
  <polygon class="fil7" points="3431,2662 2633,2662 2627,2810 3424,2810 "/>
  <path class="fil5" d="M4050 938c-4,99 -40,191 -98,265 -87,113 -223,187 -374,187 -150,0 -280,-74 -357,-187 -51,-74 -79,-166 -74,-265 11,-250 222,-452 472,-452 249,0 443,202 431,452z"/>
  <path class="fil15" d="M4093 581c-1,26 -11,50 -26,70 -23,30 -60,50 -100,50 -39,0 -74,-20 -94,-50 -14,-20 -21,-44 -20,-70 3,-67 59,-120 125,-120 66,0 118,53 115,120z"/>
  <path class="fil12" d="M2854 2175c-1,29 -26,53 -56,53 -29,0 -52,-24 -50,-53 1,-30 26,-53 55,-53 30,0 52,23 51,53z"/>
  <path class="fil12" d="M3092 2175c-2,29 -26,53 -56,53 -29,0 -52,-24 -50,-53 1,-30 26,-53 55,-53 29,0 52,23 51,53z"/>
  <path class="fil12" d="M3330 2175c-2,29 -27,53 -56,53 -29,0 -52,-24 -51,-53 2,-30 27,-53 56,-53 29,0 52,23 51,53z"/>
  <path class="fil12" d="M2814 3070c-1,29 -26,53 -56,53 -29,0 -52,-24 -50,-53 1,-30 26,-53 55,-53 30,0 52,23 51,53z"/>
  <path class="fil12" d="M3052 3070c-2,29 -26,53 -56,53 -29,0 -52,-24 -50,-53 1,-30 26,-53 55,-53 29,0 52,23 51,53z"/>
  <path class="fil12" d="M3290 3070c-2,29 -27,53 -56,53 -29,0 -52,-24 -51,-53 2,-30 27,-53 56,-53 29,0 52,23 51,53z"/>
  <path class="fil12" d="M3528 3070c-2,29 -27,53 -56,53 -29,0 -52,-24 -51,-53 2,-30 26,-53 56,-53 29,0 52,23 51,53z"/>
  <path class="fil12" d="M3765 3070c-1,29 -26,53 -55,53 -29,0 -52,-24 -51,-53 1,-30 26,-53 56,-53 29,0 52,23 50,53z"/>
  <path class="fil7" d="M3788 787c-4,101 -90,183 -191,183 -101,0 -179,-82 -174,-183 4,-101 90,-183 191,-183 100,0 179,82 174,183z"/>
  <path class="fil7" d="M3952 1203c-87,113 -223,187 -374,187 -150,0 -280,-74 -357,-187 86,-85 222,-140 372,-140 150,0 281,55 359,140z"/>
  <path class="fil15" d="M3597 970c-98,0 -175,-78 -175,-175 0,-3 1,-5 1,-8 4,-101 90,-183 191,-183 98,0 174,78 174,175 0,2 0,5 0,8 -4,101 -90,183 -191,183z"/>
  <path class="fil15" d="M3578 1390c-150,0 -280,-74 -357,-187 86,-85 222,-140 372,-140 150,0 281,55 359,140 -87,113 -223,187 -374,187z"/>
  <path class="fil6" d="M1357 2420c-16,37 -34,77 -49,117 -16,39 -31,79 -45,119 -26,81 -51,162 -63,244l-4 26c0,3 0,7 1,13 3,11 10,26 20,41 20,30 48,60 78,88 30,28 63,55 97,81 34,26 70,52 105,75l-33 62c-84,-36 -162,-80 -238,-135 -37,-29 -74,-59 -106,-100 -16,-21 -32,-45 -42,-76 -5,-15 -9,-33 -9,-52 0,-4 0,-10 1,-13l1 -9 1 -17c10,-94 31,-184 58,-271 14,-43 28,-86 45,-129 17,-42 34,-83 55,-126l127 62z"/>
  <path class="fil6" d="M1472 3214l125 -63 -32 137c0,0 -86,24 -126,-18l33 -56z"/>
  <polygon class="fil6" points="1711,3173 1678,3286 1565,3288 1597,3151 "/>
  <path class="fil16" d="M1887 1760c0,0 11,40 28,70 -15,14 -28,9 -28,9l0 -79z"/>
  <path class="fil12" d="M1870 1741c0,11 6,20 13,20 8,0 13,-9 13,-20 0,-11 -5,-20 -13,-20 -7,0 -13,9 -13,20z"/>
  <path class="fil12" d="M1880 1721l27 -7c0,0 -14,21 -27,7z"/>
  <path class="fil6" d="M1542 1890c16,82 33,232 -25,287 0,0 23,83 175,83 168,0 80,-83 80,-83 -91,-22 -89,-90 -73,-154l-157 -133z"/>
  <path class="fil6" d="M1498 1703c8,137 9,195 78,265 104,106 271,66 303,-71 30,-123 11,-327 -123,-381 -132,-54 -267,50 -258,187z"/>
  <path class="fil12" d="M1511 1548c-68,25 -160,6 -124,218 38,225 -21,299 -21,299 0,0 261,55 528,-4 0,0 -82,-142 -59,-246 29,-132 6,-181 6,-181 0,0 -233,-122 -330,-86z"/>
  <path class="fil6" d="M1802 1774c0,27 10,55 22,74 19,28 41,17 46,-13 5,-27 1,-74 -22,-92 -24,-18 -45,0 -46,31z"/>
  <path class="fil12" d="M1452 1572c-20,-56 74,-141 273,-106 200,36 208,202 208,202l-40 -48 2 50 -205 39 -238 -137z"/>
  <path class="fil7" d="M1469 2186c-3,-17 8,-33 25,-36 62,-10 203,-31 274,-21 53,8 67,38 69,64 2,18 -14,34 -32,33l-307 -14c-15,0 -27,-11 -29,-26z"/>
  <path class="fil15" d="M1836 2184c-21,-3 -43,-5 -64,-7 -36,-3 -72,-5 -108,-5 -46,0 -94,2 -147,5 -16,1 -33,2 -49,3 1,-14 11,-27 26,-30 51,-8 154,-23 229,-23 17,0 32,1 45,2 47,7 63,32 68,55z"/>
  <polygon class="fil6" points="1646,5267 1759,5346 1950,5088 1836,5009 "/>
  <polygon class="fil6" points="1380,5262 1501,5330 1669,5058 1549,4989 "/>
  <polygon class="fil13" points="1950,5088 1852,5221 1738,5142 1836,5009 "/>
  <polygon class="fil13" points="1549,4989 1669,5058 1582,5198 1462,5130 "/>
  <path class="fil7" d="M1742 3047c0,0 444,560 360,1095 -67,433 -457,1018 -457,1018l-183 -91c0,0 199,-389 330,-802 55,-173 31,-363 -71,-513 -225,-328 -585,-133 -343,-707l364 0z"/>
  <path class="fil15" d="M1645 5160l-30 -15 -116 -58 0 -92c63,-132 197,-423 293,-728 19,-60 29,-123 29,-185 0,-70 -12,-139 -36,-204 39,-10 68,-46 68,-89l0 -186c0,-11 -2,-21 -5,-31 38,53 75,107 109,160 37,228 80,492 98,605 8,-26 16,-51 22,-76 -1,4 -2,9 -3,13 -2,8 -5,16 -7,24 -16,56 -36,112 -57,168 -68,173 -157,344 -230,472 -3,5 -5,10 -8,14 -21,38 -41,71 -58,99 -2,3 -4,6 -5,8 -39,63 -64,101 -64,101zm172 -1629c-15,-12 -34,-19 -55,-19l-359 0c-63,-38 -106,-81 -106,-171 0,-62 21,-147 71,-268l75 0c58,64 219,247 374,458z"/>
  <path class="fil25" d="M2077 4261c11,-40 19,-80 25,-119 7,-42 10,-85 11,-128 0,0 0,0 0,0 -1,43 -4,86 -10,128 -7,39 -15,79 -26,119z"/>
  <path class="fil26 str0" d="M2055 4337c-18,-113 -61,-377 -98,-605 62,96 117,193 156,282 -1,43 -4,86 -11,128 -6,39 -14,79 -25,119 -6,25 -14,50 -22,76z"/>
  <path class="fil7" d="M1940 3047c0,0 535,704 550,1125 12,354 -583,1036 -583,1036l-172 -111c0,0 348,-486 435,-882 -33,-393 -750,-1168 -750,-1168l520 0z"/>
  <path class="fil15" d="M1907 5208l-31 -20 -116 -75 -25 -16c0,0 348,-486 435,-882l0 0c-5,-60 -26,-128 -57,-201 -39,-89 -94,-186 -156,-282 -34,-53 -71,-107 -109,-160 -6,-16 -17,-31 -31,-41 -155,-211 -316,-394 -374,-458l500 0c5,0 9,-3 9,-6l1 -3c81,110 523,725 537,1108 0,4 0,8 0,11 0,44 -9,92 -24,143 -3,9 -6,18 -9,28 0,2 -1,4 -2,6 -7,21 -15,42 -24,63 -1,2 -2,4 -3,7 -3,7 -6,15 -10,22 -51,116 -125,239 -201,351 -2,2 -3,4 -5,7 -14,21 -29,42 -43,62 -2,2 -3,5 -5,7 -31,44 -62,85 -90,123 -3,3 -5,6 -7,9 -20,26 -40,51 -57,73 -61,77 -103,124 -103,124z"/>
  <path class="fil7" d="M1278 2208c-57,14 -111,222 -111,222l223 149c0,0 74,-165 48,-237 -27,-74 -87,-151 -160,-134z"/>
  <polygon class="fil14" points="1350,2552 1342,2547 1350,2552 "/>
  <path class="fil8" d="M1350 2552l-8 -5 -35 -24 11 -136c13,62 23,116 32,165z"/>
  <path class="fil7" d="M2006 2212c0,0 66,24 -66,835 -223,0 -453,0 -562,0 10,-228 10,-369 -100,-839 0,0 118,-25 239,-31 95,-5 172,-8 255,0 110,10 234,35 234,35z"/>
  <path class="fil6" d="M2063 2341c13,35 26,73 40,110 14,37 28,74 42,111l44 111 10 27 6 14 3 7 0 1c-1,0 -2,-4 -12,-11 -6,-3 -15,-6 -23,-7 -9,0 -16,2 -20,4 -8,4 -8,5 -8,5 1,0 2,-2 4,-4 8,-9 17,-25 25,-41 9,-16 16,-33 24,-51 16,-35 30,-72 44,-108 15,-37 28,-75 42,-112l40 -113 68 17c-14,81 -31,160 -52,239 -10,40 -22,79 -35,119 -7,19 -14,39 -23,59 -9,21 -18,41 -33,64 -4,6 -9,12 -16,19 -7,7 -15,15 -32,23 -8,4 -20,7 -34,6 -14,0 -28,-5 -37,-11 -20,-12 -27,-24 -32,-33 -3,-5 -5,-9 -7,-13l-3 -6 -7 -14 -13 -28c-18,-36 -35,-73 -51,-110 -16,-38 -32,-75 -47,-113 -14,-39 -29,-76 -41,-117l134 -44z"/>
  <path class="fil7" d="M2006 2212c68,16 144,216 144,216l-201 171c0,0 -130,-218 -104,-289 27,-75 73,-119 161,-98z"/>
  <path class="fil6" d="M2355 2222l70 -59 49 76 -36 64c0,0 -57,53 -108,26 -16,-37 -6,-81 25,-107z"/>
  <polygon class="fil6" points="2553,2163 2548,2182 2436,2201 2425,2163 "/>
  <polygon class="fil7" points="1922,5218 1720,5087 1756,5025 1983,5164 "/>
  <path class="fil12" d="M1540 5302c21,11 39,15 48,11 3,-2 5,-5 6,-10 0,-3 -1,-4 -2,-5 -7,-6 -33,-1 -52,4zm39 19c-16,0 -37,-10 -50,-17l-1 -3 2 -3c5,-2 53,-16 67,-5 2,2 4,5 3,11 -1,7 -4,12 -10,15 -3,2 -7,2 -11,2z"/>
  <path class="fil12" d="M1565 5256c-2,0 -3,1 -5,2 -11,5 -20,25 -24,38 16,-7 37,-24 37,-34 1,-1 0,-3 -4,-5l-4 -1zm-34 48l-2 -1 -1 -3c0,-1 11,-40 29,-48 5,-3 10,-3 15,-1 8,3 8,9 8,12 -1,16 -34,38 -48,41l-1 0z"/>
  <path class="fil12" d="M1780 5359c22,21 42,33 53,32 4,-1 7,-3 9,-7l0 -4c-4,-9 -37,-17 -62,-21zm51 38c-20,0 -47,-25 -63,-41l0 -3 3 -2c7,1 68,9 77,26 2,4 2,7 0,11 -3,5 -8,9 -14,9l-3 0z"/>
  <path class="fil12" d="M1777 5351c20,2 52,-5 56,-14 0,0 1,-2 -3,-6 -4,-4 -9,-5 -14,-5 -15,2 -31,17 -39,25zm5 7c-5,0 -9,0 -12,-1l-2 -2 0 -3c1,-1 25,-30 48,-32 7,-1 13,1 18,6 7,6 6,11 5,14 -6,12 -36,18 -57,18z"/>
  <path class="fil15" d="M1536 5286l-150 -42c-5,-2 -11,1 -13,6l-51 113c-5,12 3,27 15,30 53,14 79,18 144,36 41,12 99,33 155,49 54,15 74,-39 52,-51 -98,-52 -105,-87 -132,-127 -5,-7 -12,-12 -20,-14z"/>
  <path class="fil15" d="M1772 5336l-127 -89c-5,-3 -11,-3 -15,2l-84 90c-9,10 -7,26 4,33 45,30 68,43 124,82 35,24 104,77 152,110 46,32 83,-12 66,-30 -76,-81 -93,-132 -105,-178 -3,-8 -8,-16 -15,-20z"/>
  <polygon class="fil7" points="1669,5172 1439,5057 1463,4995 1708,5115 "/>
  <path class="fil7" d="M1370 3014l-20 51c-2,4 3,8 9,8l584 0c5,0 9,-3 9,-6l5 -50c1,-4 -4,-7 -9,-7l-569 0c-4,0 -8,2 -9,4z"/>
  <path class="fil27" d="M1943 3073l-584 0c-5,0 -9,-3 -9,-6 0,-1 0,-2 0,-2l20 -51c1,-2 5,-4 9,-4l569 0c5,0 9,3 9,6 0,0 0,0 0,1l-5 50c0,3 -4,6 -9,6z"/>
  <path class="fil7" d="M1461 3078l-15 0c-3,0 -5,-2 -5,-3l7 -66c0,-2 3,-3 6,-3l15 0c3,0 6,1 5,3l-7 66c0,1 -3,3 -6,3z"/>
  <path class="fil7" d="M1821 3078l-15 0c-3,0 -5,-2 -5,-3l7 -66c0,-2 3,-3 6,-3l15 0c3,0 6,1 5,3l-7 66c0,1 -3,3 -6,3z"/>
  <path class="fil28" d="M1447 6065c0,0 0,0 -1,0 -260,0 -471,-16 -470,-34 0,-11 65,-20 167,-27 -1,13 8,27 24,27l562 0c16,0 25,-14 25,-27 102,7 167,16 167,27 -1,18 -213,34 -474,34z"/>
  <path class="fil1" d="M1736 5982c-84,-24 -176,-55 -233,-89 -1,-1 -3,-1 -4,-2l0 -378 168 0c28,0 50,-22 50,-50 0,-28 -22,-51 -50,-51l-168 0 0 -1725 -101 0 0 1725 -168 0c-28,0 -51,23 -51,51 0,28 23,50 51,50l168 0 0 378c-2,1 -3,1 -5,2 -57,34 -149,65 -233,89 -27,8 -21,49 7,49l562 0c29,0 34,-41 7,-49z"/>
  <path class="fil7" d="M1762 3881l-627 0c-51,0 -92,-41 -92,-92l0 -186c0,-50 41,-91 92,-91l627 0c50,0 91,41 91,91l0 186c0,51 -41,92 -91,92z"/>
  <path class="fil7" d="M1129 3881l0 32c0,26 29,48 64,48l511 0c35,0 64,-22 64,-48l0 -32 -639 0z"/>
  <path class="fil29" d="M1704 3961l-511 0c-35,0 -64,-22 -64,-48l0 -32 639 0 0 32c0,26 -29,48 -64,48z"/>
 </g>
</svg>
