<?xml version="1.0" encoding="UTF-8"?>
<!DOCTYPE svg PUBLIC "-//W3C//DTD SVG 1.1//EN" "http://www.w3.org/Graphics/SVG/1.1/DTD/svg11.dtd">
<!-- Creator: CorelDRAW X8 -->
<svg xmlns="http://www.w3.org/2000/svg" xml:space="preserve" width="331.937mm" height="332.045mm" version="1.1" style="shape-rendering:geometricPrecision; text-rendering:geometricPrecision; image-rendering:optimizeQuality; fill-rule:evenodd; clip-rule:evenodd"
viewBox="0 0 16998 17004"
 xmlns:xlink="http://www.w3.org/1999/xlink">
 <defs>
  <style type="text/css">
   <![CDATA[
    .fil36 {fill:#03476B}
    .fil34 {fill:#00A3FE;fill-rule:nonzero}
    .fil32 {fill:#038ED9;fill-rule:nonzero}
    .fil42 {fill:#91B3FA;fill-rule:nonzero}
    .fil1 {fill:#BDD0FB;fill-rule:nonzero}
    .fil35 {fill:#C7D2FA;fill-rule:nonzero}
    .fil33 {fill:#D0DEFD;fill-rule:nonzero}
    .fil31 {fill:#DEE8FD;fill-rule:nonzero}
    .fil2 {fill:#DFE9FD;fill-rule:nonzero}
    .fil16 {fill:url(#id0)}
    .fil11 {fill:url(#id1)}
    .fil12 {fill:url(#id2)}
    .fil18 {fill:url(#id3)}
    .fil23 {fill:url(#id4)}
    .fil3 {fill:url(#id5)}
    .fil13 {fill:url(#id6)}
    .fil6 {fill:url(#id7)}
    .fil21 {fill:url(#id8)}
    .fil5 {fill:url(#id9)}
    .fil10 {fill:url(#id10)}
    .fil8 {fill:url(#id11)}
    .fil17 {fill:url(#id12)}
    .fil26 {fill:url(#id13)}
    .fil24 {fill:url(#id14)}
    .fil9 {fill:url(#id15)}
    .fil22 {fill:url(#id16)}
    .fil28 {fill:url(#id17)}
    .fil7 {fill:url(#id18)}
    .fil27 {fill:url(#id19)}
    .fil4 {fill:url(#id20)}
    .fil29 {fill:url(#id21)}
    .fil15 {fill:url(#id22)}
    .fil20 {fill:url(#id23)}
    .fil14 {fill:url(#id24)}
    .fil25 {fill:url(#id25)}
    .fil19 {fill:url(#id26)}
    .fil45 {fill:url(#id27)}
    .fil67 {fill:url(#id28)}
    .fil66 {fill:url(#id29)}
    .fil49 {fill:url(#id30)}
    .fil43 {fill:url(#id31)}
    .fil46 {fill:url(#id32)}
    .fil41 {fill:url(#id33)}
    .fil54 {fill:url(#id34)}
    .fil77 {fill:url(#id35)}
    .fil60 {fill:url(#id36)}
    .fil69 {fill:url(#id37)}
    .fil37 {fill:url(#id38)}
    .fil30 {fill:url(#id39)}
    .fil0 {fill:url(#id40)}
    .fil53 {fill:url(#id41)}
    .fil48 {fill:url(#id42)}
    .fil61 {fill:url(#id43)}
    .fil78 {fill:url(#id44)}
    .fil44 {fill:url(#id45)}
    .fil58 {fill:url(#id46)}
    .fil51 {fill:url(#id47)}
    .fil40 {fill:url(#id48)}
    .fil65 {fill:url(#id49)}
    .fil76 {fill:url(#id50)}
    .fil70 {fill:url(#id51)}
    .fil63 {fill:url(#id52)}
    .fil47 {fill:url(#id53)}
    .fil50 {fill:url(#id54)}
    .fil39 {fill:url(#id55)}
    .fil59 {fill:url(#id56)}
    .fil57 {fill:url(#id57)}
    .fil55 {fill:url(#id58)}
    .fil56 {fill:url(#id59)}
    .fil62 {fill:url(#id60)}
    .fil64 {fill:url(#id61)}
    .fil52 {fill:url(#id62)}
    .fil38 {fill:url(#id63)}
    .fil68 {fill:url(#id64)}
    .fil73 {fill:url(#id65)}
    .fil74 {fill:url(#id66)}
    .fil75 {fill:url(#id67)}
    .fil71 {fill:url(#id68)}
    .fil72 {fill:url(#id69)}
    .fil79 {fill:url(#id70)}
   ]]>
  </style>
  <linearGradient id="id0" gradientUnits="userSpaceOnUse" x1="2132.74" y1="12302.7" x2="3410.83" y2="12302.7">
   <stop offset="0" style="stop-opacity:1; stop-color:#DAE3FE"/>
   <stop offset="1" style="stop-opacity:1; stop-color:#E9EFFD"/>
  </linearGradient>
  <linearGradient id="id1" gradientUnits="userSpaceOnUse" xlink:href="#id0" x1="731.618" y1="10451.7" x2="2011.53" y2="10451.7">
  </linearGradient>
  <linearGradient id="id2" gradientUnits="userSpaceOnUse" xlink:href="#id0" x1="3572.91" y1="11380.9" x2="4855.9" y2="11380.9">
  </linearGradient>
  <linearGradient id="id3" gradientUnits="userSpaceOnUse" xlink:href="#id0" x1="3541.29" y1="13225.3" x2="4819.8" y2="13225.3">
  </linearGradient>
  <linearGradient id="id4" gradientUnits="userSpaceOnUse" xlink:href="#id0" x1="688.142" y1="14136.9" x2="1959.18" y2="14136.9">
  </linearGradient>
  <linearGradient id="id5" gradientUnits="userSpaceOnUse" xlink:href="#id0" x1="3620.71" y1="8585.23" x2="4910.47" y2="8585.23">
  </linearGradient>
  <linearGradient id="id6" gradientUnits="userSpaceOnUse" xlink:href="#id0" x1="2146.09" y1="11379.3" x2="3426.43" y2="11379.3">
  </linearGradient>
  <linearGradient id="id7" gradientUnits="userSpaceOnUse" xlink:href="#id0" x1="3604.72" y1="9523.59" x2="4892.22" y2="9523.59">
  </linearGradient>
  <linearGradient id="id8" gradientUnits="userSpaceOnUse" xlink:href="#id0" x1="3525.61" y1="14142.7" x2="4801.89" y2="14142.7">
  </linearGradient>
  <linearGradient id="id9" gradientUnits="userSpaceOnUse" xlink:href="#id0" x1="753.571" y1="8584.92" x2="2037.98" y2="8584.92">
  </linearGradient>
  <linearGradient id="id10" gradientUnits="userSpaceOnUse" xlink:href="#id0" x1="2159.49" y1="10452.7" x2="3442.06" y2="10452.7">
  </linearGradient>
  <linearGradient id="id11" gradientUnits="userSpaceOnUse" xlink:href="#id0" x1="742.572" y1="9522.42" x2="2024.73" y2="9522.42">
  </linearGradient>
  <linearGradient id="id12" gradientUnits="userSpaceOnUse" xlink:href="#id0" x1="709.803" y1="12300.6" x2="1985.27" y2="12300.6">
  </linearGradient>
  <linearGradient id="id13" gradientUnits="userSpaceOnUse" xlink:href="#id0" x1="677.367" y1="15050.3" x2="1946.2" y2="15050.3">
  </linearGradient>
  <linearGradient id="id14" gradientUnits="userSpaceOnUse" xlink:href="#id0" x1="3509.92" y1="15057" x2="4783.99" y2="15057">
  </linearGradient>
  <linearGradient id="id15" gradientUnits="userSpaceOnUse" xlink:href="#id0" x1="3588.79" y1="10453.8" x2="4874.02" y2="10453.8">
  </linearGradient>
  <linearGradient id="id16" gradientUnits="userSpaceOnUse" xlink:href="#id0" x1="2106.17" y1="14139.8" x2="3379.82" y2="14139.8">
  </linearGradient>
  <linearGradient id="id17" gradientUnits="userSpaceOnUse" xlink:href="#id0" x1="2079.78" y1="15964.3" x2="3349.02" y2="15964.3">
  </linearGradient>
  <linearGradient id="id18" gradientUnits="userSpaceOnUse" xlink:href="#id0" x1="2172.93" y1="9522.97" x2="3457.76" y2="9522.97">
  </linearGradient>
  <linearGradient id="id19" gradientUnits="userSpaceOnUse" xlink:href="#id0" x1="3494.36" y1="15968.1" x2="4766.21" y2="15968.1">
  </linearGradient>
  <linearGradient id="id20" gradientUnits="userSpaceOnUse" xlink:href="#id0" x1="2186.42" y1="8585.11" x2="3473.51" y2="8585.11">
  </linearGradient>
  <linearGradient id="id21" gradientUnits="userSpaceOnUse" xlink:href="#id0" x1="666.634" y1="15960.5" x2="1933.28" y2="15960.5">
  </linearGradient>
  <linearGradient id="id22" gradientUnits="userSpaceOnUse" xlink:href="#id0" x1="3557.11" y1="12304.6" x2="4837.84" y2="12304.6">
  </linearGradient>
  <linearGradient id="id23" gradientUnits="userSpaceOnUse" xlink:href="#id0" x1="698.957" y1="13220.4" x2="1972.2" y2="13220.4">
  </linearGradient>
  <linearGradient id="id24" gradientUnits="userSpaceOnUse" xlink:href="#id0" x1="720.69" y1="11377.8" x2="1998.38" y2="11377.8">
  </linearGradient>
  <linearGradient id="id25" gradientUnits="userSpaceOnUse" xlink:href="#id0" x1="2092.95" y1="15053.6" x2="3364.4" y2="15053.6">
  </linearGradient>
  <linearGradient id="id26" gradientUnits="userSpaceOnUse" xlink:href="#id0" x1="2119.42" y1="13222.8" x2="3395.3" y2="13222.8">
  </linearGradient>
  <linearGradient id="id27" gradientUnits="userSpaceOnUse" x1="3984.03" y1="16674.1" x2="5030.2" y2="16674.1">
   <stop offset="0" style="stop-opacity:1; stop-color:#09005D"/>
   <stop offset="1" style="stop-opacity:1; stop-color:#1A0F91"/>
  </linearGradient>
  <linearGradient id="id28" gradientUnits="userSpaceOnUse" x1="11394" y1="2986.84" x2="13303.8" y2="-1608.97">
   <stop offset="0" style="stop-opacity:1; stop-color:#32368C"/>
   <stop offset="1" style="stop-opacity:1; stop-color:#3E41B1"/>
  </linearGradient>
  <linearGradient id="id29" gradientUnits="userSpaceOnUse" x1="13920.9" y1="-7641.28" x2="10230.8" y2="13952.7">
   <stop offset="0" style="stop-opacity:1; stop-color:#5864E9"/>
   <stop offset="1" style="stop-opacity:1; stop-color:#636FFD"/>
  </linearGradient>
  <linearGradient id="id30" gradientUnits="userSpaceOnUse" x1="3633.27" y1="8769.8" x2="3955.7" y2="7889.34">
   <stop offset="0" style="stop-opacity:1; stop-color:#FEBBBA"/>
   <stop offset="1" style="stop-opacity:1; stop-color:#FF928E"/>
  </linearGradient>
  <linearGradient id="id31" gradientUnits="userSpaceOnUse" xlink:href="#id30" x1="3075.86" y1="15832.8" x2="2939.66" y2="17038.6">
  </linearGradient>
  <linearGradient id="id32" gradientUnits="userSpaceOnUse" xlink:href="#id30" x1="4190.36" y1="15959.6" x2="4128.39" y2="17174.1">
  </linearGradient>
  <linearGradient id="id33" gradientUnits="userSpaceOnUse" xlink:href="#id27" x1="2893.58" y1="16654" x2="3604.07" y2="16654">
  </linearGradient>
  <linearGradient id="id34" gradientUnits="userSpaceOnUse" xlink:href="#id30" x1="4138.48" y1="7444.45" x2="3438.73" y2="8051.8">
  </linearGradient>
  <linearGradient id="id35" gradientUnits="userSpaceOnUse" x1="19032.3" y1="21893.1" x2="4040.68" y2="3273.94">
   <stop offset="0" style="stop-opacity:1; stop-color:#C4D5FD"/>
   <stop offset="1" style="stop-opacity:1; stop-color:#CEDDFC"/>
  </linearGradient>
  <linearGradient id="id36" gradientUnits="userSpaceOnUse" x1="4787.03" y1="7774.5" x2="11741.9" y2="8294.48">
   <stop offset="0" style="stop-opacity:1; stop-color:#FF9085"/>
   <stop offset="1" style="stop-opacity:1; stop-color:#FB6FBB"/>
  </linearGradient>
  <linearGradient id="id37" gradientUnits="userSpaceOnUse" xlink:href="#id28" x1="11384.2" y1="2986.87" x2="13323.1" y2="-1608.89">
  </linearGradient>
  <linearGradient id="id38" gradientUnits="userSpaceOnUse" xlink:href="#id27" x1="11405.5" y1="2986.87" x2="13397" y2="-1608.87">
  </linearGradient>
  <linearGradient id="id39" gradientUnits="userSpaceOnUse" xlink:href="#id0" x1="669.814" y1="15960.4" x2="1936.21" y2="15960.4">
  </linearGradient>
  <linearGradient id="id40" gradientUnits="userSpaceOnUse" xlink:href="#id0" x1="19017.6" y1="21892.9" x2="4129.66" y2="3273.95">
  </linearGradient>
  <linearGradient id="id41" gradientUnits="userSpaceOnUse" xlink:href="#id27" x1="3696.52" y1="6946.2" x2="4516.18" y2="8070.1">
  </linearGradient>
  <linearGradient id="id42" gradientUnits="userSpaceOnUse" x1="4587.66" y1="7958.39" x2="788.358" y2="16069.5">
   <stop offset="0" style="stop-opacity:1; stop-color:#4042E2"/>
   <stop offset="1" style="stop-opacity:1; stop-color:#4F52FF"/>
  </linearGradient>
  <linearGradient id="id43" gradientUnits="userSpaceOnUse" x1="8262.61" y1="7601.82" x2="10112.6" y2="2981.74">
   <stop offset="0" style="stop-opacity:1; stop-color:#FE7062"/>
   <stop offset="1" style="stop-opacity:1; stop-color:#FF928E"/>
  </linearGradient>
  <linearGradient id="id44" gradientUnits="userSpaceOnUse" xlink:href="#id29" x1="13935.6" y1="-7641.4" x2="10243.3" y2="13952.8">
  </linearGradient>
  <linearGradient id="id45" gradientUnits="userSpaceOnUse" xlink:href="#id30" x1="3087.29" y1="15832.8" x2="2949.66" y2="17042.6">
  </linearGradient>
  <linearGradient id="id46" gradientUnits="userSpaceOnUse" x1="4252.46" y1="4706.97" x2="9122.06" y2="11030.7">
   <stop offset="0" style="stop-opacity:1; stop-color:#E1473D"/>
   <stop offset="1" style="stop-opacity:1; stop-color:#E9605A"/>
  </linearGradient>
  <linearGradient id="id47" gradientUnits="userSpaceOnUse" xlink:href="#id42" x1="4172.68" y1="6104.83" x2="4023.53" y2="7200.54">
  </linearGradient>
  <linearGradient id="id48" gradientUnits="userSpaceOnUse" xlink:href="#id43" x1="11723" y1="9521.59" x2="18229.1" y2="-3393.11">
  </linearGradient>
  <linearGradient id="id49" gradientUnits="userSpaceOnUse" xlink:href="#id35" x1="18592.7" y1="21893.2" x2="4336.55" y2="3273.97">
  </linearGradient>
  <linearGradient id="id50" gradientUnits="userSpaceOnUse" xlink:href="#id29" x1="14151.7" y1="-7640.73" x2="10813.9" y2="13952.3">
  </linearGradient>
  <linearGradient id="id51" gradientUnits="userSpaceOnUse" xlink:href="#id29" x1="13674.8" y1="-7641.31" x2="10239.6" y2="13952.7">
  </linearGradient>
  <linearGradient id="id52" gradientUnits="userSpaceOnUse" xlink:href="#id30" x1="5272.26" y1="9302.29" x2="4322.56" y2="12781.8">
  </linearGradient>
  <linearGradient id="id53" gradientUnits="userSpaceOnUse" xlink:href="#id42" x1="5467.2" y1="7612.32" x2="2292.19" y2="11115.1">
  </linearGradient>
  <linearGradient id="id54" gradientUnits="userSpaceOnUse" xlink:href="#id42" x1="3908.96" y1="5943.45" x2="3760.25" y2="7083.92">
  </linearGradient>
  <linearGradient id="id55" gradientUnits="userSpaceOnUse" xlink:href="#id30" x1="11469" y1="5947.62" x2="6987.2" y2="36986.1">
  </linearGradient>
  <linearGradient id="id56" gradientUnits="userSpaceOnUse" xlink:href="#id43" x1="9420.67" y1="5581.71" x2="8484.28" y2="10182.1">
  </linearGradient>
  <linearGradient id="id57" gradientUnits="userSpaceOnUse" xlink:href="#id30" x1="6504.62" y1="7961.51" x2="4827.41" y2="9583.29">
  </linearGradient>
  <linearGradient id="id58" gradientUnits="userSpaceOnUse" xlink:href="#id30" x1="6263.88" y1="7892.49" x2="5068.7" y2="9222.23">
  </linearGradient>
  <linearGradient id="id59" gradientUnits="userSpaceOnUse" xlink:href="#id30" x1="6503.83" y1="8033.17" x2="4562.43" y2="9449.22">
  </linearGradient>
  <linearGradient id="id60" gradientUnits="userSpaceOnUse" xlink:href="#id43" x1="8876.51" y1="2959.84" x2="8590.16" y2="3514.63">
  </linearGradient>
  <linearGradient id="id61" gradientUnits="userSpaceOnUse" xlink:href="#id35" x1="18441.7" y1="21892.9" x2="4551.43" y2="3273.95">
  </linearGradient>
  <linearGradient id="id62" gradientUnits="userSpaceOnUse" xlink:href="#id30" x1="4391.88" y1="7440.44" x2="2626.9" y2="8920.62">
  </linearGradient>
  <linearGradient id="id63" gradientUnits="userSpaceOnUse" xlink:href="#id30" x1="11586.6" y1="5983.08" x2="7104.73" y2="36906">
  </linearGradient>
  <linearGradient id="id64" gradientUnits="userSpaceOnUse" xlink:href="#id29" x1="13721.3" y1="-7641.43" x2="10256.5" y2="13952.8">
  </linearGradient>
  <linearGradient id="id65" gradientUnits="userSpaceOnUse" xlink:href="#id35" x1="18713.5" y1="21893" x2="4253.58" y2="3273.96">
  </linearGradient>
  <linearGradient id="id66" gradientUnits="userSpaceOnUse" xlink:href="#id29" x1="13930" y1="-7641.4" x2="10486.4" y2="13952.8">
  </linearGradient>
  <linearGradient id="id67" gradientUnits="userSpaceOnUse" xlink:href="#id29" x1="13942.9" y1="-7641.47" x2="10273.4" y2="13952.8">
  </linearGradient>
  <linearGradient id="id68" gradientUnits="userSpaceOnUse" xlink:href="#id35" x1="18619.8" y1="21893.7" x2="4329.74" y2="3273.96">
  </linearGradient>
  <linearGradient id="id69" gradientUnits="userSpaceOnUse" xlink:href="#id29" x1="13766.4" y1="-7641.31" x2="10222.6" y2="13952.7">
  </linearGradient>
  <linearGradient id="id70" gradientUnits="userSpaceOnUse" xlink:href="#id29" x1="14075" y1="-7641.38" x2="10591.2" y2="13952.8">
  </linearGradient>
 </defs>
 <g id="Layer_x0020_1">
  <metadata id="CorelCorpID_0Corel-Layer"/>
  <g id="_3029745530752">
   <path class="fil0" d="M235 11310c-353,-1435 -295,-2987 83,-4433 86,243 196,468 324,672 60,94 114,191 164,290l-275 0c-119,0 -216,77 -218,172l-78 3299zm16668 -3221c-44,-28 -99,-46 -156,-46l-715 0 0 -2842c1,-1 2,-1 3,-2 60,-26 118,-56 174,-89 1,0 1,-1 2,-1 393,951 618,1967 692,2980zm-871 -2970l0 -415c53,112 103,224 151,338 -4,0 -8,2 -12,4 -45,27 -92,51 -139,73zm-11773 -444l-601 0c-460,-669 -1125,-1081 -1783,-1088 391,-544 1065,-1359 2051,-2062 -145,452 -194,970 -121,1509 42,309 122,601 231,868 102,251 177,510 223,773zm10798 -1542l-4837 0c-5,-17 -9,-33 -14,-50 -7,-27 -31,-45 -58,-45 -5,0 -10,1 -16,2 -32,9 -51,42 -42,74 1,6 3,13 5,19l-2084 0c-20,-121 -33,-243 -40,-366 -5,-98 -14,-197 -28,-297 -131,-965 -624,-1761 -1260,-2171 201,-44 410,-80 625,-108 362,-46 735,-70 1113,-70 1925,0 3982,612 5542,1899 410,338 774,712 1094,1113zm-4986 -606c-1,0 -2,0 -3,0 -34,1 -59,30 -58,63 1,18 2,35 3,53 3,50 8,99 14,149 4,30 30,52 60,52 1,0 2,0 4,0 1,0 2,0 3,0 33,-4 57,-34 53,-67 -6,-47 -11,-94 -14,-141 -1,-17 -2,-34 -2,-51 -2,-32 -28,-58 -60,-58zm19 -416c-30,0 -55,22 -60,52 -4,32 -8,66 -11,98 -3,33 21,63 54,66 2,0 4,0 6,0 1,0 3,0 4,0 29,-2 53,-24 56,-54 3,-31 7,-63 11,-94 5,-33 -19,-63 -52,-68 -2,0 -5,0 -8,0zm945 -1578c-12,0 -24,3 -35,11 -27,20 -53,40 -79,60 -26,21 -30,59 -10,85 12,15 30,23 48,23 1,0 2,0 3,0 12,-1 24,-5 34,-13 25,-20 50,-39 75,-57 27,-20 33,-58 13,-84 -12,-17 -30,-25 -49,-25z"/>
   <path class="fil1" d="M3239 4822c2,-81 71,-147 155,-147l5099 0c86,0 176,68 176,150l0 11560c0,61 -36,121 -81,164 -45,44 -111,68 -175,68l-5156 -14c-64,0 -127,-25 -171,-69 -45,-45 -71,-105 -69,-168l222 -11544z"/>
   <path class="fil2" d="M4069 5501c-23,-69 -49,-137 -76,-203l321 -1c1,68 -1,136 -5,203l-240 1z"/>
   <path class="fil2" d="M4230 6078c-4,-11 -7,-23 -11,-34l19 0c-3,11 -5,23 -8,34z"/>
   <path class="fil1" d="M313 8011c2,-95 99,-172 218,-172l4492 0c120,0 238,81 238,177l0 8554c0,46 -33,90 -74,123 -41,32 -102,50 -160,50l-4696 -10c-59,0 -116,-19 -157,-52 -41,-33 -64,-79 -63,-126l202 -8544z"/>
   <polygon class="fil3" points="3621,8847 4900,8845 4910,8324 3630,8324 "/>
   <polygon class="fil4" points="2186,8846 3465,8845 3474,8324 2194,8324 "/>
   <polygon class="fil5" points="754,8846 2031,8845 2038,8324 760,8324 "/>
   <polygon class="fil6" points="3605,9782 4882,9783 4892,9265 3614,9264 "/>
   <polygon class="fil7" points="2173,9781 3449,9782 3458,9264 2180,9264 "/>
   <polygon class="fil8" points="743,9781 2017,9781 2025,9264 749,9264 "/>
   <polygon class="fil9" points="3589,10711 4864,10712 4874,10196 3598,10195 "/>
   <polygon class="fil10" points="2159,10710 3433,10711 3442,10195 2167,10194 "/>
   <polygon class="fil11" points="732,10709 2004,10710 2012,10194 738,10194 "/>
   <polygon class="fil12" points="3573,11637 4846,11639 4856,11124 3582,11123 "/>
   <polygon class="fil13" points="2146,11635 3418,11637 3426,11123 2154,11122 "/>
   <polygon class="fil14" points="721,11634 1991,11635 1998,11122 727,11120 "/>
   <polygon class="fil15" points="3557,12560 4828,12562 4838,12049 3566,12048 "/>
   <polygon class="fil16" points="2133,12558 3402,12560 3411,12047 2140,12046 "/>
   <polygon class="fil17" points="710,12556 1978,12557 1985,12046 716,12044 "/>
   <polygon class="fil18" points="3541,13479 4810,13482 4820,12971 3550,12969 "/>
   <polygon class="fil19" points="2119,13477 3387,13479 3395,12969 2127,12967 "/>
   <polygon class="fil20" points="699,13474 1965,13477 1972,12966 705,12964 "/>
   <polygon class="fil21" points="3526,14396 4792,14398 4802,13889 3534,13887 "/>
   <polygon class="fil22" points="2106,14393 3371,14395 3380,13887 2114,13884 "/>
   <polygon class="fil23" points="688,14390 1952,14392 1959,13884 694,13881 "/>
   <polygon class="fil24" points="3510,15309 4774,15312 4784,14805 3519,14802 "/>
   <polygon class="fil25" points="2093,15305 3356,15309 3364,14802 2100,14799 "/>
   <polygon class="fil26" points="677,15302 1939,15305 1946,14798 683,14796 "/>
   <polygon class="fil27" points="3494,16219 4756,16223 4766,15717 3503,15714 "/>
   <polygon class="fil28" points="2080,16215 3340,16219 3349,15713 2087,15710 "/>
   <polygon class="fil29" points="667,16211 1926,16215 1933,15710 673,15706 "/>
   <path class="fil30" d="M12038 8215c2,-95 99,-172 218,-172l4491 0c121,0 239,82 239,177l0 8554c0,46 -33,90 -74,123 -41,32 -102,50 -160,50l-4696 -10c-59,0 -116,-19 -157,-52 -41,-33 -64,-79 -63,-125l202 -8545z"/>
   <polygon class="fil31" points="16032,9050 16032,8528 16635,8528 16625,9049 "/>
   <polygon class="fil31" points="16607,9987 16032,9987 16032,9469 16617,9469 "/>
   <polygon class="fil31" points="16589,10917 16032,10916 16032,10400 16599,10400 "/>
   <polygon class="fil31" points="16571,11843 16032,11842 16032,11328 16581,11329 "/>
   <polygon class="fil31" points="16553,12766 16032,12765 16032,12253 16563,12254 "/>
   <polygon class="fil31" points="16535,13686 16032,13685 16032,13174 16545,13175 "/>
   <polygon class="fil31" points="16517,14603 16032,14602 16032,14093 16527,14094 "/>
   <polygon class="fil31" points="16499,15516 16032,15515 16032,15008 16509,15009 "/>
   <polygon class="fil31" points="16481,16427 16032,16426 16032,15920 16491,15921 "/>
   <path class="fil32" d="M7572 10542c-366,-1151 -1076,-2068 -1916,-2608 -751,-482 -1292,-1232 -1492,-2100 -21,-91 -46,-182 -75,-274 -441,-1384 -1651,-2235 -2701,-1900 -1051,335 -1546,1728 -1105,3112 90,283 213,544 359,777 468,743 651,1634 479,2496 -154,770 -112,1637 163,2500 409,1287 1248,2282 2219,2782 367,190 698,445 972,752 456,512 1098,752 1688,565 636,-203 1034,-848 1062,-1600 16,-425 116,-842 280,-1236 385,-931 438,-2102 67,-3266z"/>
   <path class="fil33" d="M5775 14016c-23,-71 -48,-142 -72,-213 -78,-229 -155,-459 -234,-688 -136,-380 -273,-759 -413,-1138 61,67 124,132 188,194 27,75 54,149 79,224l238 688c73,219 144,438 214,657l0 276zm-2021 -5345l-126 -300c-93,-223 -186,-447 -282,-670 -188,-447 -379,-892 -573,-1336 -192,-446 -389,-889 -586,-1332l38 -18c428,872 828,1756 1219,2644 98,222 192,446 287,669l18 41c-1,100 0,201 5,302z"/>
   <path class="fil34" d="M10639 8254c-171,-1257 -738,-2334 -1507,-3044 -687,-635 -1110,-1510 -1161,-2443 -5,-98 -14,-197 -28,-297 -206,-1512 -1299,-2611 -2442,-2455 -1143,155 -1902,1507 -1696,3019 42,309 122,601 231,868 348,853 377,1808 45,2668 -296,769 -409,1674 -280,2616 191,1406 877,2587 1787,3281 344,262 640,586 867,954 378,611 996,976 1638,889 692,-94 1217,-689 1381,-1461 93,-438 271,-851 510,-1229 563,-893 828,-2095 655,-3366z"/>
   <path class="fil35" d="M6551 3133l-91 0c-5,-23 -11,-46 -17,-70 -118,-495 -241,-989 -365,-1483l42 -12c152,520 294,1042 431,1565z"/>
   <path class="fil36" d="M15891 16893l-9974 0c-78,0 -142,-63 -142,-141l0 -13478c0,-78 64,-141 142,-141l4178 0c16,59 34,117 55,175 8,24 32,39 56,39 2,0 3,0 4,0 6,0 11,-1 17,-3 31,-11 47,-46 36,-77 -15,-44 -30,-89 -43,-134l5671 0c78,0 141,63 141,141l0 1845c-9,4 -18,8 -26,12 -19,8 -28,30 -20,49 7,14 20,22 35,22 0,0 1,0 2,0 3,0 6,0 9,-1l0 2842 0 485 0 522 0 937 0 413 0 516 0 412 0 514 0 1332 0 511 0 3067c0,78 -63,141 -141,141zm-615 -11637c-19,0 -36,15 -37,35 -2,20 14,38 34,40 38,2 76,4 114,4 27,0 54,-1 81,-2l1 0c20,-2 36,-19 35,-39 -1,-20 -18,-36 -38,-36 0,0 -1,0 -1,0 -26,1 -52,2 -78,2 -36,0 -73,-1 -109,-4 0,0 -1,0 -2,0zm565 -62c-3,0 -7,0 -10,1 -59,18 -120,32 -181,43 -21,3 -34,22 -31,43 3,18 19,31 37,31 1,0 2,0 2,0 2,0 3,-1 4,-1 64,-11 128,-26 190,-44 20,-6 31,-27 25,-47 -5,-16 -19,-26 -36,-26zm-939 -11c-15,0 -30,10 -35,26 -7,20 4,41 24,47 61,20 125,37 189,49 2,1 5,1 7,1 1,0 1,0 2,0 17,-1 31,-13 34,-30 4,-21 -9,-40 -29,-44 -61,-12 -121,-28 -180,-47 -4,-1 -8,-2 -12,-2zm-344 -161c-13,0 -25,7 -32,18 -11,17 -6,40 12,51 55,35 113,66 171,93 6,3 11,4 16,4 1,0 2,0 3,0 13,-1 25,-9 31,-22 9,-18 1,-41 -18,-49 -56,-26 -111,-56 -164,-89 -6,-4 -13,-6 -19,-6zm-297 -238c-9,0 -19,3 -26,10 -14,15 -15,38 0,53 45,46 93,91 144,131 7,6 15,9 23,9 1,0 2,0 3,-1 10,0 19,-5 26,-13 13,-16 11,-40 -5,-53 -49,-39 -95,-81 -138,-125 -7,-7 -17,-11 -27,-11zm-1615 -13c-2,0 -4,0 -6,0 -64,7 -129,10 -192,11 -33,1 -60,28 -60,61 1,33 28,60 61,60 0,0 0,0 1,0 39,-1 79,-2 118,-5 28,-2 56,-4 84,-7 33,-3 57,-32 54,-66 -3,-31 -30,-54 -60,-54zm-712 -39c-28,0 -53,20 -59,48 -7,33 14,65 47,72 66,14 133,25 199,33 3,0 5,0 8,0 1,0 2,0 4,0 28,-2 52,-23 56,-53 4,-33 -20,-63 -53,-67 -63,-8 -127,-18 -190,-31 -4,-1 -8,-2 -12,-2zm1218 -67c-6,0 -12,1 -19,3 -60,20 -123,37 -185,52 -32,8 -52,40 -45,73 7,27 32,46 59,46 1,0 2,0 4,0 3,0 7,-1 10,-2 65,-15 131,-34 195,-54 31,-11 49,-45 38,-77 -8,-25 -31,-41 -57,-41zm-1709 -94c-23,0 -45,13 -55,35 -13,30 0,66 30,80 61,28 124,53 188,76 6,3 13,4 20,4 1,0 3,0 4,0 23,-2 44,-17 53,-40 11,-32 -5,-66 -37,-77 -60,-22 -120,-46 -178,-73 -8,-4 -16,-5 -25,-5zm2588 -90c-7,0 -13,1 -19,5 -18,10 -24,33 -13,51 32,56 69,110 108,162 7,10 19,15 30,15 1,0 1,0 2,0 7,-1 14,-3 20,-8 17,-12 20,-36 8,-52 -38,-49 -73,-101 -104,-155 -7,-12 -20,-18 -32,-18zm-408 -31c-11,0 -22,3 -31,9 -55,33 -112,63 -169,91 -30,15 -43,51 -28,81 10,22 32,34 54,34 1,0 3,0 4,0 8,-1 15,-3 23,-6 60,-30 120,-62 178,-97 28,-17 38,-54 21,-82 -12,-19 -32,-30 -52,-30zm-2596 10c33,24 68,47 102,69 10,7 21,10 33,10 1,0 2,-1 3,-1 19,-1 37,-11 48,-27 17,-29 9,-66 -19,-84 -24,-15 -47,-30 -70,-46 42,-53 68,-120 68,-193 0,-169 -138,-307 -307,-307 -84,0 -161,34 -216,89 -12,-13 -28,-20 -45,-20 -14,0 -28,5 -39,14 -26,22 -29,60 -7,85 7,9 14,17 22,26 -14,35 -22,73 -22,113 0,170 137,307 307,307 51,0 99,-12 142,-35zm2934 -256c-14,0 -28,5 -39,15 -24,21 -48,41 -73,61 -26,21 -30,59 -9,85 12,14 29,22 47,22 2,0 3,0 4,0 12,-1 24,-5 34,-13 25,-21 51,-42 76,-64 25,-22 27,-60 6,-85 -12,-13 -29,-21 -46,-21zm-3626 -683c-9,0 -19,2 -28,6 -29,16 -41,52 -25,82 31,59 65,118 101,175 11,18 31,28 51,28 1,0 2,0 4,0 10,-1 19,-3 28,-9 28,-18 37,-55 19,-83 -35,-54 -67,-110 -96,-167 -11,-21 -32,-32 -54,-32z"/>
   <path class="fil34" d="M14286 15081l-6786 0c-258,0 -466,-209 -466,-466l0 -8949c0,-257 208,-466 466,-466l6786 0c257,0 466,209 466,466l0 8949c0,257 -209,466 -466,466z"/>
   <path class="fil36" d="M14029 14393l-6266 0c-78,0 -140,-62 -140,-139l0 -8101c0,-77 62,-140 140,-140l6266 0c77,0 140,63 140,140l0 8101c0,77 -63,139 -140,139z"/>
   <path class="fil37" d="M10885 4495c-170,0 -307,-137 -307,-307 0,-40 8,-78 22,-113 37,42 75,83 115,123 12,12 27,17 43,17 1,0 2,0 3,0 15,0 29,-6 39,-17 24,-24 24,-62 0,-85 -45,-46 -89,-93 -130,-142 0,0 -1,-1 -1,-1 55,-55 132,-89 216,-89 169,0 307,138 307,307 0,73 -26,140 -68,193 -30,-20 -60,-42 -88,-63 -11,-9 -24,-13 -37,-13 -18,0 -36,9 -48,24 -20,27 -15,65 12,85 21,16 42,31 64,46 -43,23 -91,35 -142,35z"/>
   <path class="fil38" d="M12867 9141l-3947 66c-301,5 -545,239 -545,522l0 2486c0,283 244,503 545,491l3947 -159c284,-11 513,-242 513,-516l0 -2403c0,-273 -229,-491 -513,-487z"/>
   <path class="fil39" d="M13067 8692c-120,2 -217,-91 -217,-206l0 -544c0,-546 -461,-989 -1033,-987l-1286 3c-586,2 -1067,458 -1067,1017l0 556c0,119 -101,216 -227,218 -126,2 -228,-93 -228,-212l0 -558c0,-797 687,-1446 1522,-1446l1286 0c812,0 1466,630 1466,1404l0 543c0,115 -97,210 -216,212z"/>
   <path class="fil40" d="M11532 10519c0,-276 -241,-493 -534,-473 -259,18 -474,225 -488,473 -11,192 95,359 256,443 68,36 102,111 89,185l-113 633c-14,80 50,151 135,148l290 -10c85,-3 149,-78 135,-158l-113 -626c-13,-75 26,-149 94,-190 149,-89 249,-247 249,-425z"/>
   <path class="fil41" d="M3604 16918c0,-6 0,-11 -2,-17 -81,-324 -488,-527 -488,-527l-161 13c-92,286 -80,462 -65,540 0,2 1,4 1,6 133,12 406,20 715,-15z"/>
   <path class="fil42" d="M2889 16933c7,26 27,46 51,52 189,39 489,7 616,-9 27,-4 48,-29 48,-58 -309,35 -582,27 -715,15z"/>
   <path class="fil43" d="M2889 16147l68 329c5,24 23,42 46,44 27,2 66,4 105,-2 35,-5 60,-41 54,-79l-48 -292 -225 0z"/>
   <path class="fil44" d="M4301 16929c-177,-5 -269,-26 -317,-45 0,17 0,35 1,54 0,20 15,36 33,36l976 -7c32,0 50,-36 36,-65 -128,11 -454,35 -729,27z"/>
   <path class="fil45" d="M5030 16902c-1,-2 -2,-5 -4,-7 -86,-121 -305,-360 -739,-464l-209 -7c0,0 -92,161 -94,460 48,19 140,40 317,45 275,8 601,-16 729,-27z"/>
   <path class="fil46" d="M4031 16118c3,16 46,249 63,340 4,21 21,37 41,38 35,2 93,2 142,-11 27,-7 45,-35 43,-65l-23 -369 -266 67z"/>
   <path class="fil36" d="M3873 11806c0,0 286,1967 493,4309 4,43 -31,81 -74,90 -63,14 -156,30 -233,27 -41,-1 -75,-31 -82,-72 -70,-412 -573,-2628 -704,-3116 0,0 -152,2072 -103,3146 1,27 -19,50 -45,53 -41,5 -105,8 -187,0 -31,-4 -56,-27 -61,-58 -50,-350 -339,-2429 -326,-3927 0,-85 99,-779 99,-779l1223 327z"/>
   <path class="fil47" d="M3984 8497l38 1030c109,37 213,66 311,88 62,-199 198,-443 309,-624 -409,-145 -658,-494 -658,-494z"/>
   <path class="fil48" d="M2607 11919c-30,-10 -50,-37 -53,-68 -39,-369 -223,-2660 941,-3602 0,0 67,-175 615,254 549,430 255,880 124,1500 -159,751 -438,1365 -314,1827 8,32 -9,66 -40,77 -426,157 -850,162 -1273,12z"/>
   <path class="fil49" d="M3949 7562c0,33 -465,693 -465,693 0,0 83,164 482,298l343 -707 -360 -284z"/>
   <path class="fil50" d="M3719 9821c-3,0 -6,0 -9,-2 -371,-251 -546,-656 -547,-660 -4,-8 0,-17 8,-20 7,-3 16,0 20,8 1,4 173,401 536,647 7,4 9,14 4,21 -3,4 -7,6 -12,6z"/>
   <path class="fil51" d="M4272 9260c-5,0 -10,-2 -13,-7 -1,-2 -114,-178 -330,-565 -67,-119 -154,-194 -260,-224 -175,-49 -344,45 -346,46 -7,4 -16,2 -20,-6 -4,-7 -2,-16 5,-20 8,-4 181,-101 369,-49 114,32 207,112 278,238 215,386 328,562 330,564 4,7 2,16 -5,21 -3,1 -5,2 -8,2z"/>
   <path class="fil52" d="M4315 7184c0,0 165,380 176,579 12,200 55,329 -176,369 -231,41 -425,-74 -530,-273 0,0 -165,-306 -128,-431 37,-126 658,-244 658,-244z"/>
   <path class="fil53" d="M3864 7716l13 -6c17,-7 24,-27 15,-43 -32,-63 -96,-207 -14,-240 106,-44 524,-129 614,-277 87,-143 10,-327 -106,-379 -7,-4 -16,-1 -20,7l-10 18c-7,12 -25,10 -29,-3 -4,-13 -21,-16 -28,-4 -28,44 -103,116 -303,153 -284,53 -472,168 -477,364 0,13 -13,20 -24,13 -21,-13 -55,-19 -100,19 -78,66 -46,236 125,376 9,7 8,20 0,25 -31,21 -78,69 42,133 124,66 217,61 253,55 8,-2 14,-10 12,-19l-38 -173c-2,-10 5,-19 15,-19l60 0z"/>
   <path class="fil54" d="M3871 7753c0,0 -63,-243 -172,-175 -109,68 57,272 144,281l28 -106z"/>
   <path class="fil55" d="M6012 8419c0,0 -82,-146 -77,-218 5,-71 -39,-176 8,-168 47,7 57,1 70,87 13,85 162,460 -1,299z"/>
   <path class="fil56" d="M6028 8186l-2 293c-561,606 -1015,642 -1384,512 -111,181 -247,425 -309,624 1499,330 1852,-1047 1852,-1047 203,-84 244,-134 235,-189l-392 -193z"/>
   <path class="fil57" d="M6460 7895c-48,-20 -142,-199 -160,-140 -18,59 8,140 0,165 -8,25 -124,312 -101,376 17,46 109,39 124,115 4,25 24,43 48,43 23,0 43,-18 47,-43 2,-10 89,-497 42,-516z"/>
   <path class="fil58" d="M5816 7386c151,77 212,262 136,414 -77,151 -262,212 -413,135 -152,-76 -213,-261 -136,-413 76,-151 261,-212 413,-136zm-886 -103c-378,748 -78,1662 670,2040 608,308 1326,167 1776,-298l2600 1315c43,21 95,20 136,-5l255 -152c4,-2 8,-5 12,-8 1,-1 2,-2 3,-3 3,-2 6,-5 9,-7 1,-1 2,-2 3,-3 3,-3 6,-7 9,-10l0 0c32,-39 42,-93 23,-142l-207 -518c-13,-32 -37,-59 -68,-74l-260 -132 -69 136 -224 -113 69 -136 -209 -106 -63 126 -272 -138 63 -125 -101 -52 -33 65 -228 -115 33 -65 -178 -89 -68 136 -127 -64 69 -137 -110 -55 -69 136 -219 -111 69 -136 -309 -156 -132 -67c108,-638 -204,-1299 -813,-1607 -748,-378 -1662,-78 -2040,670z"/>
   <path class="fil59" d="M7038 7742l1232 623 -69 136 220 111 69 -136 110 55 -69 137 126 64 69 -137 178 90 -33 65 228 115 33 -65 101 51 -64 126 272 137 64 -125 209 106 -69 136 224 113 69 -136 260 132c31,15 55,41 68,73l206 518c26,65 1,139 -59,174l-254 152c-41,25 -93,26 -136,4l-3139 -1587 154 -932z"/>
   <path class="fil60" d="M5585 7857c-151,-77 -212,-262 -135,-413 76,-152 261,-212 413,-136 151,77 212,262 135,413 -76,152 -261,213 -413,136zm62 1388c748,378 1662,79 2040,-670 378,-748 78,-1662 -670,-2040 -748,-378 -1662,-78 -2040,670 -379,748 -79,1662 670,2040z"/>
   <path class="fil61" d="M5863 7308c151,77 212,262 135,413 -76,152 -261,213 -413,136 -151,-77 -212,-262 -135,-413 76,-152 261,-212 413,-136zm1560 1639l2600 1314c43,22 95,21 136,-4l254 -152c39,-23 63,-61 68,-103 -237,-257 -2490,-1240 -2574,-1443 -30,-72 -35,-181 55,-350l-132 -67c107,-639 -205,-1300 -813,-1607 -748,-378 -1662,-78 -2040,670 -379,748 -79,1662 670,2040 608,308 1325,167 1776,-298z"/>
   <path class="fil62" d="M5585 7857c-151,-77 -212,-262 -135,-413 76,-152 261,-212 413,-136 151,77 212,262 135,413 -76,152 -261,213 -413,136zm196 1122c602,304 1336,63 1640,-538 304,-602 63,-1336 -538,-1640 -602,-304 -1336,-63 -1640,538 -304,602 -63,1336 538,1640z"/>
   <path class="fil63" d="M3719 9821c0,0 1430,479 2230,-130 49,-38 112,-54 173,-44l306 50c128,21 250,-63 278,-190 16,-72 23,-151 7,-219l-577 -35 17 -75c0,0 -255,62 -260,262 0,0 -598,392 -1689,-216 0,0 -425,332 -485,597z"/>
   <path class="fil31" d="M14766 2652c-1,0 -2,0 -3,0 -33,-1 -59,-29 -58,-62 3,-65 3,-131 0,-196 -1,-33 24,-61 56,-63l2 0c1,0 1,0 2,0 32,0 59,25 61,58 3,68 3,137 0,206 -1,31 -26,55 -56,57 -2,0 -3,0 -4,0zm-37 -524c-29,0 -54,-20 -60,-49 -12,-64 -26,-128 -43,-191 -9,-32 10,-65 42,-74 6,-1 11,-2 16,-2 27,0 51,18 58,45 18,65 34,133 46,200 6,33 -16,64 -49,70 -2,1 -4,1 -7,1 -1,0 -2,0 -3,0zm-152 -503c-23,0 -46,-13 -56,-36 -25,-60 -54,-119 -84,-176 -16,-30 -5,-66 24,-82 9,-5 19,-7 29,-7 21,0 42,11 53,32 32,60 62,122 89,185 14,31 -1,66 -31,79 -7,3 -14,5 -20,5 -2,0 -3,0 -4,0zm-260 -456c-19,0 -37,-9 -49,-25 -39,-53 -80,-104 -122,-153 -22,-25 -20,-63 6,-85 11,-10 25,-15 39,-15 17,0 34,7 46,21 45,51 88,105 128,161 20,26 14,64 -13,84 -10,7 -21,11 -32,11 -1,0 -2,1 -3,1zm-356 -388c-14,0 -28,-4 -40,-14 -49,-43 -100,-84 -153,-122 -27,-20 -32,-58 -13,-85 12,-16 30,-24 49,-24 12,0 25,3 36,11 55,41 109,84 160,129 26,22 28,60 6,85 -11,12 -26,19 -41,20 -2,0 -3,0 -4,0zm-433 -298c-9,0 -19,-2 -28,-7 -57,-31 -117,-60 -176,-85 -31,-14 -45,-49 -31,-80 9,-23 32,-36 55,-36 8,0 16,1 24,5 62,27 125,57 185,89 29,16 40,53 25,82 -11,19 -30,30 -50,32 -1,0 -2,0 -4,0zm-2215 -4c-22,0 -42,-11 -53,-31 -16,-30 -5,-66 25,-82 60,-32 122,-62 185,-89 8,-3 16,-5 24,-5 23,0 46,14 55,37 13,30 -1,66 -31,79 -60,25 -120,54 -177,84 -8,5 -16,7 -24,7 -1,0 -3,0 -4,0zm1728 -192c-5,0 -11,0 -16,-2 -63,-17 -127,-32 -191,-43 -32,-6 -54,-38 -48,-71 5,-29 31,-49 60,-49 3,0 7,0 10,1 68,12 135,28 201,46 32,9 51,42 42,74 -7,26 -29,43 -54,44 -2,0 -3,0 -4,0zm-1239 -1c-27,0 -51,-18 -59,-45 -8,-32 11,-65 43,-73 66,-18 133,-34 201,-46 3,0 7,-1 11,-1 28,0 53,21 59,50 6,33 -16,64 -49,70 -64,12 -128,26 -191,43 -4,1 -8,2 -12,2 -1,0 -2,0 -3,0zm720 -80c-1,0 -2,0 -3,0 -33,-1 -65,-2 -98,-2 -33,0 -65,1 -97,2 -1,0 -2,0 -3,0 -32,0 -59,-25 -60,-58 -1,-33 24,-61 56,-63l2 0c34,-1 68,-2 102,-2 35,0 69,1 103,2 34,2 59,30 58,63 -1,31 -26,56 -56,58 -2,0 -3,0 -4,0z"/>
   <path class="fil64" d="M10959 712c-18,0 -36,-8 -48,-23 -20,-26 -16,-64 10,-85 26,-20 52,-40 79,-60 11,-8 23,-11 35,-11 19,0 37,8 49,25 20,26 14,64 -13,84 -25,18 -50,37 -75,57 -10,8 -22,12 -34,13 -1,0 -2,0 -3,0z"/>
   <path class="fil65" d="M10079 2327c-2,0 -4,0 -6,0 -33,-3 -57,-33 -54,-66 3,-32 7,-66 11,-98 5,-30 30,-52 60,-52 3,0 6,0 8,0 33,5 57,35 52,68 -4,31 -8,63 -11,94 -3,30 -27,52 -56,54 -1,0 -3,0 -4,0z"/>
   <path class="fil66" d="M12449 4903c-33,0 -60,-27 -61,-60 0,-33 27,-60 60,-61 63,-1 128,-4 192,-11 2,0 4,0 6,0 30,0 57,23 60,54 3,34 -21,63 -54,66 -28,3 -56,5 -84,7 -39,3 -79,4 -118,5 -1,0 -1,0 -1,0zm-320 -18c-3,0 -5,0 -8,0 -66,-8 -133,-19 -199,-33 -33,-7 -54,-39 -47,-72 6,-28 31,-48 59,-48 4,0 8,1 12,2 63,13 127,23 190,31 33,4 57,34 53,67 -4,30 -28,51 -56,53 -2,0 -3,0 -4,0zm833 -46c-27,0 -52,-19 -59,-46 -7,-33 13,-65 45,-73 62,-15 125,-32 185,-52 7,-2 13,-3 19,-3 26,0 49,16 57,41 11,32 -7,66 -38,77 -64,20 -130,39 -195,54 -3,1 -7,2 -10,2 -2,0 -3,0 -4,0zm-1336 -73c-7,0 -14,-1 -20,-4 -64,-23 -127,-48 -188,-76 -30,-14 -43,-50 -30,-80 10,-22 32,-35 55,-35 9,0 17,1 25,5 58,27 118,51 178,73 32,11 48,45 37,77 -9,23 -30,38 -53,40 -1,0 -3,0 -4,0zm1823 -101c-22,0 -44,-12 -54,-34 -15,-30 -2,-66 28,-81 57,-28 114,-58 169,-91 9,-6 20,-9 31,-9 20,0 40,11 52,30 17,28 7,65 -21,82 -58,35 -118,67 -178,97 -8,3 -15,5 -23,6 -1,0 -3,0 -4,0zm-2287 -126c-12,0 -23,-3 -33,-10 -34,-22 -69,-45 -102,-69 37,-19 70,-46 97,-79 23,16 46,31 70,46 28,18 36,55 19,84 -11,16 -29,26 -48,27 -1,0 -2,1 -3,1z"/>
   <path class="fil67" d="M11027 4460c-22,-15 -43,-30 -64,-46 -27,-20 -32,-58 -12,-85 12,-15 30,-24 48,-24 13,0 26,4 37,13 28,21 58,43 88,63 -27,33 -60,60 -97,79z"/>
   <path class="fil68" d="M10600 4075c-8,-9 -15,-17 -22,-26 -22,-25 -19,-63 7,-85 11,-9 25,-14 39,-14 17,0 33,7 45,20 -30,30 -53,65 -69,105z"/>
   <path class="fil69" d="M10758 4215c-16,0 -31,-5 -43,-17 -40,-40 -78,-81 -115,-123 16,-40 39,-75 69,-105 0,0 1,1 1,1 41,49 85,96 130,142 24,23 24,61 0,85 -10,11 -24,17 -39,17 -1,0 -2,0 -3,0z"/>
   <path class="fil70" d="M10434 3812c-20,0 -40,-10 -51,-28 -36,-57 -70,-116 -101,-175 -16,-30 -4,-66 25,-82 9,-4 19,-6 28,-6 22,0 43,11 54,32 29,57 61,113 96,167 18,28 9,65 -19,83 -9,6 -18,8 -28,9 -2,0 -3,0 -4,0z"/>
   <path class="fil71" d="M10220 3133l-125 0c-2,-6 -4,-13 -5,-19 -9,-32 10,-65 42,-74 6,-1 11,-2 16,-2 27,0 51,18 58,45 5,17 9,33 14,50z"/>
   <path class="fil72" d="M10206 3347c-24,0 -48,-15 -56,-39 -21,-58 -39,-116 -55,-175l125 0c13,45 28,90 43,134 11,31 -5,66 -36,77 -6,2 -11,3 -17,3 -1,0 -2,0 -4,0z"/>
   <path class="fil73" d="M10087 2844c-30,0 -56,-22 -60,-52 -6,-50 -11,-99 -14,-149 -1,-18 -2,-35 -3,-53 -1,-33 24,-62 58,-63 1,0 2,0 3,0 32,0 58,26 60,58 0,17 1,34 2,51 3,47 8,94 14,141 4,33 -20,63 -53,67 -1,0 -2,0 -3,0 -2,0 -3,0 -4,0z"/>
   <path class="fil74" d="M13887 4387c-18,0 -35,-8 -47,-22 -21,-26 -17,-64 9,-85 25,-20 49,-40 73,-61 11,-10 25,-15 39,-15 17,0 34,8 46,21 21,25 19,63 -6,85 -25,22 -51,43 -76,64 -10,8 -22,12 -34,13 -1,0 -2,0 -4,0z"/>
   <path class="fil34" d="M14005 3359c7,-10 7,-23 0,-33l-199 -279c61,-149 99,-308 110,-472l302 -164c10,-5 16,-17 14,-29l-67 -406c-2,-12 -11,-21 -23,-23l-339 -58c-63,-152 -150,-290 -256,-411l98 -329c3,-11 -1,-24 -11,-31l-334 -239c-10,-7 -23,-7 -33,0l-280 199c-148,-62 -307,-99 -472,-110l-163 -302c-6,-10 -17,-16 -29,-14l-406 67c-12,2 -22,11 -24,23l-57 338c-152,64 -290,151 -411,257l-329 -98c-11,-4 -24,1 -31,11l-239 334c-7,10 -7,23 0,33l198 280c-61,148 -99,307 -109,472l-302 163c-11,6 -16,17 -14,29l67 406c2,12 11,22 23,24l338 57c63,152 151,290 256,411l-97 329c-4,11 0,24 10,31l335 239c10,7 23,7 33,0l279 -198c149,61 308,99 472,109l164 302c5,11 17,16 29,14l406 -67c12,-2 21,-11 23,-23l58 -338c152,-64 290,-151 410,-256l329 97c12,4 25,0 31,-10l240 -335z"/>
   <path class="fil1" d="M12210 2232c-64,55 -104,132 -111,216 -14,175 116,328 290,343 174,14 328,-116 343,-290 14,-174 -116,-328 -290,-343 -16,-1 -32,-1 -47,0 -68,4 -132,30 -185,74zm171 655c-227,-19 -397,-219 -378,-447 9,-110 61,-210 145,-281 84,-72 191,-106 302,-97 227,19 397,219 378,447 -18,207 -185,366 -386,379 -20,1 -41,1 -61,-1z"/>
   <path class="fil1" d="M12471 3485c35,-3 69,-7 104,-12 11,-2 22,-4 33,-6 53,-11 106,-26 157,-45 0,0 1,0 2,0 2,-1 3,-2 5,-3 4,-1 8,-3 12,-4 10,-4 16,-14 15,-24 0,-2 -1,-5 -2,-7 -4,-13 -19,-19 -31,-14 -64,25 -131,44 -199,55 -339,56 -666,-71 -880,-310 -119,-132 -203,-299 -235,-487 -5,-34 -9,-67 -11,-100 -14,-221 48,-440 179,-623 151,-211 375,-350 630,-392 528,-88 1027,270 1115,797 5,33 9,66 11,98 9,142 -13,284 -65,416 -2,3 -2,7 -2,10 1,9 6,18 15,21 13,5 27,-1 32,-13 54,-139 78,-288 68,-437 -2,-34 -6,-68 -12,-102 -91,-554 -616,-930 -1170,-838 -268,45 -503,191 -661,412 -138,192 -203,421 -188,654 2,35 6,70 12,104 44,269 191,503 412,661 192,138 421,203 654,189z"/>
   <path class="fil31" d="M16923 4109c-3,0 -6,-1 -9,-1 -20,-5 -32,-25 -28,-45 7,-29 13,-59 18,-89 3,-18 18,-31 36,-31 2,0 4,0 6,0 21,4 34,23 31,43 -5,31 -11,63 -18,94 -4,16 -18,28 -34,29 -1,0 -2,0 -2,0z"/>
   <path class="fil31" d="M16960 3824c-1,0 -1,0 -2,0 -20,0 -36,-18 -35,-38 2,-52 1,-105 -2,-156 -1,-11 -2,-22 -3,-33 -2,-21 14,-39 34,-41 1,0 1,0 2,0 19,0 37,14 38,34 1,12 2,23 3,35 3,54 4,109 2,164 -1,19 -16,34 -35,35 -1,0 -1,0 -2,0zm-33 -385c-17,0 -33,-12 -36,-30 -13,-61 -30,-123 -50,-182 -7,-20 3,-41 23,-47 4,-2 8,-2 12,-2 15,0 30,9 35,25 21,62 39,127 53,191 4,20 -9,40 -29,44 -2,1 -4,1 -5,1 -1,0 -2,0 -3,0zm-125 -366c-14,0 -27,-8 -34,-21 -27,-57 -59,-112 -93,-165 -11,-17 -6,-40 11,-51 6,-4 13,-6 20,-6 12,0 24,6 32,17 36,55 68,113 97,172 9,19 2,41 -17,50 -4,2 -9,4 -14,4 0,0 -1,0 -2,0zm-211 -324c-11,0 -21,-5 -29,-13 -41,-49 -85,-95 -131,-137 -15,-14 -16,-38 -2,-53 8,-8 18,-12 28,-12 9,0 18,3 25,10 48,45 94,93 137,143 13,16 11,40 -4,53 -7,5 -14,8 -22,9 -1,0 -2,0 -2,0zm-284 -263c-8,0 -16,-2 -22,-7 -51,-37 -105,-71 -160,-101 -18,-10 -25,-32 -15,-50 7,-13 19,-20 33,-20 6,0 12,2 18,5 57,32 114,67 167,106 17,12 21,35 9,52 -7,9 -17,14 -28,15 -1,0 -2,0 -2,0zm-340 -186c-4,0 -9,0 -13,-2 -59,-23 -119,-43 -180,-59 -20,-5 -32,-25 -27,-45 5,-17 20,-28 36,-28 3,0 7,0 10,1 63,16 127,37 188,61 19,8 29,30 21,49 -6,14 -18,22 -32,23 -1,0 -2,0 -3,0zm-952 -65c-16,0 -32,-11 -36,-28 -5,-20 8,-40 28,-45 55,-14 112,-25 169,-32 9,-1 17,-2 26,-3 2,-1 3,-1 5,-1 18,0 34,15 36,33 3,21 -12,39 -33,42 -8,1 -16,2 -24,3 -54,7 -109,17 -162,30 -2,1 -4,1 -6,1 -1,0 -2,0 -3,0zm578 -32c-2,0 -3,0 -5,0 -62,-8 -125,-13 -189,-13 -20,0 -37,-17 -37,-37 1,-21 17,-37 38,-37 66,0 133,5 198,13 20,3 35,22 32,42 -2,18 -17,31 -35,32 0,0 -1,0 -2,0z"/>
   <path class="fil75" d="M15387 5335c-38,0 -76,-2 -114,-4 -20,-2 -36,-20 -34,-40 1,-20 18,-35 37,-35 1,0 2,0 2,0 36,3 73,4 109,4 26,0 52,-1 78,-2 0,0 1,0 1,0 20,0 37,16 38,36 1,20 -15,37 -35,39l-1 0c-27,1 -54,2 -81,2zm269 -23c-18,0 -34,-13 -37,-31 -3,-21 10,-40 31,-43 61,-11 122,-25 181,-43 3,-1 7,-1 10,-1 17,0 31,10 36,26 6,20 -5,41 -25,47 -62,18 -126,33 -190,44 -1,0 -2,1 -4,1 0,0 -1,0 -2,0zm-569 -6c-2,0 -5,0 -7,-1 -64,-12 -128,-29 -189,-49 -20,-6 -31,-27 -24,-47 5,-16 20,-26 35,-26 4,0 8,1 12,2 59,19 119,35 180,47 20,4 33,23 29,44 -3,17 -17,29 -34,30 -1,0 -1,0 -2,0z"/>
   <path class="fil76" d="M16211 5109c-9,-23 -19,-45 -28,-67 2,-1 5,-1 7,-1 13,0 25,6 32,18 10,17 5,39 -11,50z"/>
   <path class="fil77" d="M16032 5201l0 -82c47,-22 94,-46 139,-73 4,-2 8,-4 12,-4 9,22 19,44 28,67 -1,0 -1,1 -2,1 -56,33 -114,63 -174,89 -1,1 -2,1 -3,2z"/>
   <path class="fil78" d="M16021 5202c-15,0 -28,-8 -35,-22 -8,-19 1,-41 20,-49 8,-4 17,-8 26,-12l0 82c-3,1 -6,1 -9,1 -1,0 -2,0 -2,0zm-1296 -14c-5,0 -10,-1 -16,-4 -58,-27 -116,-58 -171,-93 -18,-11 -23,-34 -12,-51 7,-11 19,-18 32,-18 6,0 13,2 19,6 53,33 108,63 164,89 19,8 27,31 18,49 -6,13 -18,21 -31,22 -1,0 -2,0 -3,0zm-323 -201c-8,0 -16,-3 -23,-9 -51,-40 -99,-85 -144,-131 -15,-15 -14,-38 0,-53 7,-7 17,-10 26,-10 10,0 20,4 27,11 43,44 89,86 138,125 16,13 18,37 5,53 -7,8 -16,13 -26,13 -1,1 -2,1 -3,1zm-265 -273c-11,0 -23,-5 -30,-15 -39,-52 -76,-106 -108,-162 -11,-18 -5,-41 13,-51 6,-4 12,-5 19,-5 12,0 25,6 32,18 31,54 66,106 104,155 12,16 9,40 -8,52 -6,5 -13,7 -20,8 -1,0 -1,0 -2,0z"/>
   <path class="fil79" d="M16349 5007c-11,0 -22,-5 -29,-14 -13,-17 -10,-40 7,-53 24,-18 47,-38 70,-57 7,-6 16,-9 24,-9 11,0 21,4 28,12 14,16 12,39 -3,53 -24,21 -49,41 -74,60 -6,5 -13,8 -20,8 -1,0 -2,0 -3,0z"/>
   <path class="fil34" d="M16451 4305c4,-7 4,-16 0,-22l-133 -187c41,-100 66,-206 73,-316l202 -109c7,-4 11,-12 10,-20l-46 -272c-1,-8 -7,-14 -15,-15l-226 -39c-43,-102 -101,-194 -172,-275l66 -220c2,-8 -1,-16 -7,-21l-224 -160c-7,-5 -16,-5 -22,0l-187 133c-100,-41 -206,-66 -316,-73l-109 -202c-4,-7 -12,-11 -20,-10l-272 45c-8,2 -14,8 -15,16l-39 226c-102,42 -194,101 -275,171l-220 -65c-8,-2 -16,0 -21,7l-160 224c-5,7 -5,15 0,22l133 187c-41,99 -66,206 -73,316l-202 109c-7,4 -11,12 -10,20l45 272c2,8 8,14 16,15l226 38c42,102 101,195 171,275l-65 221c-2,7 1,16 7,20l224 161c7,4 15,4 22,0l187 -133c99,41 206,66 316,73l109 202c4,7 12,11 20,10l272 -46c7,-1 14,-7 15,-15l38 -226c102,-43 195,-101 275,-172l221 66c7,2 16,-1 20,-7l161 -224z"/>
   <path class="fil1" d="M15180 3696c-4,55 13,109 49,151 35,42 85,68 141,72 55,5 109,-12 151,-48 42,-36 68,-86 73,-141 9,-114 -76,-214 -190,-224 -10,-1 -20,-1 -30,0 -101,6 -185,86 -194,190zm184 298c-75,-6 -144,-41 -192,-99 -49,-57 -72,-130 -66,-205 13,-155 149,-271 304,-258 155,13 271,149 258,304 -6,75 -42,143 -99,192 -47,40 -104,62 -164,66 -14,1 -28,1 -41,0z"/>
   <path class="fil1" d="M15426 4410c24,-2 47,-5 71,-8 47,-8 94,-21 138,-38 2,-1 4,-2 6,-2 16,-6 25,-22 24,-37 -1,-4 -1,-8 -3,-12 -7,-19 -29,-28 -48,-21 -42,17 -85,29 -129,36l0 0c-2,0 -5,1 -7,1 -105,17 -209,6 -306,-29 -53,-18 -103,-44 -150,-77l-1 -1c-1,-1 -3,-2 -4,-3 -136,-97 -226,-242 -254,-407 -3,-22 -6,-43 -7,-64 -9,-144 31,-285 116,-404 98,-136 242,-226 408,-254 165,-27 331,11 467,109 137,97 227,242 254,407 4,22 6,43 8,64 5,91 -9,183 -43,269 -2,5 -3,11 -2,16 1,14 9,27 23,32 20,8 41,-2 49,-21 37,-96 53,-198 47,-301 -1,-24 -4,-47 -8,-71 -31,-185 -132,-347 -284,-456 -153,-109 -338,-152 -524,-121 -184,30 -346,131 -455,284 -95,132 -140,290 -130,451 1,24 4,48 8,72 59,358 382,608 736,586z"/>
  </g>
 </g>
</svg>
