<?xml version="1.0" encoding="UTF-8"?>
<!DOCTYPE svg PUBLIC "-//W3C//DTD SVG 1.1//EN" "http://www.w3.org/Graphics/SVG/1.1/DTD/svg11.dtd">
<!-- Creator: CorelDRAW X8 -->
<svg xmlns="http://www.w3.org/2000/svg" xml:space="preserve" width="492.478mm" height="133.086mm" version="1.1" style="shape-rendering:geometricPrecision; text-rendering:geometricPrecision; image-rendering:optimizeQuality; fill-rule:evenodd; clip-rule:evenodd"
viewBox="0 0 48553 13121"
 xmlns:xlink="http://www.w3.org/1999/xlink">
 <defs>
  <style type="text/css">
   <![CDATA[
    .fil0 {fill:#FEFEFE}
    .fil46 {fill:#F6F6FA}
    .fil33 {fill:#FEFEFE;fill-rule:nonzero}
    .fil4 {fill:#FFFEF6;fill-rule:nonzero}
    .fil20 {fill:#FDDB71;fill-rule:nonzero}
    .fil21 {fill:#FAC64A;fill-rule:nonzero}
    .fil40 {fill:#F8B600;fill-rule:nonzero}
    .fil38 {fill:#F6B787;fill-rule:nonzero}
    .fil5 {fill:#F49F0A;fill-rule:nonzero}
    .fil22 {fill:#F39811;fill-rule:nonzero}
    .fil19 {fill:#FCFCEC;fill-rule:nonzero}
    .fil16 {fill:#FBFCFC;fill-rule:nonzero}
    .fil6 {fill:#E96623;fill-rule:nonzero}
    .fil1 {fill:#F6F6FA;fill-rule:nonzero}
    .fil25 {fill:#EDA380;fill-rule:nonzero}
    .fil37 {fill:#EC9A68;fill-rule:nonzero}
    .fil13 {fill:#F1F8F7;fill-rule:nonzero}
    .fil9 {fill:#E68B1C;fill-rule:nonzero}
    .fil2 {fill:#EFF8FC;fill-rule:nonzero}
    .fil18 {fill:#EFE3BC;fill-rule:nonzero}
    .fil35 {fill:#E8E6F2;fill-rule:nonzero}
    .fil15 {fill:#E8E8E7;fill-rule:nonzero}
    .fil28 {fill:#E4F2F6;fill-rule:nonzero}
    .fil30 {fill:#DA8566;fill-rule:nonzero}
    .fil41 {fill:#D45C28;fill-rule:nonzero}
    .fil42 {fill:#D45A29;fill-rule:nonzero}
    .fil31 {fill:#DEDAEC;fill-rule:nonzero}
    .fil43 {fill:#C0542B;fill-rule:nonzero}
    .fil7 {fill:#CCDBF0;fill-rule:nonzero}
    .fil17 {fill:#CDCCCA;fill-rule:nonzero}
    .fil29 {fill:#B8DBE1;fill-rule:nonzero}
    .fil44 {fill:#A6DBF1;fill-rule:nonzero}
    .fil45 {fill:#7CCBDF;fill-rule:nonzero}
    .fil23 {fill:#80C481;fill-rule:nonzero}
    .fil10 {fill:#5AC1CE;fill-rule:nonzero}
    .fil27 {fill:#47BDD1;fill-rule:nonzero}
    .fil12 {fill:#51B568;fill-rule:nonzero}
    .fil3 {fill:#2DAF57;fill-rule:nonzero}
    .fil39 {fill:#1EADB7;fill-rule:nonzero}
    .fil11 {fill:#17A6B0;fill-rule:nonzero}
    .fil8 {fill:#039C46;fill-rule:nonzero}
    .fil14 {fill:#098844;fill-rule:nonzero}
    .fil24 {fill:#2C2B50;fill-rule:nonzero}
    .fil34 {fill:#302E5C;fill-rule:nonzero}
    .fil36 {fill:#2C2E5C;fill-rule:nonzero}
    .fil32 {fill:#2C2F63;fill-rule:nonzero}
    .fil26 {fill:#2C2F63;fill-rule:nonzero}
    .fil47 {fill:#00A3FE;fill-rule:nonzero}
   ]]>
  </style>
 </defs>
 <g id="Layer_x0020_1">
  <metadata id="CorelCorpID_0Corel-Layer"/>
  <g id="_1844398097984">
   <rect class="fil0" width="48553" height="13121"/>
   <path class="fil1" d="M12764 13121l-12764 0 0 -5999c306,-83 679,-152 1069,-152 614,0 1272,172 1786,732 1328,1448 -120,2896 1810,3499 211,66 412,95 608,95 640,0 1219,-304 1837,-607 618,-303 1275,-606 2073,-606 404,0 845,78 1335,274 1728,691 2160,1944 2246,2764z"/>
   <path class="fil1" d="M48553 13121l-8657 0c-112,-611 -137,-1624 615,-2475 234,-265 513,-416 819,-493 141,5 298,8 464,10 42,0 84,0 124,0 294,0 552,-7 726,-19 175,24 351,54 524,84 413,70 816,141 1176,141 281,0 537,-43 750,-163 1132,-633 187,-4021 1118,-5184 537,-672 1281,-814 1814,-814 222,0 408,25 527,46l0 8867zm-3530 -1100c-59,0 -120,0 -181,1 -870,6 -1576,56 -1575,112 0,51 610,89 1395,89 60,0 120,0 181,-1 870,-6 1576,-56 1575,-111 0,-39 -346,-70 -852,-83 132,-47 282,-112 392,-195 -29,-169 -178,-182 -178,-182 0,0 -125,69 -145,69 -1,0 -2,0 -2,-1 -29,77 -222,180 -308,242 -25,18 -39,40 -47,62 -82,-1 -168,-2 -255,-2z"/>
   <path class="fil2" d="M44469 1898l-78 0c-53,-283 -301,-496 -598,-496 -298,0 -546,213 -599,496l-78 0c-330,0 -598,268 -598,598 0,330 268,598 598,598l1353 0c331,0 598,-268 598,-598 0,-330 -267,-598 -598,-598z"/>
   <path class="fil2" d="M36759 3396l-7 0c-32,-196 -202,-346 -407,-346 -205,0 -375,150 -407,346l-8 0c-202,0 -366,154 -366,343 0,190 164,343 366,343l829 0c203,0 367,-153 367,-343 0,-189 -164,-343 -367,-343z"/>
   <path class="fil3" d="M47342 7063l-1877 0c0,0 -208,242 -208,408l0 2097c0,134 108,242 242,242l1809 0c133,0 242,-108 242,-242l0 -2097c0,-166 -208,-408 -208,-408z"/>
   <path class="fil4" d="M47199 9197l-1592 0c-87,0 -158,-70 -158,-158l0 -1076c0,-87 71,-158 158,-158l1592 0c88,0 158,71 158,158l0 1076c0,88 -70,158 -158,158z"/>
   <path class="fil5" d="M47392 7187l-1977 0c-48,0 -87,-39 -87,-87l0 -379c0,-48 39,-86 87,-86l1977 0c48,0 86,38 86,86l0 379c0,48 -38,87 -86,87z"/>
   <polygon class="fil6" points="46349,8373 46134,8373 46134,8157 45850,8157 45850,8373 45634,8373 45634,8657 45850,8657 45850,8872 46134,8872 46134,8657 46349,8657 "/>
   <polygon class="fil7" points="46473,8778 47257,8778 47257,8641 46473,8641 "/>
   <polygon class="fil7" points="46473,8577 47257,8577 47257,8440 46473,8440 "/>
   <polygon class="fil7" points="46473,8374 47257,8374 47257,8238 46473,8238 "/>
   <polygon class="fil7" points="46473,8172 47257,8172 47257,8035 46473,8035 "/>
   <polygon class="fil7" points="46473,8973 47257,8973 47257,8837 46473,8837 "/>
   <path class="fil8" d="M45499 9810l1809 0c8,0 15,0 23,-1 -166,-165 -519,-279 -928,-279 -409,0 -763,114 -929,279 9,1 17,1 25,1z"/>
   <path class="fil9" d="M45711 6945c0,-113 49,-218 133,-310l-429 0c-48,0 -87,38 -87,86l0 379c0,48 39,87 87,87l374 0c-50,-75 -78,-156 -78,-242z"/>
   <path class="fil10" d="M43498 6531c-12,-572 -187,-700 -406,-824 -102,-57 -344,-249 -406,-349 -105,-172 -23,-689 -23,-689l-1157 0c0,0 90,538 -23,711 -63,96 -304,270 -406,327 -219,124 -394,252 -406,824 -10,487 93,3121 93,3121l2641 0c0,0 103,-2634 93,-3121z"/>
   <path class="fil11" d="M42583 5037l-991 0c-68,0 -123,-55 -123,-123l0 -183c0,-68 55,-123 123,-123l991 0c69,0 124,55 124,123l0 183c0,68 -55,123 -124,123z"/>
   <path class="fil12" d="M42583 4675l-991 0c-68,0 -123,-55 -123,-123l0 -183c0,-68 55,-123 123,-123l991 0c69,0 124,55 124,123l0 183c0,68 -55,123 -124,123z"/>
   <polygon class="fil13" points="43186,8091 40979,8091 40944,6327 43257,6327 "/>
   <polygon class="fil12" points="42692,6975 42329,6974 42330,6612 41861,6611 41861,6974 41498,6973 41498,7442 41860,7443 41860,7805 42328,7806 42329,7443 42691,7444 "/>
   <path class="fil14" d="M42629 4691l-1088 0c-51,0 -93,-42 -93,-93l0 -118 1273 0 0 118c0,51 -41,93 -92,93z"/>
   <path class="fil11" d="M40764 9652l2641 0c0,0 0,-3 0,-8 -311,-143 -785,-235 -1317,-235 -536,0 -1013,93 -1324,239l0 4z"/>
   <path class="fil15" d="M37333 1946l3394 0c226,0 409,184 409,410l0 3355c0,226 -183,409 -409,409l-3394 0c-226,0 -409,-183 -409,-409l0 -3355c0,-226 183,-410 409,-410z"/>
   <path class="fil16" d="M39008 2339l49 0c45,0 82,36 82,82l0 3205c0,45 -37,82 -82,82l-48 0c-46,0 -83,-37 -83,-82l0 -3205c0,-46 37,-82 82,-82z"/>
   <path class="fil17" d="M37891 2919c0,174 -142,316 -316,316 -175,0 -316,-142 -316,-316 0,-175 141,-316 316,-316 174,0 316,141 316,316z"/>
   <path class="fil18" d="M37570 3185c-147,0 -266,-120 -266,-267 1,-147 120,-266 267,-266 148,1 266,121 266,268 -1,147 -120,266 -267,265z"/>
   <path class="fil19" d="M37588 3183c-142,-1 -257,-116 -256,-258 0,-142 116,-256 258,-256 142,1 256,116 256,258 -1,142 -116,256 -258,256z"/>
   <path class="fil18" d="M37609 3180l2 -512c-8,0 -15,-1 -23,-1 -11,0 -23,1 -34,3l-1 508c11,2 22,3 34,3 7,0 15,0 22,-1z"/>
   <path class="fil17" d="M37891 4083c0,175 -142,316 -316,316 -175,0 -316,-141 -316,-316 0,-175 141,-316 316,-316 174,0 316,141 316,316z"/>
   <path class="fil18" d="M37570 4349c-147,0 -266,-120 -266,-267 1,-147 120,-266 267,-265 148,0 266,120 266,267 -1,147 -120,266 -267,265z"/>
   <path class="fil19" d="M37588 4347c-142,0 -257,-116 -256,-258 0,-142 116,-256 258,-256 142,1 256,116 256,258 -1,142 -116,257 -258,256z"/>
   <path class="fil18" d="M37609 4344l2 -511c-8,-1 -15,-2 -23,-2 -11,0 -23,1 -34,3l-1 508c11,2 22,3 34,3 7,0 15,0 22,-1z"/>
   <path class="fil17" d="M37891 5252c0,174 -142,316 -316,316 -175,0 -316,-142 -316,-316 0,-175 141,-316 316,-316 174,0 316,141 316,316z"/>
   <path class="fil18" d="M37570 5518c-147,0 -266,-120 -266,-267 1,-147 120,-266 267,-265 148,0 266,120 266,267 -1,147 -120,266 -267,265z"/>
   <path class="fil19" d="M37588 5516c-142,0 -257,-116 -256,-258 0,-142 116,-256 258,-256 142,1 256,116 256,258 -1,142 -116,256 -258,256z"/>
   <path class="fil18" d="M37609 5513l2 -511c-8,-1 -15,-2 -23,-2 -11,0 -23,1 -34,3l-1 508c11,2 22,3 34,3 7,0 15,0 22,-1z"/>
   <path class="fil17" d="M38765 2919c0,174 -142,316 -316,316 -175,0 -317,-142 -317,-316 0,-175 142,-316 317,-316 174,0 316,141 316,316z"/>
   <path class="fil18" d="M38443 3185c-147,0 -266,-120 -265,-267 0,-147 120,-266 267,-266 147,1 266,121 265,268 0,147 -120,266 -267,265z"/>
   <path class="fil19" d="M38462 3183c-142,-1 -257,-116 -256,-258 0,-142 115,-256 257,-256 142,1 257,116 256,258 0,142 -116,256 -257,256z"/>
   <path class="fil18" d="M38482 3180l2 -512c-7,0 -15,-1 -22,-1 -12,0 -23,1 -34,3l-2 508c11,2 23,3 34,3 8,0 15,0 22,-1z"/>
   <path class="fil17" d="M38765 4083c0,175 -142,316 -316,316 -175,0 -317,-141 -317,-316 0,-175 142,-316 317,-316 174,0 316,141 316,316z"/>
   <path class="fil18" d="M38443 4349c-147,0 -266,-120 -265,-267 0,-147 120,-266 267,-265 147,0 266,120 265,267 0,147 -120,266 -267,265z"/>
   <path class="fil19" d="M38462 4347c-142,0 -257,-116 -256,-258 0,-142 115,-256 257,-256 142,1 257,116 256,258 0,142 -116,257 -257,256z"/>
   <path class="fil18" d="M38482 4344l2 -511c-7,-1 -15,-2 -22,-2 -12,0 -23,1 -34,3l-2 508c11,2 23,3 34,3 8,0 15,0 22,-1z"/>
   <path class="fil17" d="M38765 5252c0,174 -142,316 -316,316 -175,0 -317,-142 -317,-316 0,-175 142,-316 317,-316 174,0 316,141 316,316z"/>
   <path class="fil18" d="M38443 5518c-147,0 -266,-120 -265,-267 0,-147 120,-266 267,-265 147,0 266,120 265,267 0,147 -120,266 -267,265z"/>
   <path class="fil19" d="M38462 5516c-142,0 -257,-116 -256,-258 0,-142 115,-256 257,-256 142,1 257,116 256,258 0,142 -116,256 -257,256z"/>
   <path class="fil18" d="M38482 5513l2 -511c-7,-1 -15,-2 -22,-2 -12,0 -23,1 -34,3l-2 508c11,2 23,3 34,3 8,0 15,0 22,-1z"/>
   <path class="fil17" d="M40035 2919c0,174 -141,316 -316,316 -174,0 -316,-142 -316,-316 0,-175 142,-316 316,-316 175,0 316,141 316,316z"/>
   <path class="fil18" d="M39714 3185c-147,0 -266,-120 -266,-267 1,-147 121,-266 268,-266 147,1 266,121 265,268 0,147 -120,266 -267,265z"/>
   <path class="fil19" d="M39732 3183c-142,-1 -256,-116 -256,-258 1,-142 116,-256 258,-256 142,1 256,116 256,258 -1,142 -116,256 -258,256z"/>
   <path class="fil18" d="M39753 3180l2 -512c-8,0 -15,-1 -23,-1 -11,0 -22,1 -34,3l-1 508c11,2 22,3 34,3 7,0 15,0 22,-1z"/>
   <path class="fil17" d="M40035 4083c0,175 -141,316 -316,316 -174,0 -316,-141 -316,-316 0,-175 142,-316 316,-316 175,0 316,141 316,316z"/>
   <path class="fil18" d="M39714 4349c-147,0 -266,-120 -266,-267 1,-147 121,-266 268,-265 147,0 266,120 265,267 0,147 -120,266 -267,265z"/>
   <path class="fil19" d="M39732 4347c-142,0 -256,-116 -256,-258 1,-142 116,-256 258,-256 142,1 256,116 256,258 -1,142 -116,257 -258,256z"/>
   <path class="fil18" d="M39753 4344l2 -511c-8,-1 -15,-2 -23,-2 -11,0 -22,1 -34,3l-1 508c11,2 22,3 34,3 7,0 15,0 22,-1z"/>
   <path class="fil17" d="M40035 5252c0,174 -141,316 -316,316 -174,0 -316,-142 -316,-316 0,-175 142,-316 316,-316 175,0 316,141 316,316z"/>
   <path class="fil18" d="M39714 5518c-147,0 -266,-120 -266,-267 1,-147 121,-266 268,-265 147,0 266,120 265,267 0,147 -120,266 -267,265z"/>
   <path class="fil19" d="M39732 5516c-142,0 -256,-116 -256,-258 1,-142 116,-256 258,-256 142,1 256,116 256,258 -1,142 -116,256 -258,256z"/>
   <path class="fil18" d="M39753 5513l2 -511c-8,-1 -15,-2 -23,-2 -11,0 -22,1 -34,3l-1 508c11,2 22,3 34,3 7,0 15,0 22,-1z"/>
   <path class="fil17" d="M40909 2919c0,174 -142,316 -316,316 -175,0 -316,-142 -316,-316 0,-175 141,-316 316,-316 174,0 316,141 316,316z"/>
   <path class="fil18" d="M40587 3185c-147,0 -266,-120 -265,-267 0,-147 120,-266 267,-266 147,1 266,121 266,268 -1,147 -120,266 -268,265z"/>
   <path class="fil19" d="M40606 3183c-142,-1 -257,-116 -256,-258 0,-142 116,-256 257,-256 142,1 257,116 256,258 0,142 -115,256 -257,256z"/>
   <path class="fil18" d="M40627 3180l1 -512c-7,0 -14,-1 -22,-1 -12,0 -23,1 -34,3l-2 508c11,2 23,3 34,3 8,0 15,0 23,-1z"/>
   <path class="fil17" d="M40909 4083c0,175 -142,316 -316,316 -175,0 -316,-141 -316,-316 0,-175 141,-316 316,-316 174,0 316,141 316,316z"/>
   <path class="fil18" d="M40587 4349c-147,0 -266,-120 -265,-267 0,-147 120,-266 267,-265 147,0 266,120 266,267 -1,147 -120,266 -268,265z"/>
   <path class="fil19" d="M40606 4347c-142,0 -257,-116 -256,-258 0,-142 116,-256 257,-256 142,1 257,116 256,258 0,142 -115,257 -257,256z"/>
   <path class="fil18" d="M40627 4344l1 -511c-7,-1 -14,-2 -22,-2 -12,0 -23,1 -34,3l-2 508c11,2 23,3 34,3 8,0 15,0 23,-1z"/>
   <path class="fil17" d="M40909 5252c0,174 -142,316 -316,316 -175,0 -316,-142 -316,-316 0,-175 141,-316 316,-316 174,0 316,141 316,316z"/>
   <path class="fil18" d="M40587 5518c-147,0 -266,-120 -265,-267 0,-147 120,-266 267,-265 147,0 266,120 266,267 -1,147 -120,266 -268,265z"/>
   <path class="fil19" d="M40606 5516c-142,0 -257,-116 -256,-258 0,-142 116,-256 257,-256 142,1 257,116 256,258 0,142 -115,256 -257,256z"/>
   <path class="fil18" d="M40627 5513l1 -511c-7,-1 -14,-2 -22,-2 -12,0 -23,1 -34,3l-2 508c11,2 23,3 34,3 8,0 15,0 23,-1z"/>
   <path class="fil20" d="M44371 2282l-168 0c-332,0 -601,-28 -601,-63l0 -248c0,-34 269,-114 601,-114l168 0c331,0 600,80 600,114l0 248c0,35 -269,63 -600,63z"/>
   <path class="fil14" d="M44927 5260l-1283 0c-137,0 -248,-85 -248,-190l0 -127 1779 0 0 127c0,105 -111,190 -248,190z"/>
   <path class="fil3" d="M45172 2841l3 0c0,0 -150,-47 -225,-111 -74,-64 -62,-238 -62,-238l-1209 0c0,0 13,174 -62,238 -75,64 -224,111 -224,111l2 0c-111,38 -188,123 -188,222l0 1825c0,135 142,244 319,244l1516 0c176,0 319,-109 319,-244l0 -1825c0,-99 -78,-184 -189,-222z"/>
   <path class="fil14" d="M44884 2604c-393,99 -794,79 -1198,0l0 -238 1198 0 0 238z"/>
   <path class="fil21" d="M44920 2444l-1251 0c-65,0 -118,-40 -118,-90l0 -333c0,-50 53,-91 118,-91l1251 0c65,0 118,41 118,91l0 333c0,50 -53,90 -118,90z"/>
   <path class="fil22" d="M43667 2394c-28,0 -50,-12 -50,-28l0 -336c0,-15 22,-28 50,-28 27,0 50,13 50,28l0 336c0,16 -23,28 -50,28z"/>
   <path class="fil22" d="M43874 2394c-28,0 -50,-12 -50,-28l0 -336c0,-15 22,-28 50,-28 27,0 50,13 50,28l0 336c0,16 -23,28 -50,28z"/>
   <path class="fil22" d="M44081 2394c-28,0 -50,-12 -50,-28l0 -336c0,-15 22,-28 50,-28 27,0 50,13 50,28l0 336c0,16 -23,28 -50,28z"/>
   <path class="fil22" d="M44288 2394c-28,0 -50,-12 -50,-28l0 -336c0,-15 22,-28 50,-28 28,0 50,13 50,28l0 336c0,16 -22,28 -50,28z"/>
   <path class="fil22" d="M44495 2394c-27,0 -50,-12 -50,-28l0 -336c0,-15 23,-28 50,-28 28,0 50,13 50,28l0 336c0,16 -22,28 -50,28z"/>
   <path class="fil22" d="M44702 2394c-27,0 -50,-12 -50,-28l0 -336c0,-15 23,-28 50,-28 28,0 50,13 50,28l0 336c0,16 -22,28 -50,28z"/>
   <path class="fil22" d="M44909 2394c-27,0 -50,-12 -50,-28l0 -336c0,-15 23,-28 50,-28 28,0 50,13 50,28l0 336c0,16 -22,28 -50,28z"/>
   <polygon class="fil23" points="43202,4865 45354,4865 45354,3292 43202,3292 "/>
   <polygon class="fil19" points="44422,4756 45361,4756 45361,3430 44422,3430 "/>
   <path class="fil24" d="M44338 7508l0 0c-210,0 -382,-172 -382,-382l0 -752c0,-210 172,-382 382,-382 211,0 383,172 383,382l0 752c0,210 -172,382 -383,382z"/>
   <polygon class="fil25" points="45535,11467 45668,11741 45809,11678 45707,11403 "/>
   <path class="fil26" d="M45276 12113c0,0 -30,-95 49,-152 86,-62 279,-165 308,-242 4,11 147,-68 147,-68 0,0 149,13 178,182 -243,183 -682,280 -682,280z"/>
   <polygon class="fil25" points="43951,11588 43981,11890 44135,11880 44135,11588 "/>
   <path class="fil27" d="M43867 9195l-65 1038 50 1523c0,0 216,63 341,2 12,-21 16,-1530 16,-1530l184 -1077 253 997 889 1514 254 -140 -746 -1547 -168 -1038 -988 55 -20 203z"/>
   <path class="fil28" d="M44941 5364l-265 91 305 819 -357 633c0,0 -194,8 -328,8 -134,0 -230,0 -230,0l-462 -730 254 -761 -161 -90 -406 888 574 968 -82 2070c0,0 804,208 1258,-15 -15,-22 -224,-1928 -224,-1928l492 -1005 -368 -948z"/>
   <polygon class="fil29" points="44214,6930 44229,7570 44449,6942 "/>
   <path class="fil30" d="M44231 6768l22 257c0,0 71,41 145,-4l-5 -278 -162 25z"/>
   <path class="fil31" d="M44662 12223c-785,0 -1395,-38 -1395,-89 -1,-56 705,-106 1575,-112 61,-1 122,-1 181,-1 87,0 173,1 255,2 -16,46 -2,90 -2,90 0,0 132,-29 290,-85 506,13 852,44 852,83 1,55 -705,105 -1575,111 -61,1 -121,1 -181,1z"/>
   <path class="fil32" d="M45276 12113c0,0 -14,-44 2,-90 101,1 197,2 288,5 -158,56 -290,85 -290,85z"/>
   <path class="fil25" d="M44788 5403c0,0 -45,-231 22,-260 67,-30 52,111 52,111l238 -22c0,0 38,-141 90,-127 52,15 -37,201 -37,201l-212 58 -153 39z"/>
   <path class="fil25" d="M43858 5424c0,0 199,-148 129,-204 -70,-55 -130,49 -130,49l-261 -59c0,0 -104,-134 -156,-90 -52,45 119,179 119,179l299 125z"/>
   <polygon class="fil33" points="44229,7570 44066,6915 44214,6930 "/>
   <polygon class="fil33" points="44586,6960 44423,6930 44229,7570 "/>
   <path class="fil25" d="M44031 6292c0,15 -60,382 89,536 268,34 346,-151 346,-151 0,0 131,-23 121,-107 -10,-85 -102,-57 -102,-57 0,0 -279,-131 -290,-260 5,34 -164,39 -164,39z"/>
   <path class="fil33" d="M44830 8649l-328 50c0,0 20,258 105,333 84,74 238,9 268,-65 29,-74 -45,-318 -45,-318z"/>
   <path class="fil29" d="M44237 7689c2,-15 42,1625 42,1625 0,0 -132,-955 -42,-1625z"/>
   <path class="fil26" d="M43485 12104c0,0 4,-99 98,-125 102,-29 319,-59 373,-121 0,12 161,-13 161,-13 0,0 135,64 104,233 -291,88 -736,26 -736,26z"/>
   <polygon class="fil30" points="42334,9754 42373,9956 42528,9926 42483,9722 "/>
   <path class="fil34" d="M42085 9974c45,-26 265,-77 265,-77 0,0 134,26 178,-25 8,13 43,89 34,137 -40,9 -99,19 -99,19l-14 -31 -5 31 -398 62c0,0 -6,-90 39,-116z"/>
   <polygon class="fil30" points="41329,9792 41311,9997 41467,10012 41482,9803 "/>
   <path class="fil24" d="M41678 5185c0,0 -74,-45 -20,-124 55,-80 149,20 234,30 84,9 243,79 238,178 -5,100 -90,343 -238,387 -125,30 -214,-471 -214,-471z"/>
   <polygon class="fil26" points="41422,7592 41355,8687 41291,9865 41509,9885 41638,8761 41753,7835 41913,8782 42303,9865 42542,9776 42215,8713 42085,7592 "/>
   <path class="fil35" d="M41330 10153c-364,-13 -616,-37 -616,-63 0,-33 419,-57 957,-57 41,0 82,0 124,0 88,1 173,2 255,4 -5,23 -4,45 -4,51 -38,-1 -77,-2 -115,-2 -207,0 -409,19 -601,67zm1314 -9c-198,-28 -395,-49 -587,-56l278 -43c323,14 540,36 540,60 0,15 -86,29 -231,39z"/>
   <path class="fil31" d="M41918 10163c-40,0 -82,0 -124,0 -166,-2 -323,-5 -464,-10 192,-48 394,-67 601,-67 38,0 77,1 115,2 0,1 0,2 0,2l11 -2c192,7 389,28 587,56 -174,12 -432,19 -726,19z"/>
   <path class="fil36" d="M42046 10090c0,0 0,-1 0,-2 0,-6 -1,-28 4,-51 101,2 197,5 285,8l-278 43 -11 2z"/>
   <path class="fil37" d="M41127 5617c0,0 114,99 184,104 -10,0 -95,273 -95,273 0,0 -89,-55 -133,-75 4,0 84,-168 44,-302z"/>
   <path class="fil28" d="M41872 5761c0,0 -323,24 -541,-75 -10,-15 -105,224 -115,308 30,69 244,124 244,124l-127 1623c0,0 643,70 886,-45 25,-59 -50,-1087 -50,-1087 0,0 120,-387 80,-555 -40,-169 -377,-293 -377,-293z"/>
   <path class="fil34" d="M41025 9945c50,-15 276,-15 276,-15 0,0 124,54 179,15 5,15 22,97 2,141 -41,0 -100,-4 -100,-4l-8 -33 -11 30 -402 -30c0,0 15,-89 64,-104z"/>
   <path class="fil38" d="M41316 6247c-253,-114 -333,-238 -333,-238 0,0 25,-149 -25,-164 -49,-15 -44,94 -44,94l-174 -159c0,0 -139,65 -119,149 30,70 223,184 268,239 45,54 288,322 581,377 292,54 367,-30 367,-30l-94 -253c0,0 -174,99 -427,-15z"/>
   <path class="fil30" d="M41691 5828l-8 -239 238 -67 15 291c0,0 -149,67 -245,15z"/>
   <path class="fil25" d="M41668 5143c0,0 -104,171 -149,461 0,8 201,90 201,90l149 -127c0,0 52,67 119,-15 67,-82 -29,-134 -29,-134 0,0 -112,-67 -75,-193 -112,-8 -216,-82 -216,-82z"/>
   <path class="fil33" d="M41966 6123l-273 134 144 288 273 -149c0,0 55,-65 25,-164 -30,-99 -169,-109 -169,-109z"/>
   <polygon class="fil33" points="41646,6133 41936,5783 42093,5872 41869,6006 41966,6093 "/>
   <polygon class="fil33" points="41691,5768 41646,6133 41549,5939 41616,5917 41564,5753 "/>
   <path class="fil33" d="M42059 7175l-320 0c0,0 -22,320 164,335 186,15 156,-335 156,-335z"/>
   <path class="fil35" d="M35960 10219c-24,0 -49,0 -74,0 -755,-3 -1366,-41 -1366,-87 0,-43 572,-77 1292,-77 25,0 49,0 74,0 755,2 1366,41 1366,86 0,44 -572,78 -1292,78z"/>
   <path class="fil24" d="M36283 5403c0,0 109,-139 104,-307 -5,-169 -402,-283 -546,-214 -144,70 -114,576 -179,645 -64,70 -168,75 -198,10 -114,189 10,492 273,507 263,14 496,-164 496,-164l50 -477z"/>
   <polygon class="fil25" points="34958,9510 34749,9689 34878,9808 35047,9620 "/>
   <path class="fil34" d="M34953 9744l-118 -128c0,0 -116,4 -175,103 54,77 298,328 332,352 35,25 67,-39 67,-39 0,0 -116,-221 -106,-288z"/>
   <polygon class="fil25" points="36396,9793 36391,10067 36565,10050 36537,9799 "/>
   <path class="fil34" d="M36567 9952l-174 2c0,0 -74,89 -40,200 94,10 443,-5 485,-14 41,-9 15,-76 15,-76 0,0 -242,-60 -286,-112z"/>
   <polygon class="fil39" points="36551,8004 36620,8714 36697,9879 36271,9888 36242,8771 36109,8386 36094,7984 "/>
   <polygon class="fil27" points="35796,7999 35752,8605 34794,9523 35050,9754 36119,8768 36298,7994 "/>
   <polygon class="fil25" points="36926,5455 36501,5768 36658,5939 36926,5694 "/>
   <path class="fil28" d="M36650 5619l119 253 -319 266 -60 278 223 1608 -893 0 -82 -2003c0,0 59,-197 137,-233 79,-35 257,-87 257,-87l269 79 349 -161z"/>
   <path class="fil33" d="M36266 7476l-305 15c0,0 -15,350 179,343 193,-8 126,-358 126,-358z"/>
   <path class="fil25" d="M36092 5390c0,0 -102,-76 -137,-2 -34,75 60,115 60,115l-50 220 201 142 3 -253c0,0 79,39 154,25 74,-234 -20,-472 -20,-472 0,0 -25,138 -211,225z"/>
   <path class="fil25" d="M36248 6197c10,15 238,162 238,162l542 -260c0,0 89,-155 114,-165 24,-10 -40,115 -40,115 0,0 154,-144 183,-135 30,10 -114,135 -114,135 0,0 164,-115 179,-95 15,20 -134,119 -134,119 0,0 149,-69 164,-44 15,25 -144,84 -144,84 0,0 119,-15 114,10 -5,25 -139,35 -139,35 0,0 -27,37 -123,41 -6,13 -607,381 -607,381l-317 -179 84 -204z"/>
   <path class="fil33" d="M36319 6173l-194 276c0,0 -253,-156 -298,-268 -44,-112 66,-330 204,-254 139,75 288,246 288,246z"/>
   <path class="fil40" d="M38819 9013l-758 -619c-266,-218 -305,-610 -88,-877 218,-266 610,-306 877,-88l757 619 -788 965z"/>
   <path class="fil6" d="M38819 9013l757 619c266,217 658,178 876,-88 218,-267 179,-659 -88,-877l-757 -619 -788 965z"/>
   <path class="fil5" d="M38224 8212c-241,-193 -300,-528 -155,-789 -34,27 -67,59 -96,94 -217,267 -178,659 88,877l758 619 160 -197 -755 -604z"/>
   <path class="fil41" d="M39750 9434l-763 -611 620 -774 0 -1 -788 965 757 619c266,217 659,178 876,-88 27,-33 50,-68 69,-103 -223,172 -541,177 -771,-7z"/>
   <path class="fil35" d="M38832 9900c-901,0 -1631,-57 -1631,-126 0,-70 730,-127 1631,-127 284,0 552,6 785,16 107,73 230,109 353,109l0 0c93,0 187,-21 272,-62 140,19 220,40 220,64 0,69 -730,126 -1630,126z"/>
   <path class="fil42" d="M39970 9772c-123,0 -246,-36 -353,-109l0 0c107,73 230,109 353,109l0 0z"/>
   <path class="fil43" d="M39970 9772l0 0c-123,0 -246,-36 -353,-109 260,11 476,27 625,47 -85,41 -179,62 -272,62z"/>
   <path class="fil44" d="M38616 9141c0,353 -287,640 -641,640 -353,0 -640,-287 -640,-640 0,-354 287,-641 640,-641 354,0 641,287 641,641z"/>
   <path class="fil45" d="M37497 9451c-164,-313 -42,-700 272,-863 114,-59 237,-81 355,-69 -48,-12 -97,-19 -149,-19 -353,0 -640,287 -640,641 0,334 256,607 582,637 -175,-41 -331,-155 -420,-327z"/>
   <path class="fil45" d="M37924 8503l0 1275c17,2 34,3 51,3 38,0 75,-4 111,-10l0 -1260c-36,-7 -73,-11 -111,-11 -17,0 -34,2 -51,3z"/>
   <path class="fil40" d="M47297 10209l-447 1c-158,0 -285,-127 -286,-284 0,-158 127,-285 285,-286l447 0 1 569z"/>
   <path class="fil6" d="M47297 10209l447 -1c157,0 284,-128 284,-285 0,-157 -128,-285 -285,-284l-447 1 1 569z"/>
   <path class="fil5" d="M46854 10098c-141,2 -259,-99 -283,-233 -4,19 -7,40 -7,61 1,157 128,284 286,284l447 -1 -1 -116 -442 5z"/>
   <path class="fil41" d="M47748 10088l-447 5 -5 -453 0 0 1 569 447 -1c157,0 284,-128 284,-285 0,-19 -2,-38 -6,-56 -28,125 -139,219 -274,221z"/>
   <path class="fil46" d="M35754 0c0,0 -1287,3280 -4174,3280 -2886,0 -2782,-1776 -4173,-1950 -1391,-174 -1600,1635 -4139,-139 -2539,-1774 -2087,540 -4765,-1191l17251 0z"/>
   <g>
    <path class="fil47" d="M3084 1515c195,0 346,42 454,127 108,85 161,205 161,360 0,223 -72,396 -217,518 -144,122 -343,183 -595,183l-527 0 -116 577 -128 0 353 -1765 615 0zm-197 1072c219,0 387,-49 505,-147 117,-97 176,-240 176,-428 0,-123 -42,-217 -127,-283 -85,-65 -207,-98 -365,-98l-501 0 -192 956 504 0z"/>
    <path id="1" class="fil47" d="M5477 2002c0,181 -48,330 -145,445 -97,115 -233,191 -410,228l341 605 -141 0 -331 -585c-54,4 -95,5 -123,5l-530 0 -116 580 -129 0 354 -1765 617 0c195,0 346,42 453,127 107,85 160,205 160,360zm-809 585c218,0 386,-49 504,-147 118,-97 177,-240 177,-428 0,-123 -43,-217 -128,-283 -85,-65 -206,-98 -364,-98l-505 0 -191 956 507 0z"/>
    <path id="2" class="fil47" d="M6509 3293c-170,0 -316,-30 -437,-91 -121,-60 -213,-145 -276,-255 -63,-109 -94,-236 -94,-380 0,-192 43,-369 129,-531 87,-162 211,-292 371,-389 161,-96 346,-145 556,-145 170,0 316,31 438,91 122,61 214,146 277,255 63,109 95,236 95,381 0,191 -44,368 -131,530 -88,163 -212,292 -372,389 -161,97 -346,145 -556,145zm12 -119c180,0 340,-42 479,-127 140,-85 247,-199 323,-343 76,-144 114,-300 114,-470 0,-189 -60,-338 -178,-448 -119,-110 -289,-165 -511,-165 -180,0 -340,42 -479,127 -140,85 -248,199 -324,343 -77,144 -115,301 -115,471 0,186 60,335 179,446 120,111 290,166 512,166z"/>
    <polygon id="3" class="fil47" points="9968,1515 9615,3280 9489,3280 9789,1780 8813,3046 8750,3046 8251,1762 7948,3280 7822,3280 8175,1515 8281,1515 8808,2879 9855,1515 "/>
    <path id="4" class="fil47" d="M11032 3293c-169,0 -315,-30 -436,-91 -121,-60 -213,-145 -276,-255 -63,-109 -94,-236 -94,-380 0,-192 43,-369 129,-531 87,-162 211,-292 371,-389 161,-96 346,-145 556,-145 170,0 316,31 438,91 122,61 214,146 277,255 63,109 95,236 95,381 0,191 -44,368 -132,530 -87,163 -211,292 -371,389 -161,97 -346,145 -557,145zm13 -119c180,0 340,-42 479,-127 140,-85 247,-199 323,-343 76,-144 113,-300 113,-470 0,-189 -59,-338 -177,-448 -119,-110 -289,-165 -511,-165 -180,0 -340,42 -479,127 -140,85 -248,199 -324,343 -77,144 -115,301 -115,471 0,186 60,335 179,446 120,111 290,166 512,166z"/>
    <path id="5" class="fil47" d="M13794 3293c-170,0 -315,-30 -436,-91 -122,-60 -214,-145 -277,-255 -63,-109 -94,-236 -94,-380 0,-192 43,-369 130,-531 86,-162 210,-292 370,-389 161,-96 346,-145 556,-145 170,0 316,31 438,91 122,61 214,146 277,255 63,109 95,236 95,381 0,191 -44,368 -131,530 -88,163 -212,292 -372,389 -161,97 -346,145 -556,145zm12 -119c180,0 340,-42 480,-127 139,-85 247,-199 322,-343 76,-144 114,-300 114,-470 0,-189 -59,-338 -178,-448 -119,-110 -289,-165 -511,-165 -180,0 -339,42 -479,127 -139,85 -247,199 -324,343 -76,144 -115,301 -115,471 0,186 60,335 179,446 120,111 290,166 512,166z"/>
    <path id="6" class="fil47" d="M16333 2372c101,22 178,64 232,125 54,62 81,141 81,239 0,174 -66,309 -197,403 -131,94 -313,141 -547,141l-794 0 353 -1765 731 0c166,0 296,32 390,95 93,63 139,154 139,273 0,126 -35,231 -105,314 -71,83 -165,142 -283,175zm-908 -42l603 0c168,0 303,-37 406,-110 103,-73 154,-179 154,-317 0,-92 -36,-161 -109,-208 -72,-46 -175,-69 -310,-69l-602 0 -142 704zm490 839c193,0 342,-37 446,-111 104,-74 156,-180 156,-317 0,-106 -37,-183 -111,-230 -74,-47 -185,-71 -335,-71l-666 0 -146 729 656 0z"/>
    <path id="7" class="fil47" d="M18204 2783l-1026 0 -325 497 -144 0 1165 -1765 129 0 458 1765 -131 0 -126 -497zm-27 -108l-260 -1024 -668 1024 928 0z"/>
    <polygon id="8" class="fil47" points="19359,1631 18724,1631 18749,1515 20149,1515 20126,1631 19490,1631 19160,3280 19031,3280 "/>
    <path id="9" class="fil47" d="M3438 4376c301,0 533,65 696,196 164,130 246,314 246,550 0,195 -47,365 -141,511 -94,146 -228,259 -401,338 -174,80 -376,120 -606,120l-464 0 -119 606 -657 0 464 -2321 982 0zm-176 1197c146,0 258,-34 337,-103 78,-68 118,-165 118,-291 0,-95 -32,-167 -95,-214 -63,-48 -153,-72 -270,-72l-345 0 -136 680 391 0z"/>
    <polygon id="10" class="fil47" points="5411,4884 5335,5275 6366,5275 6270,5766 5235,5766 5153,6190 6370,6190 6264,6697 4403,6697 4867,4376 6685,4376 6582,4884 "/>
    <polygon id="11" class="fil47" points="7096,4376 7752,4376 7394,6177 8502,6177 8396,6697 6632,6697 "/>
    <path id="12" class="fil47" d="M10352 6246l-988 0 -268 451 -694 0 1489 -2321 647 0 561 2321 -654 0 -93 -451zm-99 -484l-156 -752 -444 752 600 0z"/>
    <polygon id="13" class="fil47" points="13957,4376 13493,6697 12952,6697 12186,5424 11931,6697 11288,6697 11752,4376 12292,4376 13062,5646 13314,4376 "/>
    <path id="14" class="fil47" d="M15758 5487l580 0 -195 978c-120,91 -259,160 -417,208 -158,47 -324,71 -499,71 -234,0 -439,-43 -615,-128 -176,-85 -312,-205 -408,-360 -96,-154 -144,-332 -144,-533 0,-268 62,-507 186,-718 123,-212 297,-377 520,-496 224,-120 480,-179 770,-179 460,0 797,142 1011,428l-471 371c-75,-93 -158,-159 -249,-197 -90,-39 -197,-58 -321,-58 -157,0 -295,34 -413,104 -118,70 -210,165 -274,287 -64,121 -96,260 -96,414 0,160 52,286 156,380 104,94 250,141 438,141 113,0 215,-19 308,-56l133 -657z"/>
    <path id="15" class="fil47" d="M17380 6744c-193,0 -375,-23 -548,-70 -172,-46 -313,-106 -421,-179l259 -491c117,76 242,133 375,171 132,39 265,58 398,58 126,0 223,-18 293,-54 70,-37 104,-87 104,-151 0,-56 -31,-99 -94,-130 -63,-31 -161,-64 -294,-99 -150,-40 -275,-80 -374,-121 -100,-41 -185,-104 -257,-188 -72,-84 -108,-194 -108,-331 0,-166 45,-311 136,-436 91,-125 220,-222 388,-290 168,-69 365,-103 590,-103 166,0 321,17 464,51 144,34 268,84 372,148l-239 487c-91,-57 -191,-101 -300,-131 -109,-30 -222,-45 -337,-45 -130,0 -232,21 -306,63 -74,42 -111,97 -111,163 0,57 32,102 96,133 64,31 163,64 298,99 151,38 275,76 373,116 99,40 183,101 254,183 71,81 106,189 106,321 0,164 -46,308 -138,433 -91,125 -222,222 -391,290 -169,69 -365,103 -588,103z"/>
    <polygon id="16" class="fil47" points="19124,4376 19780,4376 19316,6697 18660,6697 "/>
    <polygon id="17" class="fil47" points="22453,4376 21989,6697 21448,6697 20682,5424 20427,6697 19784,6697 20248,4376 20789,4376 21558,5646 21810,4376 "/>
    <path id="18" class="fil47" d="M24254 5487l580 0 -195 978c-120,91 -258,160 -416,208 -159,47 -325,71 -500,71 -234,0 -439,-43 -615,-128 -175,-85 -311,-205 -408,-360 -96,-154 -144,-332 -144,-533 0,-268 62,-507 186,-718 124,-212 297,-377 520,-496 224,-120 480,-179 770,-179 460,0 797,142 1011,428l-471 371c-75,-93 -158,-159 -248,-197 -91,-39 -198,-58 -322,-58 -157,0 -295,34 -413,104 -118,70 -209,165 -273,287 -65,121 -97,260 -97,414 0,160 52,286 156,380 104,94 250,141 438,141 113,0 216,-19 308,-56l133 -657z"/>
    <path class="fil47" d="M2249 7780l499 0c122,0 226,20 314,61 88,40 156,97 203,172 47,75 70,163 70,264 0,139 -31,260 -93,365 -63,105 -150,186 -261,244 -112,57 -241,86 -388,86l-582 0 238 -1192zm353 965c93,0 174,-19 242,-58 69,-40 121,-93 158,-162 36,-69 54,-146 54,-232 0,-90 -29,-160 -87,-211 -57,-50 -141,-75 -251,-75l-237 0 -148 738 269 0z"/>
    <polygon id="1" class="fil47" points="3655,7780 3933,7780 3695,8972 3417,8972 "/>
    <path id="2" class="fil47" d="M4391 8992c-94,0 -185,-12 -271,-37 -86,-25 -155,-57 -208,-96l113 -212c54,39 116,70 184,92 68,21 138,32 209,32 76,0 136,-13 180,-38 45,-25 67,-59 67,-102 0,-35 -18,-62 -53,-81 -35,-18 -91,-38 -168,-60 -78,-23 -141,-45 -189,-66 -49,-21 -91,-52 -127,-94 -36,-42 -54,-98 -54,-167 0,-80 23,-151 67,-213 45,-61 109,-108 191,-141 82,-33 178,-49 287,-49 80,0 157,9 228,26 72,18 133,43 184,76l-104 211c-44,-31 -94,-54 -150,-69 -55,-15 -113,-23 -173,-23 -79,0 -141,14 -186,41 -45,27 -68,62 -68,105 0,27 10,48 29,66 19,18 44,32 73,43 30,10 71,23 124,38 76,20 139,41 188,62 48,21 90,52 125,92 34,40 52,93 52,159 0,82 -23,153 -68,214 -46,60 -110,107 -193,141 -83,33 -179,50 -289,50z"/>
    <path id="3" class="fil47" d="M5688 8992c-119,0 -223,-21 -312,-65 -90,-43 -158,-103 -206,-182 -47,-78 -71,-168 -71,-270 0,-135 31,-257 93,-365 62,-109 149,-194 261,-257 112,-62 241,-93 386,-93 107,0 201,18 283,54 82,37 144,89 186,157l-200 163c-63,-93 -159,-139 -287,-139 -88,0 -165,20 -232,61 -67,41 -119,96 -156,167 -36,70 -55,148 -55,235 0,92 29,164 88,218 58,54 140,81 246,81 126,0 231,-46 316,-138l164 167c-118,138 -286,206 -504,206z"/>
    <path id="4" class="fil47" d="M6902 8992c-120,0 -223,-21 -310,-65 -88,-43 -155,-103 -201,-182 -47,-78 -70,-168 -70,-270 0,-135 31,-257 93,-365 62,-109 149,-194 260,-257 112,-62 240,-93 384,-93 119,0 223,21 310,64 87,44 154,104 201,183 46,78 70,168 70,270 0,135 -31,257 -93,365 -62,109 -149,194 -261,257 -111,62 -239,93 -383,93zm23 -235c88,0 164,-21 230,-63 66,-42 117,-98 152,-168 35,-71 53,-148 53,-233 0,-91 -29,-164 -86,-217 -56,-54 -136,-81 -240,-81 -87,0 -164,21 -229,63 -66,42 -117,98 -152,168 -35,71 -53,148 -53,233 0,91 29,163 85,217 57,54 137,81 240,81z"/>
    <path id="5" class="fil47" d="M8282 8992c-150,0 -267,-37 -352,-111 -85,-75 -128,-177 -128,-306 0,-37 5,-80 14,-128l132 -667 278 0 -133 662c-7,38 -10,71 -10,101 0,71 20,125 59,161 39,35 96,53 171,53 84,0 151,-25 201,-75 50,-50 86,-130 109,-240l132 -662 271 0 -134 679c-73,356 -276,533 -610,533z"/>
    <polygon id="6" class="fil47" points="10393,7780 10155,8972 9928,8972 9484,8226 9334,8972 9062,8972 9300,7780 9528,7780 9972,8527 10121,7780 "/>
    <polygon id="7" class="fil47" points="10876,8005 10495,8005 10541,7780 11579,7780 11533,8005 11154,8005 10960,8972 10684,8972 "/>
    <path class="fil47" d="M14432 9657c273,181 410,426 410,736 0,248 -68,465 -205,650 -137,185 -328,327 -573,426 -245,100 -528,149 -847,149 -306,0 -573,-42 -800,-127 -227,-86 -403,-208 -528,-368 -124,-160 -186,-345 -186,-555 0,-245 66,-456 197,-634 132,-177 320,-314 565,-410 -203,-160 -304,-368 -304,-624 0,-231 63,-432 189,-605 127,-172 302,-304 528,-397 226,-92 482,-138 770,-138 274,0 515,40 725,120 210,80 373,192 490,338 118,146 176,316 176,512 0,213 -52,398 -157,554 -105,156 -255,281 -450,373zm-800 -1263c-185,0 -333,45 -445,136 -112,90 -168,216 -168,376 0,128 49,229 147,303 98,75 232,112 402,112 185,0 333,-45 445,-136 112,-90 168,-212 168,-365 0,-131 -50,-235 -149,-311 -100,-77 -233,-115 -400,-115zm-400 2590c224,0 403,-52 536,-157 133,-105 200,-248 200,-429 0,-149 -59,-267 -176,-354 -117,-88 -279,-131 -485,-131 -224,0 -402,51 -536,154 -133,104 -199,244 -199,422 0,152 60,273 181,362 121,89 281,133 479,133z"/>
    <path id="1" class="fil47" d="M16697 11618c-416,0 -745,-125 -986,-375 -242,-251 -363,-596 -363,-1037 0,-448 83,-858 248,-1231 165,-373 396,-669 690,-887 295,-219 631,-328 1008,-328 415,0 744,125 986,375 241,251 362,597 362,1037 0,448 -82,858 -248,1231 -165,373 -395,669 -690,888 -295,218 -631,327 -1007,327zm80 -730c206,0 384,-89 535,-266 151,-178 266,-399 344,-664 78,-264 117,-519 117,-765 0,-238 -48,-414 -146,-530 -98,-115 -236,-173 -413,-173 -206,0 -385,89 -536,266 -151,178 -265,399 -344,664 -78,265 -117,520 -117,765 0,238 49,415 147,530 97,116 235,173 413,173z"/>
    <path id="2" class="fil47" d="M19921 9838c-245,0 -441,-74 -589,-224 -147,-149 -221,-355 -221,-618 0,-224 43,-428 128,-613 85,-184 209,-331 370,-439 162,-109 351,-163 568,-163 245,0 442,75 589,224 148,149 221,355 221,618 0,228 -42,433 -128,616 -85,183 -208,328 -370,437 -162,108 -351,162 -568,162zm2511 -2014l671 0 -3251 3730 -677 0 3257 -3730zm-2463 1577c157,0 276,-76 357,-229 82,-153 123,-325 123,-517 0,-146 -28,-255 -85,-328 -57,-73 -135,-109 -235,-109 -156,0 -275,76 -357,229 -82,153 -123,325 -123,517 0,146 29,255 86,328 57,73 135,109 234,109zm2137 2196c-248,0 -445,-75 -591,-224 -146,-149 -219,-355 -219,-618 0,-224 43,-428 128,-613 86,-185 209,-330 371,-437 161,-107 349,-160 562,-160 249,0 447,75 594,224 148,149 221,355 221,618 0,228 -42,433 -127,616 -86,183 -209,328 -371,434 -162,107 -351,160 -568,160zm48 -432c153,0 271,-77 355,-231 83,-155 125,-328 125,-520 0,-146 -29,-255 -88,-328 -58,-73 -136,-109 -232,-109 -156,0 -276,77 -359,232 -84,154 -126,328 -126,519 0,146 30,255 88,328 59,73 138,109 237,109z"/>
   </g>
  </g>
 </g>
</svg>
