<?xml version="1.0" encoding="UTF-8"?>
<!DOCTYPE svg PUBLIC "-//W3C//DTD SVG 1.1//EN" "http://www.w3.org/Graphics/SVG/1.1/DTD/svg11.dtd">
<!-- Creator: CorelDRAW X8 -->
<svg xmlns="http://www.w3.org/2000/svg" xml:space="preserve" width="695.167mm" height="448.564mm" version="1.1" style="shape-rendering:geometricPrecision; text-rendering:geometricPrecision; image-rendering:optimizeQuality; fill-rule:evenodd; clip-rule:evenodd"
viewBox="0 0 28688 18511"
 xmlns:xlink="http://www.w3.org/1999/xlink">
 <defs>
  <style type="text/css">
   <![CDATA[
    .fil3 {fill:#00A3FE;fill-rule:nonzero}
    .fil11 {fill:#016EB9;fill-rule:nonzero}
    .fil7 {fill:#131F2D;fill-rule:nonzero}
    .fil16 {fill:#2C3A64;fill-rule:nonzero}
    .fil9 {fill:#33B5FE;fill-rule:nonzero}
    .fil12 {fill:#364154;fill-rule:nonzero}
    .fil10 {fill:#424C57;fill-rule:nonzero}
    .fil4 {fill:#657285;fill-rule:nonzero}
    .fil5 {fill:#99DAFF;fill-rule:nonzero}
    .fil2 {fill:#B8C1C9;fill-rule:nonzero}
    .fil1 {fill:#D5D6DA;fill-rule:nonzero}
    .fil8 {fill:#DDDEE1;fill-rule:nonzero}
    .fil0 {fill:#EAEAEA;fill-rule:nonzero}
    .fil15 {fill:#EF6343;fill-rule:nonzero}
    .fil13 {fill:#F4F4F4;fill-rule:nonzero}
    .fil14 {fill:#FF7955;fill-rule:nonzero}
    .fil6 {fill:white;fill-rule:nonzero}
   ]]>
  </style>
 </defs>
 <g id="Layer_x0020_1">
  <metadata id="CorelCorpID_0Corel-Layer"/>
  <path class="fil0" d="M23933 18455c0,0 2851,-55 4098,-1786 2106,-2924 -1348,-5373 -3361,-4942 -2074,446 -2874,-1423 -3885,-3291 -1127,-2081 -2517,-4161 -6226,-3045 -661,199 -1728,-174 -2910,-546 -2356,-742 -5173,-1484 -6166,2293 -355,1349 -1587,2938 -3411,3794 -3570,1675 -1962,7499 589,7527 2551,29 21272,-4 21272,-4z"/>
  <path class="fil1" d="M3391 17418c395,-199 711,-147 1033,-95 322,51 651,103 1073,-96 842,-399 -891,-2368 -193,-2966 335,-288 467,-693 475,-778 68,-800 -670,-1823 91,-1956 772,-135 1488,562 2026,891 -74,-3179 685,-5994 3246,-5380 163,-434 332,-859 505,-1271 1459,-3465 3293,-3399 3808,-3121 1565,843 -362,4701 1119,3807 1482,-895 491,2038 -541,4065 -1031,2026 628,1005 1630,2508 1002,1504 -2603,5416 -2603,5416l-6159 3 -1 -1c-1226,4 -5883,-8 -5883,-8 0,0 -421,-617 374,-1018z"/>
  <path class="fil2" d="M18615 18094l-4201 -1623c-565,-218 -847,-853 -628,-1419l4868 -12608c218,-565 853,-846 1419,-628l4201 1622c566,218 847,854 629,1419l-4869 12608c-218,566 -853,847 -1419,629z"/>
  <path class="fil3" d="M20621 4623c-154,401 -604,600 -1005,445 -400,-154 -599,-604 -445,-1004 155,-401 605,-600 1005,-445 401,154 600,604 445,1004z"/>
  <path class="fil4" d="M19897 3455c109,0 217,20 319,60 457,176 685,692 509,1148 -66,171 -181,315 -332,417 -148,99 -319,152 -497,152 -109,0 -217,-20 -320,-60 -457,-176 -685,-692 -508,-1148 66,-171 180,-315 332,-417 147,-99 319,-152 497,-152zm0 111c-312,0 -607,189 -726,498 -154,400 45,850 445,1004 93,36 187,53 280,53 312,0 606,-189 725,-498 155,-400 -44,-850 -445,-1004 -91,-36 -186,-53 -279,-53z"/>
  <path class="fil5" d="M19597 4079c-77,0 -139,-27 -162,-78 -38,-86 52,-210 202,-277 62,-27 124,-40 179,-40 78,0 140,26 162,77 38,87 -52,211 -202,277 -62,28 -124,41 -179,41z"/>
  <path class="fil3" d="M23431 5708c-155,401 -604,600 -1005,445 -400,-154 -599,-604 -445,-1004 155,-401 605,-600 1005,-445 400,154 600,604 445,1004z"/>
  <path class="fil4" d="M22706 4540c110,0 217,20 320,60 457,176 685,691 509,1148 -66,171 -181,315 -332,417 -148,99 -320,152 -497,152 -110,0 -217,-20 -320,-60 -221,-85 -396,-252 -492,-469 -96,-217 -102,-458 -17,-680 66,-170 181,-314 332,-416 148,-99 320,-152 497,-152zm0 111c-312,0 -606,189 -725,498 -154,400 45,850 445,1004 92,36 187,53 280,53 312,0 606,-189 725,-498 155,-400 -45,-850 -445,-1004 -92,-36 -187,-53 -280,-53z"/>
  <path class="fil5" d="M22407 5164c-78,0 -139,-27 -162,-78 -38,-86 52,-210 202,-277 62,-27 124,-40 179,-40 78,0 139,26 162,77 38,87 -52,211 -202,277 -62,28 -124,41 -179,41z"/>
  <path class="fil3" d="M19307 8029c-155,400 -605,599 -1005,445 -401,-155 -600,-605 -445,-1005 154,-400 604,-600 1005,-445 400,155 599,604 445,1005z"/>
  <path class="fil4" d="M18582 6860c109,0 217,21 320,60 456,177 684,692 508,1149 -66,170 -180,314 -332,416 -147,100 -319,152 -497,152 -109,0 -217,-20 -319,-59 -222,-86 -397,-252 -493,-469 -96,-217 -102,-459 -16,-680 66,-171 181,-315 332,-417 148,-99 319,-152 497,-152zm0 112c-312,0 -606,189 -725,497 -155,400 44,850 445,1005 91,35 186,52 279,52 312,0 606,-189 726,-497 154,-401 -45,-850 -445,-1005 -93,-36 -187,-52 -280,-52z"/>
  <path class="fil5" d="M18282 7484c-77,0 -139,-26 -161,-77 -39,-87 52,-211 201,-277 62,-28 125,-41 180,-41 77,0 139,27 161,78 39,86 -52,210 -201,277 -62,27 -125,40 -180,40z"/>
  <path class="fil3" d="M22116 9114c-155,400 -604,599 -1005,445 -400,-155 -599,-605 -445,-1005 155,-400 605,-600 1005,-445 401,154 600,604 445,1005z"/>
  <path class="fil4" d="M21391 7945c110,0 217,20 320,60 457,177 685,692 509,1149 -66,170 -181,314 -332,416 -148,100 -319,152 -497,152 -109,0 -217,-20 -320,-60 -221,-85 -396,-252 -492,-469 -96,-216 -102,-458 -16,-679 65,-171 180,-315 332,-417 147,-99 319,-152 496,-152zm0 112c-311,0 -606,189 -725,497 -154,400 45,850 445,1005 92,35 187,52 280,52 312,0 606,-189 725,-497 155,-401 -44,-851 -445,-1005 -92,-36 -186,-52 -280,-52z"/>
  <path class="fil5" d="M21092 8569c-77,0 -139,-26 -162,-77 -38,-87 52,-211 202,-277 62,-28 124,-41 179,-41 77,0 139,27 162,77 39,87 -52,211 -202,277 -62,28 -124,41 -179,41z"/>
  <path class="fil3" d="M18009 11389c-155,401 -605,600 -1005,445 -400,-154 -599,-604 -445,-1005 155,-400 605,-599 1005,-445 400,155 600,605 445,1005z"/>
  <path class="fil6" d="M17284 10221c109,0 217,20 320,60 457,176 685,691 509,1148 -66,171 -181,315 -332,417 -148,99 -320,152 -497,152 -110,0 -217,-20 -320,-60 -457,-177 -685,-692 -509,-1149 67,-170 181,-314 332,-416 148,-100 320,-152 497,-152zm0 111c-312,0 -606,189 -725,497 -154,401 45,851 445,1005 92,36 187,53 280,53 312,0 606,-189 725,-498 155,-400 -45,-850 -445,-1005 -92,-35 -187,-52 -280,-52z"/>
  <path class="fil5" d="M16985 10845c-78,0 -139,-27 -162,-78 -38,-86 52,-211 202,-277 62,-27 124,-41 179,-41 77,0 139,27 162,78 38,87 -52,211 -202,277 -62,27 -124,41 -179,41z"/>
  <path class="fil3" d="M20819 12474c-155,401 -605,600 -1005,445 -401,-154 -600,-604 -445,-1005 154,-400 604,-599 1005,-445 400,155 599,605 445,1005z"/>
  <path class="fil4" d="M20094 11306c109,0 217,20 319,60 222,85 397,252 493,469 96,216 102,458 16,679 -65,171 -181,315 -331,417 -148,99 -320,152 -497,152 -110,0 -217,-20 -320,-60 -222,-86 -396,-252 -492,-469 -96,-217 -102,-458 -17,-680 66,-170 181,-314 332,-416 147,-100 320,-152 497,-152zm0 111c-312,0 -606,189 -725,497 -155,401 44,851 445,1005 92,36 187,52 280,52 311,0 606,-189 725,-497 154,-400 -45,-850 -445,-1005 -92,-35 -187,-52 -280,-52z"/>
  <path class="fil5" d="M19795 11930c-78,0 -140,-27 -162,-78 -39,-87 52,-211 202,-277 62,-27 124,-41 179,-41 77,0 139,27 161,78 39,86 -51,210 -201,277 -62,27 -125,41 -179,41z"/>
  <path class="fil3" d="M16707 14761c-155,400 -605,599 -1005,445 -400,-155 -600,-604 -445,-1005 155,-400 605,-600 1005,-445 400,155 600,605 445,1005z"/>
  <path class="fil6" d="M15982 13593c110,0 217,20 320,59 457,177 685,692 509,1149 -66,171 -181,314 -332,416 -148,100 -320,152 -497,152 -110,0 -217,-20 -320,-59 -221,-86 -396,-252 -492,-469 -96,-217 -102,-459 -16,-680 65,-171 180,-315 331,-417 148,-99 320,-151 497,-151zm0 111c-312,0 -606,189 -725,497 -155,401 45,850 445,1005 92,35 187,52 280,52 312,0 606,-189 725,-497 155,-400 -45,-850 -445,-1005 -92,-35 -187,-52 -280,-52z"/>
  <path class="fil5" d="M15683 14216c-77,0 -139,-26 -161,-77 -39,-87 51,-211 201,-277 62,-28 124,-41 179,-41 78,0 139,27 162,78 38,86 -52,210 -202,277 -62,27 -124,40 -179,40z"/>
  <path class="fil3" d="M19517 15846c-155,400 -605,599 -1005,445 -400,-155 -600,-605 -445,-1005 155,-400 604,-600 1005,-445 400,154 599,604 445,1005z"/>
  <path class="fil6" d="M18792 14677c109,0 217,20 320,60 221,86 396,252 492,469 96,217 102,458 16,680 -66,170 -180,314 -331,416 -148,100 -320,152 -497,152 -110,0 -217,-20 -320,-60 -221,-85 -396,-252 -492,-468 -96,-217 -102,-459 -17,-680 66,-171 181,-315 332,-417 148,-99 320,-152 497,-152zm0 112c-312,0 -606,189 -725,497 -155,400 45,850 445,1005 92,35 187,52 280,52 312,0 606,-189 725,-497 154,-401 -45,-851 -445,-1005 -92,-36 -187,-52 -280,-52z"/>
  <path class="fil5" d="M18493 15301c-78,0 -139,-26 -162,-77 -39,-87 52,-211 202,-277 62,-28 124,-41 179,-41 77,0 139,27 162,77 38,87 -53,211 -202,278 -62,27 -125,40 -179,40z"/>
  <path class="fil4" d="M17063 15862l0 0c-37,-15 -55,-56 -41,-94l4466 -11566c14,-37 56,-55 93,-41 37,14 56,56 42,94l-4466 11565c-15,38 -57,56 -94,42z"/>
  <path class="fil4" d="M19181 6045l0 0c15,-38 57,-56 94,-42l2776 1072c37,14 56,56 41,93 -14,38 -56,56 -93,42l-2776 -1072c-37,-14 -56,-56 -42,-93z"/>
  <path class="fil4" d="M17880 9416l0 0c14,-37 56,-56 93,-41l2776 1072c37,14 56,56 42,93 -15,37 -57,56 -94,42l-2776 -1072c-37,-15 -56,-57 -41,-94z"/>
  <path class="fil4" d="M16573 12799l0 0c15,-37 57,-56 94,-41l2776 1071c37,15 56,57 41,94 -14,37 -56,56 -93,41l-2776 -1072c-37,-14 -56,-56 -42,-93z"/>
  <path class="fil3" d="M13048 17930l0 0c-764,291 -1628,-96 -1919,-861l-4760 -12502c-291,-764 97,-1628 861,-1919 765,-291 1628,97 1919,861l4760 12502c291,764 -96,1628 -861,1919z"/>
  <path class="fil3" d="M7834 3217c58,153 -19,327 -173,386 -154,58 -328,-20 -386,-174l-445 -1169 -706 -1853c-58,-154 20,-327 173,-386l2 -1c153,-57 326,21 384,174l707 1857 444 1166z"/>
  <path class="fil7" d="M7394 2050l-560 209 -706 -1853c-58,-154 20,-328 173,-387l2 0c154,-57 326,20 384,174l707 1857z"/>
  <polygon class="fil7" points="13246,14348 10448,15391 9876,13858 12674,12815 "/>
  <polygon class="fil1" points="8291,4416 7692,4640 7679,4605 8278,4381 "/>
  <polygon class="fil1" points="8372,4632 7772,4855 7759,4820 8359,4597 "/>
  <polygon class="fil1" points="8452,4847 7853,5070 7839,5036 8439,4812 "/>
  <polygon class="fil1" points="8532,5062 7933,5286 7920,5251 8519,5028 "/>
  <polygon class="fil1" points="8613,5278 8013,5501 8000,5466 8599,5243 "/>
  <polygon class="fil1" points="7596,5954 9224,5347 9197,5275 7570,5882 "/>
  <polygon class="fil1" points="8790,5754 8191,5978 8178,5943 8777,5720 "/>
  <polygon class="fil1" points="8870,5970 8271,6193 8258,6158 8857,5935 "/>
  <polygon class="fil1" points="8951,6185 8351,6409 8338,6374 8938,6150 "/>
  <polygon class="fil1" points="9031,6401 8432,6624 8419,6589 9018,6366 "/>
  <polygon class="fil1" points="9111,6616 8512,6840 8499,6805 9098,6581 "/>
  <polygon class="fil1" points="9352,7261 8752,7484 8739,7449 9339,7226 "/>
  <polygon class="fil1" points="9432,7476 8833,7700 8820,7665 9419,7441 "/>
  <polygon class="fil1" points="9512,7692 8913,7915 8900,7880 9499,7657 "/>
  <polygon class="fil1" points="9593,7907 8993,8131 8980,8096 9580,7872 "/>
  <polygon class="fil1" points="9673,8123 9074,8346 9061,8311 9660,8088 "/>
  <polygon class="fil1" points="8657,8799 10284,8192 10257,8120 8630,8727 "/>
  <polygon class="fil1" points="9917,8778 9318,9001 9305,8966 9904,8743 "/>
  <polygon class="fil1" points="9997,8993 9398,9217 9385,9182 9984,8958 "/>
  <polygon class="fil1" points="10078,9209 9478,9432 9465,9397 10065,9174 "/>
  <polygon class="fil1" points="10158,9424 9559,9648 9546,9613 10145,9389 "/>
  <polygon class="fil1" points="10238,9640 9639,9863 9626,9828 10225,9605 "/>
  <polygon class="fil1" points="9222,10316 10850,9709 10823,9637 9196,10244 "/>
  <polygon class="fil1" points="10475,10275 9876,10499 9863,10464 10462,10240 "/>
  <polygon class="fil1" points="10556,10491 9956,10714 9943,10679 10543,10456 "/>
  <polygon class="fil1" points="10636,10706 10037,10930 10024,10895 10623,10671 "/>
  <polygon class="fil1" points="10716,10922 10117,11145 10104,11110 10703,10887 "/>
  <polygon class="fil1" points="10797,11137 10197,11360 10184,11326 10784,11102 "/>
  <polygon class="fil1" points="9780,11813 11408,11206 11381,11135 9754,11741 "/>
  <polygon class="fil1" points="11047,11810 10448,12033 10435,11998 11034,11775 "/>
  <polygon class="fil1" points="11128,12025 10528,12249 10515,12214 11115,11990 "/>
  <polygon class="fil1" points="11208,12240 10609,12464 10596,12429 11195,12206 "/>
  <polygon class="fil1" points="11288,12456 10689,12679 10676,12645 11275,12421 "/>
  <polygon class="fil1" points="11369,12671 10769,12895 10756,12860 11355,12636 "/>
  <polygon class="fil1" points="10353,13347 11980,12741 11953,12669 10326,13275 "/>
  <path class="fil8" d="M12701 18016c105,-13 210,-37 313,-74 -6,3 -13,5 -19,8 -97,36 -195,58 -294,66z"/>
  <path class="fil9" d="M12606 18020c-454,0 -884,-279 -1052,-728l-757 -2032 2099 -782 757 2031c213,571 -75,1211 -639,1433 -103,37 -208,61 -313,74 -31,3 -63,4 -95,4zm-2380 -4293l-3601 -9658c-179,-482 -2,-1014 398,-1302l252 662c45,120 160,193 280,193 35,0 71,-6 106,-19 154,-59 231,-233 173,-386l-249 -655c29,-3 58,-4 87,-4 454,0 884,279 1052,729l3600 9658 -2098 782zm1727 -1058l-1627 606 27 72 1627 -606 -27 -72zm-598 -33l-599 224 13 35 600 -224 -14 -35zm-80 -215l-599 224 13 34 599 -223 -13 -35zm-80 -215l-599 223 13 35 599 -224 -13 -34zm-80 -216l-600 224 13 35 600 -224 -13 -35zm-81 -215l-599 223 13 35 599 -223 -13 -35zm347 -640l-1627 606 26 72 1628 -607 -27 -71zm-597 -33l-600 224 13 34 600 -223 -13 -35zm-81 -215l-599 223 13 35 599 -223 -13 -35zm-80 -216l-599 224 13 35 599 -224 -13 -35zm-80 -215l-600 223 13 35 600 -223 -13 -35zm-81 -216l-599 224 13 35 599 -224 -13 -35zm361 -603l-1627 607 26 72 1628 -607 -27 -72zm-598 -32l-599 223 13 35 599 -223 -13 -35zm-80 -216l-599 224 13 35 599 -224 -13 -35zm-80 -215l-600 223 13 35 600 -223 -13 -35zm-81 -216l-599 224 13 35 599 -224 -13 -35zm-80 -215l-599 223 13 35 599 -223 -13 -35zm353 -623l-1627 607 27 72 1627 -607 -27 -72zm-597 -32l-599 223 13 35 599 -223 -13 -35zm-80 -216l-600 224 13 35 600 -224 -13 -35zm-81 -215l-599 223 13 35 599 -223 -13 -35zm-80 -216l-599 224 13 35 599 -224 -13 -35zm-80 -215l-600 223 13 35 600 -223 -13 -35zm-241 -645l-599 224 13 35 599 -224 -13 -35zm-80 -215l-599 223 13 35 599 -223 -13 -35zm-80 -216l-600 224 13 35 600 -224 -13 -35zm-81 -215l-599 223 13 35 599 -223 -13 -35zm-80 -215l-599 223 13 35 599 -224 -13 -34zm420 -445l-1627 607 26 72 1628 -607 -27 -72zm-598 -32l-599 223 13 35 600 -223 -14 -35zm-80 -215l-599 223 13 35 599 -224 -13 -34zm-80 -216l-600 224 14 34 599 -223 -13 -35zm-80 -215l-600 223 13 35 600 -223 -13 -35zm-81 -216l-599 224 13 35 599 -224 -13 -35z"/>
  <path class="fil9" d="M7555 3622c-120,0 -235,-73 -280,-193l-252 -662c78,-56 166,-103 260,-139 100,-37 201,-58 302,-66l249 655c58,153 -19,327 -173,386 -35,13 -71,19 -106,19z"/>
  <polygon class="fil10" points="10797,15260 10226,13727 12324,12945 12896,14478 "/>
  <polygon class="fil8" points="7692,4640 7679,4605 8278,4381 8291,4416 "/>
  <polygon class="fil8" points="7772,4855 7759,4820 8359,4597 8372,4632 "/>
  <polygon class="fil8" points="7853,5070 7839,5036 8439,4812 8452,4847 "/>
  <polygon class="fil8" points="7933,5286 7920,5251 8519,5028 8532,5062 "/>
  <polygon class="fil8" points="8013,5501 8000,5466 8599,5243 8613,5278 "/>
  <polygon class="fil8" points="7596,5954 7570,5882 9197,5275 9224,5347 "/>
  <polygon class="fil8" points="8191,5978 8178,5943 8777,5720 8790,5754 "/>
  <polygon class="fil8" points="8271,6193 8258,6158 8857,5935 8870,5970 "/>
  <polygon class="fil8" points="8351,6409 8338,6374 8938,6150 8951,6185 "/>
  <polygon class="fil8" points="8432,6624 8419,6589 9018,6366 9031,6401 "/>
  <polygon class="fil8" points="8512,6840 8499,6805 9098,6581 9111,6616 "/>
  <polygon class="fil8" points="8752,7484 8739,7449 9339,7226 9352,7261 "/>
  <polygon class="fil8" points="8833,7700 8820,7665 9419,7441 9432,7476 "/>
  <polygon class="fil8" points="8913,7915 8900,7880 9499,7657 9512,7692 "/>
  <polygon class="fil8" points="8993,8131 8980,8096 9580,7872 9593,7907 "/>
  <polygon class="fil8" points="9074,8346 9061,8311 9660,8088 9673,8123 "/>
  <polygon class="fil8" points="8657,8799 8630,8727 10257,8120 10284,8192 "/>
  <polygon class="fil8" points="9318,9001 9305,8966 9904,8743 9917,8778 "/>
  <polygon class="fil8" points="9398,9217 9385,9182 9984,8958 9997,8993 "/>
  <polygon class="fil8" points="9478,9432 9465,9397 10065,9174 10078,9209 "/>
  <polygon class="fil8" points="9559,9648 9546,9613 10145,9389 10158,9424 "/>
  <polygon class="fil8" points="9639,9863 9626,9828 10225,9605 10238,9640 "/>
  <polygon class="fil8" points="9222,10316 9196,10244 10823,9637 10850,9709 "/>
  <polygon class="fil8" points="9876,10499 9863,10464 10462,10240 10475,10275 "/>
  <polygon class="fil8" points="9956,10714 9943,10679 10543,10456 10556,10491 "/>
  <polygon class="fil8" points="10037,10930 10024,10895 10623,10671 10636,10706 "/>
  <polygon class="fil8" points="10117,11145 10104,11110 10703,10887 10716,10922 "/>
  <polygon class="fil8" points="10197,11360 10184,11326 10784,11102 10797,11137 "/>
  <polygon class="fil8" points="9780,11813 9754,11741 11381,11135 11408,11206 "/>
  <polygon class="fil8" points="10448,12033 10435,11998 11034,11775 11047,11810 "/>
  <polygon class="fil8" points="10528,12249 10515,12214 11115,11990 11128,12025 "/>
  <polygon class="fil8" points="10609,12464 10596,12429 11195,12206 11208,12240 "/>
  <polygon class="fil8" points="10689,12679 10676,12645 11275,12421 11288,12456 "/>
  <polygon class="fil8" points="10769,12895 10756,12860 11355,12636 11369,12671 "/>
  <polygon class="fil8" points="10353,13347 10326,13275 11953,12669 11980,12741 "/>
  <path class="fil7" d="M9400 6765c-16,-41 5,-86 46,-101 40,-15 86,6 101,46 15,41 -6,86 -46,101 -41,16 -86,-5 -101,-46z"/>
  <polygon class="fil7" points="8173,7263 9181,6888 9154,6816 8146,7191 "/>
  <path class="fil1" d="M7639 3340l3908 10485c17,44 -6,93 -49,109 -44,16 -92,-6 -109,-50l-3908 -10485c-16,-43 6,-92 50,-108 21,-8 44,-7 64,2 20,9 36,26 44,47z"/>
  <path class="fil7" d="M7639 3340l1247 3345 -158 59 -1247 -3345c-16,-43 6,-92 50,-108 21,-8 44,-7 64,2 20,9 36,26 44,47z"/>
  <path class="fil11" d="M21297 18185l2760 0c212,0 384,-172 384,-384l0 -2084c0,-212 -172,-384 -384,-384l-2760 0c-212,0 -384,172 -384,384l0 2084c0,212 172,384 384,384z"/>
  <path class="fil3" d="M22188 18185l2760 0c212,0 384,-172 384,-384l0 -2084c0,-212 -172,-384 -384,-384l-2760 0c-212,0 -384,172 -384,384l0 2084c0,212 172,384 384,384z"/>
  <path class="fil12" d="M23011 16550l348 0 0 -348c0,-116 94,-210 209,-210 116,0 209,94 209,210l0 348 349 0c115,0 209,94 209,209 0,116 -94,209 -209,209l-349 0 0 349c0,115 -93,209 -209,209 -115,0 -209,-94 -209,-209l0 -349 -348 0c-116,0 -210,-93 -210,-209 0,-115 94,-209 210,-209z"/>
  <path class="fil12" d="M6830 9843l12420 0c118,0 223,74 263,185l3004 8417 -12953 0c-92,0 -175,-59 -206,-146l-2853 -7993c-81,-226 86,-463 325,-463z"/>
  <path class="fil13" d="M7600 10381l11625 0c69,0 131,43 155,109l2526 7101c38,106 -41,218 -154,218l-11626 0c-69,0 -131,-43 -154,-109l-2526 -7101c-38,-106 41,-218 154,-218z"/>
  <path class="fil7" d="M6830 9843l3019 8456c31,87 114,146 206,146l-491 0c-92,0 -175,-59 -206,-146l-2853 -7993c-81,-226 86,-463 325,-463z"/>
  <path class="fil12" d="M9569 18445l17541 0c124,0 225,-101 225,-226 0,-125 -101,-226 -225,-226l-17541 0c-125,0 -226,101 -226,226 0,125 101,226 226,226z"/>
  <path class="fil7" d="M9569 17993l5775 0c124,0 225,101 225,226 0,125 -101,226 -225,226l-5775 0c-125,0 -226,-101 -226,-226 0,-125 101,-226 226,-226z"/>
  <path class="fil14" d="M16279 8276c-565,179 -1544,-303 -1544,-303 0,0 441,-331 490,-1018 2,-9 2,-19 3,-28 2,-51 3,-104 1,-159l155 125 580 467c0,0 -30,230 -42,614 92,50 165,106 221,155 92,82 136,147 136,147z"/>
  <path class="fil14" d="M14107 7900c0,0 1495,-236 2480,416 0,0 669,4374 86,4788 -582,414 -2566,0 -2566,0l0 -5204z"/>
  <path class="fil3" d="M16102 17809l-2701 0c0,0 314,-4609 403,-5731 73,-910 227,-3092 283,-3884 13,-185 20,-294 20,-294l645 -110 1108 1436c0,0 175,3828 169,4431 -6,603 70,2954 73,3350 4,395 0,802 0,802z"/>
  <path class="fil3" d="M15860 9226l242 8583 1273 0c0,0 -59,-5645 -63,-6164 -5,-519 138,-2753 -259,-3100 -332,-290 -1131,-571 -1131,-571l-62 1252z"/>
  <path class="fil3" d="M15930 7776c0,0 363,250 349,340 -14,89 -63,231 -63,231l-222 -45 187 132c0,0 -212,619 -321,792l70 -1450z"/>
  <path class="fil11" d="M13935 10332c159,-976 1994,467 1841,1748 -282,2368 -1484,5010 -2375,5729l534 -7477z"/>
  <path class="fil15" d="M15225 6955c-2,-17 -7,-26 -7,-26l10 -2 156 -34 580 467c0,0 -25,217 -43,615 -2,-2 -597,-332 -696,-1020z"/>
  <path class="fil14" d="M16200 7502c0,0 -1009,-28 -982,-656 27,-628 -84,-1055 560,-1063 646,-9 761,236 803,448 41,212 -119,1262 -381,1271z"/>
  <path class="fil7" d="M15218 6929c0,0 131,35 235,-104 104,-139 277,-673 506,-708 229,-34 531,136 628,39 142,-142 325,-374 325,-374 0,0 -1136,-809 -1588,-434 -454,374 -612,922 -106,1581z"/>
  <path class="fil11" d="M15959 17809c-2,-9 -89,-873 -64,-1625 11,-317 2,-691 -7,-1051 -12,-515 -40,-1011 2,-1335 71,-553 57,-3068 28,-3341 -29,-265 -1,-557 25,-645 26,-89 -88,-580 -90,-585l14 -3c5,20 129,503 101,597 -26,87 -65,371 -37,635 30,273 85,2787 14,3341 -41,323 -55,821 -43,1335 9,361 18,735 7,1053 -25,750 102,1615 103,1624l-53 0z"/>
  <path class="fil3" d="M18195 10905c0,0 342,588 -17,743 -358,155 -397,-9 -397,-9l414 -734z"/>
  <path class="fil3" d="M15331 11267c0,0 55,111 49,210 -7,105 -56,262 -56,262 0,0 -2109,449 -2519,73 -441,-403 376,-3431 726,-3728 150,-128 468,-205 761,-252 162,-26 316,-42 431,-52 118,-10 194,-14 194,-14l-47 176 -185 684 -216 798c0,0 -645,1327 -666,1452 -21,125 1528,391 1528,391z"/>
  <path class="fil11" d="M15625 9013c0,0 -538,-234 -925,-447 -252,-140 -381,-401 -408,-734 162,-26 316,-42 431,-52 18,6 29,10 29,10l118 152 755 1071z"/>
  <path class="fil3" d="M15860 9226l-838 -1599c0,0 -313,64 -418,162 0,0 53,481 95,587 0,0 162,-18 185,-5 0,0 -79,121 -102,135 0,0 729,339 1078,720z"/>
  <path class="fil11" d="M16003 10220c0,-37 30,-67 67,-67 37,0 67,30 67,67 0,37 -30,67 -67,67 -37,0 -67,-30 -67,-67z"/>
  <path class="fil11" d="M16003 13989c0,-37 30,-67 67,-67 37,0 67,30 67,67 0,37 -30,67 -67,67 -37,0 -67,-30 -67,-67z"/>
  <path class="fil11" d="M16036 12267c0,-37 31,-68 68,-68 37,0 67,31 67,68 0,37 -30,67 -67,67 -37,0 -68,-30 -68,-67z"/>
  <path class="fil11" d="M16036 15627c0,-37 31,-67 68,-67 37,0 67,30 67,67 0,37 -30,67 -67,67 -37,0 -68,-30 -68,-67z"/>
  <path class="fil7" d="M15292 8143c0,0 233,115 610,44l-42 1039 -568 -1083z"/>
  <polygon class="fil7" points="16765,9372 18948,9568 17616,11933 15562,11815 "/>
  <path class="fil1" d="M16966 9361c0,0 1,-334 186,-311 185,23 241,359 241,359l-427 -48z"/>
  <polygon class="fil7" points="18934,9538 16751,9342 15548,11785 15563,11816 16766,9373 18948,9568 "/>
  <path class="fil0" d="M17152 9050c0,0 308,151 199,636 -108,485 -244,752 -165,1039l1470 134c0,0 -160,-381 18,-767 177,-386 51,-827 -112,-866l-1410 -176z"/>
  <path class="fil14" d="M17887 11493c0,0 -224,-269 -178,-463 47,-194 213,-239 314,-170 102,68 250,225 222,346 -27,120 -246,343 -358,287z"/>
  <path class="fil14" d="M15220 11333c0,0 378,-167 552,-118 173,48 407,83 426,146 18,62 -126,293 -338,305 -213,12 -588,111 -678,0 -90,-111 38,-333 38,-333z"/>
  <path class="fil0" d="M6345 12089c0,0 2943,15 4911,911 0,0 -294,4722 -3539,5445 0,0 -2754,-1638 -1372,-6356z"/>
  <path class="fil3" d="M6618 12444c0,0 2675,146 4208,775 0,0 -158,3851 -2993,4763 0,0 -2239,-1105 -1215,-5538z"/>
  <polygon class="fil14" points="9563,14660 8780,14516 8921,13753 8203,13620 8063,14384 7319,14247 7186,14964 7931,15101 7790,15865 8507,15997 8648,15233 9431,15377 "/>
  <polygon class="fil7" points="14664,10153 15514,10153 15514,9658 14664,9658 "/>
  <polygon class="fil7" points="15041,9726 15137,9726 15137,9548 15041,9548 "/>
  <polygon class="fil16" points="14661,10153 14669,10153 14669,9658 14661,9658 "/>
  <polygon class="fil6" points="14728,10051 14924,10051 14924,9802 14728,9802 "/>
  <polygon class="fil6" points="14958,9856 15450,9856 15450,9802 14958,9802 "/>
  <polygon class="fil6" points="14958,9953 15450,9953 15450,9900 14958,9900 "/>
  <polygon class="fil6" points="14958,10051 15450,10051 15450,9997 14958,9997 "/>
  <path class="fil1" d="M22454 11967l3675 0c85,0 155,-69 155,-155l0 -1815c0,-85 -70,-155 -155,-155l-3675 0c-86,0 -156,70 -156,155l0 1815c0,86 70,155 156,155z"/>
  <path class="fil14" d="M24700 10332c288,-49 443,251 443,251 0,0 155,-300 442,-251 288,49 371,337 293,539 -77,202 -735,734 -735,734 0,0 -658,-532 -736,-734 -77,-202 6,-490 293,-539z"/>
  <polygon class="fil0" points="25294,11121 25321,10895 25086,10895 25086,10770 24963,11120 24963,10874 24838,10874 24759,11107 24699,10751 24608,10932 24596,10926 24705,10708 24763,11052 24829,10860 24977,10860 24977,11039 25099,10690 25099,10882 25337,10882 25318,11038 25476,10699 25476,10876 25618,10876 25618,10972 25677,10836 25690,10841 25605,11039 25605,10890 25463,10890 25463,10760 "/>
  <path class="fil11" d="M22714 10533l1332 0c36,0 66,-30 66,-66 0,-36 -30,-66 -66,-66l-1332 0c-36,0 -65,30 -65,66 0,36 29,66 65,66z"/>
  <path class="fil11" d="M22714 10804l1332 0c36,0 66,-29 66,-66 0,-36 -30,-65 -66,-65l-1332 0c-36,0 -65,29 -65,65 0,37 29,66 65,66z"/>
  <path class="fil11" d="M22714 11106l1332 0c36,0 66,-30 66,-66 0,-36 -30,-65 -66,-65l-1332 0c-36,0 -65,29 -65,65 0,36 29,66 65,66z"/>
  <path class="fil11" d="M22714 11408l1332 0c36,0 66,-30 66,-66 0,-36 -30,-65 -66,-65l-1332 0c-36,0 -65,29 -65,65 0,36 29,66 65,66z"/>
  <path class="fil0" d="M10599 4152l3713 0c86,0 156,-70 156,-156l0 -1814c0,-86 -70,-156 -156,-156l-3713 0c-85,0 -155,70 -155,156l0 1814c0,86 70,156 155,156z"/>
  <path class="fil11" d="M11239 2717l1331 0c36,0 66,-29 66,-66 0,-36 -30,-65 -66,-65l-1331 0c-37,0 -66,29 -66,65 0,37 29,66 66,66z"/>
  <path class="fil11" d="M11239 2989l1331 0c36,0 66,-30 66,-66 0,-36 -30,-66 -66,-66l-1331 0c-37,0 -66,30 -66,66 0,36 29,66 66,66z"/>
  <path class="fil11" d="M11239 3291l1331 0c36,0 66,-30 66,-66 0,-36 -30,-66 -66,-66l-1331 0c-37,0 -66,30 -66,66 0,36 29,66 66,66z"/>
  <path class="fil11" d="M11239 3592l1331 0c36,0 66,-29 66,-65 0,-36 -30,-66 -66,-66l-1331 0c-37,0 -66,30 -66,66 0,36 29,65 66,65z"/>
  <path class="fil14" d="M13946 3370c31,144 -1,391 -323,492 -323,102 -560,-151 -587,-400 -27,-249 488,-1169 488,-1169 0,0 360,788 422,1077z"/>
  <path class="fil0" d="M13311 3354l143 0 0 -143c0,-22 18,-41 41,-41 23,0 42,19 42,41l0 143 142 0c23,0 41,18 41,41 0,23 -18,42 -41,42l-142 0 0 142c0,22 -19,41 -42,41 -23,0 -41,-19 -41,-41l0 -142 -143 0c-22,0 -41,-19 -41,-42 0,-23 19,-41 41,-41z"/>
  <path class="fil7" d="M28159 18511l-27341 0c-22,0 -39,-17 -39,-39l0 -10c0,-22 17,-39 39,-39l27341 0c22,0 39,17 39,39l0 10c0,22 -17,39 -39,39z"/>
 </g>
</svg>
