<?xml version="1.0" encoding="UTF-8"?>
<!DOCTYPE svg PUBLIC "-//W3C//DTD SVG 1.1//EN" "http://www.w3.org/Graphics/SVG/1.1/DTD/svg11.dtd">
<!-- Creator: CorelDRAW X8 -->
<svg xmlns="http://www.w3.org/2000/svg" xml:space="preserve" width="136.669mm" height="85.4182mm" version="1.1" style="shape-rendering:geometricPrecision; text-rendering:geometricPrecision; image-rendering:optimizeQuality; fill-rule:evenodd; clip-rule:evenodd"
viewBox="0 0 13667 8542"
 xmlns:xlink="http://www.w3.org/1999/xlink">
 <defs>
  <style type="text/css">
   <![CDATA[
    .fil45 {fill:none}
    .fil0 {fill:#F7F7F7}
    .fil32 {fill:#FEFEFE;fill-rule:nonzero}
    .fil3 {fill:#FFFEF6;fill-rule:nonzero}
    .fil19 {fill:#FDDB71;fill-rule:nonzero}
    .fil20 {fill:#FAC64A;fill-rule:nonzero}
    .fil39 {fill:#F8B600;fill-rule:nonzero}
    .fil37 {fill:#F6B787;fill-rule:nonzero}
    .fil4 {fill:#F49F0A;fill-rule:nonzero}
    .fil21 {fill:#F39811;fill-rule:nonzero}
    .fil18 {fill:#FCFCEC;fill-rule:nonzero}
    .fil15 {fill:#FBFCFC;fill-rule:nonzero}
    .fil5 {fill:#E96623;fill-rule:nonzero}
    .fil24 {fill:#EDA380;fill-rule:nonzero}
    .fil36 {fill:#EC9A68;fill-rule:nonzero}
    .fil12 {fill:#F1F8F7;fill-rule:nonzero}
    .fil8 {fill:#E68B1C;fill-rule:nonzero}
    .fil1 {fill:#EFF8FC;fill-rule:nonzero}
    .fil17 {fill:#EFE3BC;fill-rule:nonzero}
    .fil34 {fill:#E8E6F2;fill-rule:nonzero}
    .fil14 {fill:#E8E8E7;fill-rule:nonzero}
    .fil27 {fill:#E4F2F6;fill-rule:nonzero}
    .fil29 {fill:#DA8566;fill-rule:nonzero}
    .fil40 {fill:#D45C28;fill-rule:nonzero}
    .fil41 {fill:#D45A29;fill-rule:nonzero}
    .fil30 {fill:#DEDAEC;fill-rule:nonzero}
    .fil42 {fill:#C0542B;fill-rule:nonzero}
    .fil6 {fill:#CCDBF0;fill-rule:nonzero}
    .fil16 {fill:#CDCCCA;fill-rule:nonzero}
    .fil28 {fill:#B8DBE1;fill-rule:nonzero}
    .fil43 {fill:#A6DBF1;fill-rule:nonzero}
    .fil44 {fill:#7CCBDF;fill-rule:nonzero}
    .fil22 {fill:#80C481;fill-rule:nonzero}
    .fil9 {fill:#5AC1CE;fill-rule:nonzero}
    .fil26 {fill:#47BDD1;fill-rule:nonzero}
    .fil11 {fill:#51B568;fill-rule:nonzero}
    .fil2 {fill:#2DAF57;fill-rule:nonzero}
    .fil38 {fill:#1EADB7;fill-rule:nonzero}
    .fil10 {fill:#17A6B0;fill-rule:nonzero}
    .fil7 {fill:#039C46;fill-rule:nonzero}
    .fil13 {fill:#098844;fill-rule:nonzero}
    .fil23 {fill:#2C2B50;fill-rule:nonzero}
    .fil33 {fill:#302E5C;fill-rule:nonzero}
    .fil35 {fill:#2C2E5C;fill-rule:nonzero}
    .fil31 {fill:#2C2F63;fill-rule:nonzero}
    .fil25 {fill:#2C2F63;fill-rule:nonzero}
   ]]>
  </style>
   <clipPath id="id0">
    <path d="M0 0l13667 0 0 8542 -13667 0 0 -8542z"/>
   </clipPath>
 </defs>
 <g id="Layer_x0020_1">
  <metadata id="CorelCorpID_0Corel-Layer"/>
  <polygon class="fil0" points="0,0 13667,0 13667,8542 0,8542 "/>
  <g style="clip-path:url(#id0)">
   <g id="_2617250981680">
    <g>
     <path id="1" class="fil1" d="M9061 845l-54 0c-37,-197 -210,-347 -418,-347 -207,0 -380,150 -417,347l-54 0c-231,0 -417,186 -417,416 0,231 186,417 417,417l943 0c231,0 417,-186 417,-417 0,-230 -186,-416 -417,-416z"/>
     <path class="fil1" d="M3686 1889l-6 0c-22,-137 -140,-241 -283,-241 -143,0 -262,104 -284,241l-6 0c-141,0 -255,107 -255,239 0,132 114,239 255,239l579 0c141,0 255,-107 255,-239 0,-132 -114,-239 -255,-239z"/>
     <path class="fil2" d="M11064 4446l-1309 0c0,0 -145,168 -145,284l0 1462c0,93 76,169 169,169l1261 0c93,0 169,-76 169,-169l0 -1462c0,-116 -145,-284 -145,-284z"/>
     <path class="fil3" d="M10965 5934l-1110 0c-61,0 -111,-50 -111,-110l0 -751c0,-60 50,-110 111,-110l1110 0c61,0 110,50 110,110l0 751c0,60 -49,110 -110,110z"/>
     <path class="fil4" d="M11099 4532l-1379 0c-33,0 -60,-27 -60,-61l0 -264c0,-33 27,-60 60,-60l1379 0c33,0 60,27 60,60l0 264c0,34 -27,61 -60,61z"/>
     <polygon class="fil5" points="10372,5359 10222,5359 10222,5208 10024,5208 10024,5359 9873,5359 9873,5557 10024,5557 10024,5707 10222,5707 10222,5557 10372,5557 "/>
     <polygon class="fil6" points="10458,5641 11005,5641 11005,5546 10458,5546 "/>
     <polygon class="fil6" points="10458,5501 11005,5501 11005,5406 10458,5406 "/>
     <polygon class="fil6" points="10458,5360 11005,5360 11005,5265 10458,5265 "/>
     <polygon class="fil6" points="10458,5219 11005,5219 11005,5124 10458,5124 "/>
     <polygon class="fil6" points="10458,5777 11005,5777 11005,5682 10458,5682 "/>
     <path class="fil7" d="M9779 6361l1261 0c6,0 11,0 17,-1 -116,-115 -362,-194 -648,-194 -285,0 -531,79 -647,194 6,1 11,1 17,1z"/>
     <path class="fil8" d="M9927 4364c0,-79 34,-153 93,-217l-300 0c-33,0 -60,27 -60,60l0 264c0,34 27,61 60,61l262 0c-36,-52 -55,-109 -55,-168z"/>
     <path class="fil9" d="M8384 4075c-9,-399 -131,-488 -283,-575 -71,-40 -240,-174 -283,-243 -73,-120 -16,-480 -16,-480l-807 0c0,0 63,375 -16,495 -44,67 -212,188 -283,228 -152,87 -274,176 -283,575 -7,339 65,2176 65,2176l1841 0c0,0 72,-1837 65,-2176z"/>
     <path class="fil10" d="M7746 3033l-691 0c-47,0 -86,-38 -86,-86l0 -127c0,-47 39,-86 86,-86l691 0c48,0 86,39 86,86l0 127c0,48 -38,86 -86,86z"/>
     <path class="fil11" d="M7746 2781l-691 0c-47,0 -86,-39 -86,-86l0 -127c0,-48 39,-86 86,-86l691 0c48,0 86,38 86,86l0 127c0,47 -38,86 -86,86z"/>
     <polygon class="fil12" points="8167,5163 6628,5163 6603,3933 8216,3933 "/>
     <polygon class="fil11" points="7822,4384 7569,4384 7569,4131 7243,4131 7242,4383 6990,4383 6989,4710 7242,4710 7242,4963 7569,4963 7569,4711 7822,4711 "/>
     <path class="fil13" d="M7778 2792l-758 0c-36,0 -65,-29 -65,-65l0 -82 887 0 0 82c0,36 -28,65 -64,65z"/>
     <path class="fil10" d="M6478 6251l1841 0c0,0 0,-2 0,-6 -217,-100 -547,-164 -918,-164 -373,0 -706,65 -923,167l0 3z"/>
     <path class="fil14" d="M4086 878l2366 0c157,0 285,128 285,286l0 2339c0,158 -128,285 -285,285l-2366 0c-158,0 -286,-127 -286,-285l0 -2339c0,-158 128,-286 286,-286z"/>
     <path class="fil15" d="M5254 1152l34 0c31,0 57,25 57,57l0 2235c0,31 -26,57 -58,57l-33 0c-32,0 -57,-26 -57,-57l0 -2235c0,-32 25,-57 57,-57z"/>
     <path class="fil16" d="M4475 1556c0,122 -99,221 -221,221 -121,0 -220,-99 -220,-221 0,-121 99,-220 220,-220 122,0 221,99 221,220z"/>
     <path class="fil17" d="M4251 1742c-103,0 -186,-84 -185,-186 0,-103 83,-186 186,-185 102,0 185,83 185,186 0,102 -84,185 -186,185z"/>
     <path class="fil18" d="M4263 1740c-98,0 -178,-80 -178,-179 0,-99 81,-179 180,-179 99,1 178,81 178,180 0,99 -81,179 -180,178z"/>
     <path class="fil17" d="M4278 1738l1 -356c-5,-1 -10,-1 -15,-1 -8,0 -16,1 -24,2l-1 354c7,1 15,2 23,2 6,0 11,0 16,-1z"/>
     <path class="fil16" d="M4475 2368c0,122 -99,220 -221,220 -121,0 -220,-98 -220,-220 0,-122 99,-220 220,-220 122,0 221,98 221,220z"/>
     <path class="fil17" d="M4251 2554c-103,-1 -186,-84 -185,-187 0,-102 83,-185 186,-185 102,1 185,84 185,187 0,102 -84,185 -186,185z"/>
     <path class="fil18" d="M4263 2552c-98,0 -178,-81 -178,-180 0,-99 81,-178 180,-178 99,0 178,81 178,180 0,98 -81,178 -180,178z"/>
     <path class="fil17" d="M4278 2550l1 -357c-5,0 -10,0 -15,0 -8,-1 -16,0 -24,1l-1 355c7,1 15,2 23,2 6,0 11,-1 16,-1z"/>
     <path class="fil16" d="M4475 3183c0,122 -99,220 -221,220 -121,0 -220,-98 -220,-220 0,-122 99,-220 220,-220 122,0 221,98 221,220z"/>
     <path class="fil17" d="M4251 3369c-103,-1 -186,-84 -185,-187 0,-102 83,-185 186,-185 102,1 185,84 185,187 0,102 -84,185 -186,185z"/>
     <path class="fil18" d="M4263 3367c-98,0 -178,-81 -178,-180 0,-99 81,-178 180,-178 99,0 178,81 178,180 0,99 -81,178 -180,178z"/>
     <path class="fil17" d="M4278 3365l1 -357c-5,0 -10,0 -15,0 -8,0 -16,0 -24,1l-1 355c7,1 15,2 23,2 6,0 11,-1 16,-1z"/>
     <path class="fil16" d="M5084 1556c0,122 -99,221 -221,221 -121,0 -220,-99 -220,-221 0,-121 99,-220 220,-220 122,0 221,99 221,220z"/>
     <path class="fil17" d="M4860 1742c-103,0 -186,-84 -185,-186 0,-103 83,-186 186,-185 103,0 185,83 185,186 0,102 -84,185 -186,185z"/>
     <path class="fil18" d="M4872 1740c-98,0 -178,-80 -178,-179 0,-99 81,-179 180,-179 99,1 179,81 178,180 0,99 -81,179 -180,178z"/>
     <path class="fil17" d="M4887 1738l1 -356c-5,-1 -10,-1 -15,-1 -8,0 -16,1 -24,2l-1 354c8,1 15,2 24,2 5,0 10,0 15,-1z"/>
     <path class="fil16" d="M5084 2368c0,122 -99,220 -221,220 -121,0 -220,-98 -220,-220 0,-122 99,-220 220,-220 122,0 221,98 221,220z"/>
     <path class="fil17" d="M4860 2554c-103,-1 -186,-84 -185,-187 0,-102 83,-185 186,-185 103,1 185,84 185,187 0,102 -84,185 -186,185z"/>
     <path class="fil18" d="M4872 2552c-98,0 -178,-81 -178,-180 0,-99 81,-178 180,-178 99,0 179,81 178,180 0,98 -81,178 -180,178z"/>
     <path class="fil17" d="M4887 2550l1 -357c-5,0 -10,0 -15,0 -8,-1 -16,0 -24,1l-1 355c8,1 15,2 24,2 5,0 10,-1 15,-1z"/>
     <path class="fil16" d="M5084 3183c0,122 -99,220 -221,220 -121,0 -220,-98 -220,-220 0,-122 99,-220 220,-220 122,0 221,98 221,220z"/>
     <path class="fil17" d="M4860 3369c-103,-1 -186,-84 -185,-187 0,-102 83,-185 186,-185 103,1 185,84 185,187 0,102 -84,185 -186,185z"/>
     <path class="fil18" d="M4872 3367c-98,0 -178,-81 -178,-180 0,-99 81,-178 180,-178 99,0 179,81 178,180 0,99 -81,178 -180,178z"/>
     <path class="fil17" d="M4887 3365l1 -357c-5,0 -10,0 -15,0 -8,0 -16,0 -24,1l-1 355c8,1 15,2 24,2 5,0 10,-1 15,-1z"/>
     <path class="fil16" d="M5970 1556c0,122 -99,221 -221,221 -121,0 -220,-99 -220,-221 0,-121 99,-220 220,-220 122,0 221,99 221,220z"/>
     <path class="fil17" d="M5746 1742c-103,0 -186,-84 -185,-186 0,-103 83,-186 186,-185 102,0 185,83 185,186 0,102 -84,185 -186,185z"/>
     <path class="fil18" d="M5758 1740c-99,0 -178,-80 -178,-179 0,-99 81,-179 180,-179 99,1 178,81 178,180 0,99 -81,179 -180,178z"/>
     <path class="fil17" d="M5773 1738l1 -356c-5,-1 -10,-1 -15,-1 -8,0 -16,1 -24,2l-1 354c7,1 15,2 23,2 6,0 11,0 16,-1z"/>
     <path class="fil16" d="M5970 2368c0,122 -99,220 -221,220 -121,0 -220,-98 -220,-220 0,-122 99,-220 220,-220 122,0 221,98 221,220z"/>
     <path class="fil17" d="M5746 2554c-103,-1 -186,-84 -185,-187 0,-102 83,-185 186,-185 102,1 185,84 185,187 0,102 -84,185 -186,185z"/>
     <path class="fil18" d="M5758 2552c-99,0 -178,-81 -178,-180 0,-99 81,-178 180,-178 99,0 178,81 178,180 0,98 -81,178 -180,178z"/>
     <path class="fil17" d="M5773 2550l1 -357c-5,0 -10,0 -15,0 -8,-1 -16,0 -24,1l-1 355c7,1 15,2 23,2 6,0 11,-1 16,-1z"/>
     <path class="fil16" d="M5970 3183c0,122 -99,220 -221,220 -121,0 -220,-98 -220,-220 0,-122 99,-220 220,-220 122,0 221,98 221,220z"/>
     <path class="fil17" d="M5746 3369c-103,-1 -186,-84 -185,-187 0,-102 83,-185 186,-185 102,1 185,84 185,187 0,102 -84,185 -186,185z"/>
     <path class="fil18" d="M5758 3367c-99,0 -178,-81 -178,-180 0,-99 81,-178 180,-178 99,0 178,81 178,180 0,99 -81,178 -180,178z"/>
     <path class="fil17" d="M5773 3365l1 -357c-5,0 -10,0 -15,0 -8,0 -16,0 -24,1l-1 355c7,1 15,2 23,2 6,0 11,-1 16,-1z"/>
     <path class="fil16" d="M6579 1556c0,122 -99,221 -221,221 -121,0 -220,-99 -220,-221 0,-121 99,-220 220,-220 122,0 221,99 221,220z"/>
     <path class="fil17" d="M6355 1742c-103,0 -186,-84 -185,-186 0,-103 83,-186 186,-185 103,0 185,83 185,186 0,102 -84,185 -186,185z"/>
     <path class="fil18" d="M6367 1740c-98,0 -178,-80 -178,-179 0,-99 81,-179 180,-179 99,1 178,81 178,180 0,99 -81,179 -180,178z"/>
     <path class="fil17" d="M6382 1738l1 -356c-5,-1 -10,-1 -15,-1 -8,0 -16,1 -24,2l-1 354c8,1 15,2 23,2 6,0 11,0 16,-1z"/>
     <path class="fil16" d="M6579 2368c0,122 -99,220 -221,220 -121,0 -220,-98 -220,-220 0,-122 99,-220 220,-220 122,0 221,98 221,220z"/>
     <path class="fil17" d="M6355 2554c-103,-1 -186,-84 -185,-187 0,-102 83,-185 186,-185 103,1 185,84 185,187 0,102 -84,185 -186,185z"/>
     <path class="fil18" d="M6367 2552c-98,0 -178,-81 -178,-180 0,-99 81,-178 180,-178 99,0 178,81 178,180 0,98 -81,178 -180,178z"/>
     <path class="fil17" d="M6382 2550l1 -357c-5,0 -10,0 -15,0 -8,-1 -16,0 -24,1l-1 355c8,1 15,2 23,2 6,0 11,-1 16,-1z"/>
     <path class="fil16" d="M6579 3183c0,122 -99,220 -221,220 -121,0 -220,-98 -220,-220 0,-122 99,-220 220,-220 122,0 221,98 221,220z"/>
     <path class="fil17" d="M6355 3369c-103,-1 -186,-84 -185,-187 0,-102 83,-185 186,-185 103,1 185,84 185,187 0,102 -84,185 -186,185z"/>
     <path class="fil18" d="M6367 3367c-98,0 -178,-81 -178,-180 0,-99 81,-178 180,-178 99,0 178,81 178,180 0,99 -81,178 -180,178z"/>
     <path class="fil17" d="M6382 3365l1 -357c-5,0 -10,0 -15,0 -8,0 -16,0 -24,1l-1 355c8,1 15,2 23,2 6,0 11,-1 16,-1z"/>
     <path class="fil19" d="M8992 1112l-116 0c-232,0 -419,-19 -419,-44l0 -173c0,-24 187,-79 419,-79l116 0c232,0 419,55 419,79l0 173c0,25 -187,44 -419,44z"/>
     <path class="fil13" d="M9381 3188l-895 0c-95,0 -173,-59 -173,-132l0 -88 1240 0 0 88c0,73 -77,132 -172,132z"/>
     <path class="fil2" d="M9551 1502l2 0c0,0 -104,-33 -156,-77 -53,-45 -44,-166 -44,-166l-843 0c0,0 9,121 -43,166 -52,44 -157,77 -157,77l2 0c-77,26 -131,86 -131,155l0 1272c0,94 99,170 222,170l1057 0c123,0 223,-76 223,-170l0 -1272c0,-69 -54,-129 -132,-155z"/>
     <path class="fil13" d="M9351 1337c-274,69 -554,55 -836,0l0 -166 836 0 0 166z"/>
     <path class="fil20" d="M9375 1226l-872 0c-45,0 -82,-29 -82,-64l0 -232c0,-35 37,-63 82,-63l872 0c46,0 83,28 83,63l0 232c0,35 -37,64 -83,64z"/>
     <path class="fil21" d="M8502 1191c-19,0 -35,-9 -35,-20l0 -234c0,-11 16,-20 35,-20 19,0 35,9 35,20l0 234c0,11 -16,20 -35,20z"/>
     <path class="fil21" d="M8646 1191c-19,0 -35,-9 -35,-20l0 -234c0,-11 16,-20 35,-20 19,0 35,9 35,20l0 234c0,11 -16,20 -35,20z"/>
     <path class="fil21" d="M8790 1191c-19,0 -34,-9 -34,-20l0 -234c0,-11 15,-20 34,-20 20,0 35,9 35,20l0 234c0,11 -15,20 -35,20z"/>
     <path class="fil21" d="M8935 1191c-19,0 -35,-9 -35,-20l0 -234c0,-11 16,-20 35,-20 19,0 35,9 35,20l0 234c0,11 -16,20 -35,20z"/>
     <path class="fil21" d="M9079 1191c-19,0 -35,-9 -35,-20l0 -234c0,-11 16,-20 35,-20 19,0 35,9 35,20l0 234c0,11 -16,20 -35,20z"/>
     <path class="fil21" d="M9224 1191c-20,0 -35,-9 -35,-20l0 -234c0,-11 15,-20 35,-20 19,0 34,9 34,20l0 234c0,11 -15,20 -34,20z"/>
     <path class="fil21" d="M9368 1191c-19,0 -35,-9 -35,-20l0 -234c0,-11 16,-20 35,-20 19,0 35,9 35,20l0 234c0,11 -16,20 -35,20z"/>
     <polygon class="fil22" points="8178,2914 9678,2914 9678,1816 8178,1816 "/>
     <polygon class="fil18" points="9028,2837 9683,2837 9683,1913 9028,1913 "/>
     <path class="fil23" d="M8970 4756l0 0c-147,0 -266,-120 -266,-267l0 -523c0,-147 119,-267 266,-267 147,0 266,120 266,267l0 523c0,147 -119,267 -266,267z"/>
     <polygon class="fil24" points="9804,7516 9897,7707 9995,7663 9925,7472 "/>
     <path class="fil25" d="M9624 7966c0,0 -22,-65 34,-105 60,-43 195,-115 214,-169 3,8 103,-48 103,-48 0,0 104,9 124,128 -169,127 -475,194 -475,194z"/>
     <polygon class="fil24" points="8700,7600 8721,7811 8828,7805 8828,7600 "/>
     <path class="fil26" d="M8641 5932l-45 724 35 1062c0,0 150,44 238,1 8,-15 11,-1067 11,-1067l128 -751 177 696 619 1055 177 -97 -520 -1079 -117 -724 -689 39 -14 141z"/>
     <path class="fil27" d="M9390 3261l-185 64 213 571 -249 441c0,0 -135,5 -228,5 -94,0 -161,0 -161,0l-322 -508 177 -531 -112 -63 -283 619 400 675 -58 1443c0,0 561,146 878,-10 -11,-16 -156,-1344 -156,-1344l343 -701 -257 -661z"/>
     <polygon class="fil28" points="8884,4353 8894,4799 9047,4361 "/>
     <path class="fil29" d="M8895 4240l16 179c0,0 49,29 101,-2l-4 -194 -113 17z"/>
     <path class="fil30" d="M9196 8043c-548,0 -973,-26 -973,-62 0,-39 491,-74 1098,-78 43,0 85,0 126,0 61,0 121,0 178,1 -11,32 -1,62 -1,62 0,0 92,-20 202,-59 353,9 594,31 594,58 0,39 -491,73 -1098,78 -43,0 -85,0 -126,0z"/>
     <path class="fil31" d="M9624 7966c0,0 -10,-30 1,-62 70,0 138,2 201,3 -110,39 -202,59 -202,59z"/>
     <path class="fil24" d="M9283 3288c0,0 -31,-160 16,-181 47,-21 36,78 36,78l166 -16c0,0 26,-99 63,-88 36,10 -26,140 -26,140l-148 40 -107 27z"/>
     <path class="fil24" d="M8635 3303c0,0 139,-104 90,-142 -49,-39 -91,34 -91,34l-181 -41c0,0 -73,-94 -109,-63 -37,31 83,125 83,125l208 87z"/>
     <polygon class="fil32" points="8894,4799 8780,4342 8884,4353 "/>
     <polygon class="fil32" points="9143,4374 9029,4353 8894,4799 "/>
     <path class="fil24" d="M8755 3908c0,10 -41,266 63,374 187,24 241,-106 241,-106 0,0 91,-15 84,-74 -7,-59 -71,-40 -71,-40 0,0 -194,-91 -202,-181 3,23 -115,27 -115,27z"/>
     <path class="fil32" d="M9313 5552l-229 34c0,0 14,180 73,232 59,52 166,7 187,-45 21,-52 -31,-221 -31,-221z"/>
     <path class="fil28" d="M8899 4882c1,-10 30,1133 30,1133 0,0 -92,-666 -30,-1133z"/>
     <path class="fil25" d="M8375 7960c0,0 2,-69 68,-87 71,-20 223,-41 260,-84 0,8 113,-9 113,-9 0,0 94,44 72,162 -203,61 -513,18 -513,18z"/>
     <polygon class="fil29" points="7572,6322 7600,6463 7707,6442 7677,6300 "/>
     <path class="fil33" d="M7399 6475c32,-18 185,-53 185,-53 0,0 93,17 124,-18 5,9 30,62 24,96 -28,6 -69,13 -69,13l-11 -22 -3 22 -277 43c0,0 -4,-63 27,-81z"/>
     <polygon class="fil29" points="6872,6349 6859,6491 6968,6502 6978,6356 "/>
     <path class="fil23" d="M7115 3136c0,0 -52,-31 -14,-86 38,-56 104,14 163,20 59,7 170,56 166,125 -3,69 -62,239 -166,270 -87,21 -149,-329 -149,-329z"/>
     <polygon class="fil25" points="6937,4815 6890,5578 6845,6400 6998,6413 7087,5630 7167,4984 7279,5644 7551,6400 7717,6337 7490,5596 7399,4815 "/>
     <path class="fil34" d="M6873 6600c-254,-9 -430,-26 -430,-44 0,-23 292,-40 667,-40 29,0 57,0 87,0 61,1 120,2 177,3 -3,16 -3,31 -2,36 -27,-1 -54,-1 -80,-1 -145,0 -286,13 -419,46zm916 -6c-138,-20 -275,-34 -410,-39l194 -30c225,9 377,25 377,42 0,10 -60,20 -161,27z"/>
     <path class="fil30" d="M7283 6607c-29,0 -58,0 -87,0 -116,-1 -225,-3 -323,-7 133,-33 274,-46 419,-46 26,0 53,0 80,1 0,1 0,1 0,1l7 -1c135,5 272,19 410,39 -122,8 -301,13 -506,13z"/>
     <path class="fil35" d="M7372 6556c0,0 0,0 0,-1 -1,-5 -1,-20 2,-36 71,1 138,4 199,6l-194 30 -7 1z"/>
     <path class="fil36" d="M6731 3437c0,0 80,70 128,73 -7,0 -66,190 -66,190 0,0 -62,-38 -93,-52 3,0 59,-117 31,-211z"/>
     <path class="fil27" d="M7250 3538c0,0 -225,17 -377,-52 -7,-11 -73,155 -80,214 21,49 170,87 170,87l-88 1131c0,0 448,49 617,-31 18,-41 -34,-758 -34,-758 0,0 83,-270 55,-387 -28,-118 -263,-204 -263,-204z"/>
     <path class="fil33" d="M6660 6455c35,-10 192,-10 192,-10 0,0 87,38 125,10 3,10 15,67 1,99 -28,0 -70,-3 -70,-3l-5 -23 -8 20 -280 -20c0,0 10,-63 45,-73z"/>
     <path class="fil37" d="M6863 3877c-177,-80 -232,-166 -232,-166 0,0 17,-104 -18,-115 -34,-10 -31,66 -31,66l-121 -110c0,0 -97,44 -83,103 21,49 156,128 187,166 31,38 201,225 405,263 204,38 256,-20 256,-20l-66 -177c0,0 -121,69 -297,-10z"/>
     <path class="fil29" d="M7124 3584l-5 -166 166 -46 10 202c0,0 -104,47 -171,10z"/>
     <path class="fil24" d="M7108 3107c0,0 -72,119 -104,322 0,5 141,62 141,62l103 -88c0,0 37,46 83,-11 47,-57 -20,-93 -20,-93 0,0 -78,-47 -52,-135 -78,-5 -151,-57 -151,-57z"/>
     <path class="fil32" d="M7316 3790l-190 94 100 200 190 -103c0,0 38,-45 18,-115 -21,-69 -118,-76 -118,-76z"/>
     <polygon class="fil32" points="7093,3797 7295,3553 7404,3616 7248,3709 7316,3770 "/>
     <polygon class="fil32" points="7124,3543 7093,3797 7025,3662 7072,3647 7036,3532 "/>
     <path class="fil32" d="M7381 4524l-223 0c0,0 -16,223 114,234 130,10 109,-234 109,-234z"/>
     <path class="fil34" d="M3129 6646c-18,0 -35,0 -52,0 -526,-2 -953,-29 -953,-60 1,-31 399,-54 901,-54 17,0 35,0 52,0 526,1 952,28 952,60 0,30 -399,54 -900,54z"/>
     <path class="fil23" d="M3353 3288c0,0 77,-96 73,-214 -3,-118 -280,-197 -380,-149 -101,49 -80,402 -125,450 -45,48 -118,52 -139,7 -79,131 7,343 191,353 183,10 346,-114 346,-114l34 -333z"/>
     <polygon class="fil24" points="2429,6152 2284,6277 2374,6360 2492,6228 "/>
     <path class="fil33" d="M2426 6315l-82 -90c0,0 -81,3 -122,72 38,54 207,229 232,246 24,17 46,-27 46,-27 0,0 -81,-154 -74,-201z"/>
     <polygon class="fil24" points="3432,6349 3429,6540 3551,6528 3531,6353 "/>
     <path class="fil33" d="M3552 6460l-122 1c0,0 -51,63 -27,140 65,7 308,-3 337,-10 29,-6 11,-53 11,-53 0,0 -169,-42 -199,-78z"/>
     <polygon class="fil38" points="3540,5102 3589,5597 3642,6409 3345,6415 3325,5637 3232,5368 3222,5088 "/>
     <polygon class="fil26" points="3014,5098 2983,5521 2315,6161 2494,6322 3239,5635 3364,5095 "/>
     <polygon class="fil24" points="3802,3325 3506,3543 3615,3662 3802,3491 "/>
     <path class="fil27" d="M3610 3439l83 177 -223 184 -42 194 156 1122 -623 0 -57 -1397c0,0 41,-137 96,-162 54,-25 179,-61 179,-61l187 55 244 -112z"/>
     <path class="fil32" d="M3342 4734l-213 10c0,0 -10,244 125,239 135,-5 88,-249 88,-249z"/>
     <path class="fil24" d="M3220 3279c0,0 -71,-53 -95,-1 -24,52 42,80 42,80l-35 154 140 98 2 -176c0,0 55,28 107,17 52,-163 -14,-329 -14,-329 0,0 -17,96 -147,157z"/>
     <path class="fil24" d="M3329 3842c7,11 166,113 166,113l378 -182c0,0 62,-107 79,-114 17,-7 -28,79 -28,79 0,0 108,-100 129,-93 20,7 -80,93 -80,93 0,0 114,-79 125,-65 10,13 -94,83 -94,83 0,0 104,-49 114,-31 11,17 -100,58 -100,58 0,0 83,-10 80,7 -4,18 -97,24 -97,24 0,0 -19,27 -86,29 -4,10 -423,266 -423,266l-222 -125 59 -142z"/>
     <path class="fil32" d="M3378 3825l-135 193c0,0 -176,-109 -207,-187 -31,-78 45,-230 142,-178 97,53 200,172 200,172z"/>
     <path class="fil39" d="M5121 5805l-528 -432c-185,-151 -213,-425 -61,-611 152,-185 425,-213 611,-61l528 432 -550 672z"/>
     <path class="fil5" d="M5121 5805l528 432c186,151 460,124 611,-62 152,-185 125,-459 -61,-611l-528 -431 -550 672z"/>
     <path class="fil4" d="M4707 5247c-168,-135 -209,-369 -108,-550 -24,19 -47,41 -67,65 -152,186 -124,460 61,611l528 432 112 -137 -526 -421z"/>
     <path class="fil40" d="M5771 6099l-532 -426 432 -540 0 0 -550 672 528 432c186,151 460,124 611,-62 19,-23 35,-47 48,-72 -155,120 -377,124 -537,-4z"/>
     <path class="fil34" d="M5131 6424c-628,0 -1137,-40 -1137,-88 0,-49 509,-89 1137,-89 198,0 385,4 547,11 74,52 160,77 246,77l0 0c65,0 130,-15 190,-44 97,13 153,28 153,45 0,48 -509,88 -1136,88z"/>
     <path class="fil41" d="M5924 6335c-86,0 -172,-25 -246,-77l0 0c74,52 160,77 246,77l0 0z"/>
     <path class="fil42" d="M5924 6335l0 0c-86,0 -172,-25 -246,-77 181,8 332,19 436,33 -60,29 -125,44 -190,44z"/>
     <path class="fil43" d="M4980 5894c0,247 -200,447 -446,447 -247,0 -447,-200 -447,-447 0,-246 200,-446 447,-446 246,0 446,200 446,446z"/>
     <path class="fil44" d="M4200 6111c-114,-219 -29,-488 190,-602 79,-41 165,-56 247,-48 -33,-8 -68,-13 -103,-13 -247,0 -447,200 -447,446 0,233 178,424 406,445 -122,-29 -231,-109 -293,-228z"/>
     <path class="fil44" d="M4498 5450l0 889c12,1 23,2 36,2 26,0 52,-3 77,-7l0 -879c-25,-4 -51,-7 -77,-7 -13,0 -24,1 -36,2z"/>
     <path class="fil39" d="M11033 6639l-312 1c-110,0 -199,-89 -199,-198 0,-110 88,-199 198,-199l312 -1 1 397z"/>
     <path class="fil5" d="M11033 6639l311 0c110,-1 199,-90 198,-199 0,-110 -89,-199 -198,-198l-312 0 1 397z"/>
     <path class="fil4" d="M10724 6562c-98,1 -181,-69 -197,-163 -3,14 -5,28 -5,43 0,109 89,198 199,198l312 -1 -1 -81 -308 4z"/>
     <path class="fil40" d="M11347 6555l-311 3 -4 -316 0 0 1 397 311 0c110,-1 199,-90 198,-199 0,-14 -1,-27 -4,-39 -20,87 -97,153 -191,154z"/>
    </g>
   </g>
  </g>
  <polygon class="fil45" points="0,0 13667,0 13667,8542 0,8542 "/>
 </g>
</svg>
