<?xml version="1.0" encoding="UTF-8"?>
<!DOCTYPE svg PUBLIC "-//W3C//DTD SVG 1.1//EN" "http://www.w3.org/Graphics/SVG/1.1/DTD/svg11.dtd">
<!-- Creator: CorelDRAW X8 -->
<svg xmlns="http://www.w3.org/2000/svg" xml:space="preserve" width="148.692mm" height="24.8462mm" version="1.1" style="shape-rendering:geometricPrecision; text-rendering:geometricPrecision; image-rendering:optimizeQuality; fill-rule:evenodd; clip-rule:evenodd"
viewBox="0 0 15710 2625"
 xmlns:xlink="http://www.w3.org/1999/xlink">
 <defs>
  <style type="text/css">
   <![CDATA[
    .fil3 {fill:#0078B8}
    .fil4 {fill:#0078B8}
    .fil1 {fill:#00A3FE}
    .fil6 {fill:#0282C7}
    .fil5 {fill:#03476B}
    .fil2 {fill:#035582}
    .fil0 {fill:#00A3FE;fill-rule:nonzero}
   ]]>
  </style>
   <mask id="id0">
  <linearGradient id="id1" gradientUnits="userSpaceOnUse" x1="2187.38" y1="1863.83" x2="2187.42" y2="1338.44">
   <stop offset="0" style="stop-opacity:1; stop-color:white"/>
   <stop offset="1" style="stop-opacity:0; stop-color:white"/>
  </linearGradient>
    <rect style="fill:url(#id1)" x="109" y="1338" width="14584" height="1107"/>
   </mask>
 </defs>
 <g id="Layer_x0020_1">
  <metadata id="CorelCorpID_0Corel-Layer"/>
  <path class="fil0" d="M14112 752l-686 0 124 -612 2160 0 -124 612 -685 0 -345 1729 -789 0 345 -1729zm-1726 1321l-893 0 -234 408 -832 0 1491 -2341 776 0 555 2341 -786 0 -77 -408zm-110 -568l-114 -599 -344 599 458 0zm-2050 -228c100,45 178,106 232,182 55,77 82,169 82,276 0,248 -102,434 -306,559 -204,125 -466,187 -787,187l-1351 0 468 -2341 1241 0c274,0 482,49 625,146 143,97 214,234 214,413 0,131 -37,247 -110,346 -74,99 -177,176 -308,232zm-997 -585l-70 348 401 0c174,0 261,-68 261,-204 0,-47 -18,-83 -53,-107 -36,-25 -87,-37 -154,-37l-385 0zm261 1237c80,0 145,-18 194,-55 49,-37 74,-90 74,-159 0,-49 -19,-87 -55,-113 -37,-27 -84,-41 -139,-41l-509 0 -73 368 508 0zm-6714 -1789l-469 2341 -648 0 -673 -1090 -217 1090 -769 0 468 -2341 649 0 672 1090 217 -1090 770 0zm1708 1107l686 0 -201 1010c-125,89 -268,158 -430,206 -161,48 -335,72 -520,72 -238,0 -448,-44 -630,-133 -182,-88 -322,-211 -421,-369 -99,-158 -149,-340 -149,-545 0,-272 64,-514 191,-726 127,-212 304,-377 531,-496 228,-120 488,-179 783,-179 486,0 840,152 1063,458l-565 438c-74,-94 -153,-160 -237,-199 -85,-39 -184,-59 -298,-59 -136,0 -255,31 -356,91 -102,60 -180,144 -234,252 -55,108 -82,231 -82,370 0,138 46,249 137,332 91,84 217,126 378,126 80,0 157,-11 231,-34l123 -615z"/>
  <g id="_1310094858336">
   <path class="fil1" d="M8070 1313c0,-725 -588,-1313 -1313,-1313 -356,0 -680,142 -917,374l43 8 193 38c189,-144 425,-230 681,-230 621,0 1123,502 1123,1123 0,255 -85,491 -229,680l36 190 8 48c232,-237 375,-561 375,-918z"/>
   <path class="fil2" d="M5635 1313c0,-265 91,-509 245,-701l-30 -179 -10 -59c-244,238 -395,571 -395,939 0,724 588,1312 1312,1312 368,0 700,-151 938,-394l-53 -9 -184 -32c-192,154 -436,245 -701,245 -620,0 -1122,-502 -1122,-1122z"/>
   <path class="fil3" d="M5880 612c-154,192 -245,436 -245,701 0,620 502,1122 1122,1122 265,0 509,-91 701,-245l-1578 -1578z"/>
   <path class="fil4" d="M6076 420l1575 1573c144,-189 229,-425 229,-680 0,-621 -502,-1123 -1123,-1123 -256,0 -492,86 -681,230z"/>
   <polygon class="fil5" points="7687,2183 5883,382 5840,374 5850,433 7642,2222 7695,2231 "/>
   <polygon class="fil1" points="7642,2222 5850,433 5880,612 7458,2190 "/>
   <polygon class="fil2" points="5883,382 7687,2183 7651,1993 6076,420 "/>
  </g>
  <path class="fil6" style="mask:url(#id0)" d="M13876 2392l607 0 210 -1054 -607 0 -210 1054zm-13556 -1054l586 0 -210 1054 -587 0 211 -1054zm739 0l692 0 81 133 27 -133 586 0 -211 1054 -525 0 -650 -1054zm1856 0l615 0c-3,33 -5,66 -5,100 0,155 51,293 167,398 120,111 277,149 438,149 87,0 173,-12 256,-37l52 -16 119 -594 504 0 -172 866c-115,77 -242,134 -375,173 -161,48 -327,68 -495,68 -203,0 -406,-34 -591,-123 -159,-77 -290,-186 -385,-337 -94,-151 -135,-319 -135,-497 0,-50 3,-100 7,-150zm5500 0l1729 0 46 21c77,34 146,83 195,152 48,67 66,143 66,224 0,212 -82,372 -263,483 -220,134 -488,174 -741,174l-1242 0 210 -1054zm2845 0l550 0 -147 256 721 0 -49 -256 551 0 250 1054 -599 0 -77 -408 -1019 0 -234 408 -618 0 671 -1054zm-1770 681l-617 0 109 -547 582 0c69,0 135,16 191,57 62,45 92,111 92,186 0,93 -34,174 -109,231 -72,53 -159,73 -248,73z"/>
 </g>
</svg>
